<?xml version="1.0" encoding="UTF-8" standalone="no"?>
<!DOCTYPE svg PUBLIC "-//W3C//DTD SVG 1.1//EN"
 "http://www.w3.org/Graphics/SVG/1.1/DTD/svg11.dtd">
<!-- Generated by graphviz version 12.1.0 (20240811.2233)
 -->
<!-- Title: sources/argvprocessing.cpp Pages: 1 -->
<svg width="500pt" height="140pt"
 viewBox="0.00 0.00 499.75 140.00" xmlns="http://www.w3.org/2000/svg" xmlns:xlink="http://www.w3.org/1999/xlink">
<g id="graph0" class="graph" transform="scale(1 1) rotate(0) translate(4 136)">
<title>sources/argvprocessing.cpp</title>
<!-- Node1 -->
<g id="Node000001" class="node">
<title>Node1</title>
<g id="a_Node000001"><a xlink:title=" ">
<polygon fill="#999999" stroke="#666666" points="225.75,-132 87.5,-132 87.5,-112 225.75,-112 225.75,-132"/>
<text text-anchor="middle" x="156.62" y="-118.5" font-family="Helvetica,sans-Serif" font-size="10.00">sources/argvprocessing.cpp</text>
</a>
</g>
</g>
<!-- Node2 -->
<g id="Node000002" class="node">
<title>Node2</title>
<g id="a_Node000002"><a xlink:title=" ">
<polygon fill="#e0e0e0" stroke="#999999" points="45.25,-76 0,-76 0,-56 45.25,-56 45.25,-76"/>
<text text-anchor="middle" x="22.62" y="-62.5" font-family="Helvetica,sans-Serif" font-size="10.00">stdio.h</text>
</a>
</g>
</g>
<!-- Node1&#45;&gt;Node2 -->
<g id="edge1_Node000001_Node000002" class="edge">
<title>Node1&#45;&gt;Node2</title>
<g id="a_edge1_Node000001_Node000002"><a xlink:title=" ">
<path fill="none" stroke="#63b8ff" d="M133.28,-111.59C111.96,-103 80.17,-90.19 56.13,-80.5"/>
<polygon fill="#63b8ff" stroke="#63b8ff" points="57.69,-77.36 47.1,-76.86 55.07,-83.85 57.69,-77.36"/>
</a>
</g>
</g>
<!-- Node3 -->
<g id="Node000003" class="node">
<title>Node3</title>
<g id="a_Node000003"><a xlink:title=" ">
<polygon fill="#e0e0e0" stroke="#999999" points="111.75,-76 63.5,-76 63.5,-56 111.75,-56 111.75,-76"/>
<text text-anchor="middle" x="87.62" y="-62.5" font-family="Helvetica,sans-Serif" font-size="10.00">string.h</text>
</a>
</g>
</g>
<!-- Node1&#45;&gt;Node3 -->
<g id="edge2_Node000001_Node000003" class="edge">
<title>Node1&#45;&gt;Node3</title>
<g id="a_edge2_Node000001_Node000003"><a xlink:title=" ">
<path fill="none" stroke="#63b8ff" d="M144.61,-111.59C134.61,-103.77 120.16,-92.46 108.32,-83.19"/>
<polygon fill="#63b8ff" stroke="#63b8ff" points="110.73,-80.64 100.7,-77.23 106.42,-86.15 110.73,-80.64"/>
</a>
</g>
</g>
<!-- Node4 -->
<g id="Node000004" class="node">
<title>Node4</title>
<g id="a_Node000004"><a xlink:href="consts_8h.html" target="_top" xlink:title=" ">
<polygon fill="white" stroke="#666666" points="183.38,-76 129.88,-76 129.88,-56 183.38,-56 183.38,-76"/>
<text text-anchor="middle" x="156.62" y="-62.5" font-family="Helvetica,sans-Serif" font-size="10.00">consts.h</text>
</a>
</g>
</g>
<!-- Node1&#45;&gt;Node4 -->
<g id="edge3_Node000001_Node000004" class="edge">
<title>Node1&#45;&gt;Node4</title>
<g id="a_edge3_Node000001_Node000004"><a xlink:title=" ">
<path fill="none" stroke="#63b8ff" d="M156.62,-111.59C156.62,-105.01 156.62,-95.96 156.62,-87.73"/>
<polygon fill="#63b8ff" stroke="#63b8ff" points="160.13,-87.81 156.63,-77.81 153.13,-87.81 160.13,-87.81"/>
</a>
</g>
</g>
<!-- Node5 -->
<g id="Node000005" class="node">
<title>Node5</title>
<g id="a_Node000005"><a xlink:href="argvprocessing_8h.html" target="_top" xlink:title=" ">
<polygon fill="white" stroke="#666666" points="338,-76 201.25,-76 201.25,-56 338,-56 338,-76"/>
<text text-anchor="middle" x="269.62" y="-62.5" font-family="Helvetica,sans-Serif" font-size="10.00">../headers/argvprocessing.h</text>
</a>
</g>
</g>
<!-- Node1&#45;&gt;Node5 -->
<g id="edge4_Node000001_Node000005" class="edge">
<title>Node1&#45;&gt;Node5</title>
<g id="a_edge4_Node000001_Node000005"><a xlink:title=" ">
<path fill="none" stroke="#63b8ff" d="M176.31,-111.59C193.78,-103.24 219.58,-90.92 239.62,-81.34"/>
<polygon fill="#63b8ff" stroke="#63b8ff" points="240.91,-84.6 248.42,-77.13 237.89,-78.29 240.91,-84.6"/>
</a>
</g>
</g>
<!-- Node6 -->
<g id="Node000006" class="node">
<title>Node6</title>
<g id="a_Node000006"><a xlink:href="myassert_8h.html" target="_top" xlink:title=" ">
<polygon fill="white" stroke="#666666" points="421,-76 356.25,-76 356.25,-56 421,-56 421,-76"/>
<text text-anchor="middle" x="388.62" y="-62.5" font-family="Helvetica,sans-Serif" font-size="10.00">myassert.h</text>
</a>
</g>
</g>
<!-- Node1&#45;&gt;Node6 -->
<g id="edge5_Node000001_Node000006" class="edge">
<title>Node1&#45;&gt;Node6</title>
<g id="a_edge5_Node000001_Node000006"><a xlink:title=" ">
<path fill="none" stroke="#63b8ff" d="M197.3,-111.53C238.61,-101.92 302.37,-87.08 344.78,-77.21"/>
<polygon fill="#63b8ff" stroke="#63b8ff" points="345.45,-80.64 354.4,-74.97 343.86,-73.82 345.45,-80.64"/>
</a>
</g>
</g>
<!-- Node7 -->
<g id="Node000007" class="node">
<title>Node7</title>
<g id="a_Node000007"><a xlink:title=" ">
<polygon fill="#e0e0e0" stroke="#999999" points="345.38,-20 297.88,-20 297.88,0 345.38,0 345.38,-20"/>
<text text-anchor="middle" x="321.62" y="-6.5" font-family="Helvetica,sans-Serif" font-size="10.00">stdlib.h</text>
</a>
</g>
</g>
<!-- Node6&#45;&gt;Node7 -->
<g id="edge6_Node000006_Node000007" class="edge">
<title>Node6&#45;&gt;Node7</title>
<g id="a_edge6_Node000006_Node000007"><a xlink:title=" ">
<path fill="none" stroke="#63b8ff" d="M376.95,-55.59C367.35,-47.85 353.5,-36.69 342.06,-27.47"/>
<polygon fill="#63b8ff" stroke="#63b8ff" points="344.32,-24.8 334.34,-21.25 339.93,-30.25 344.32,-24.8"/>
</a>
</g>
</g>
<!-- Node8 -->
<g id="Node000008" class="node">
<title>Node8</title>
<g id="a_Node000008"><a xlink:href="colors_8h.html" target="_top" xlink:title=" ">
<polygon fill="white" stroke="#666666" points="413.88,-20 363.38,-20 363.38,0 413.88,0 413.88,-20"/>
<text text-anchor="middle" x="388.62" y="-6.5" font-family="Helvetica,sans-Serif" font-size="10.00">colors.h</text>
</a>
</g>
</g>
<!-- Node6&#45;&gt;Node8 -->
<g id="edge7_Node000006_Node000008" class="edge">
<title>Node6&#45;&gt;Node8</title>
<g id="a_edge7_Node000006_Node000008"><a xlink:title=" ">
<path fill="none" stroke="#63b8ff" d="M388.62,-55.59C388.62,-49.01 388.62,-39.96 388.62,-31.73"/>
<polygon fill="#63b8ff" stroke="#63b8ff" points="392.13,-31.81 388.63,-21.81 385.13,-31.81 392.13,-31.81"/>
</a>
</g>
</g>
<!-- Node9 -->
<g id="Node000009" class="node">
<title>Node9</title>
<g id="a_Node000009"><a xlink:href="col_printf_8h.html" target="_top" xlink:title=" ">
<polygon fill="white" stroke="#666666" points="491.75,-20 431.5,-20 431.5,0 491.75,0 491.75,-20"/>
<text text-anchor="middle" x="461.62" y="-6.5" font-family="Helvetica,sans-Serif" font-size="10.00">colPrintf.h</text>
</a>
</g>
</g>
<!-- Node6&#45;&gt;Node9 -->
<g id="edge8_Node000006_Node000009" class="edge">
<title>Node6&#45;&gt;Node9</title>
<g id="a_edge8_Node000006_Node000009"><a xlink:title=" ">
<path fill="none" stroke="#63b8ff" d="M401.34,-55.59C412.02,-47.7 427.5,-36.24 440.11,-26.92"/>
<polygon fill="#63b8ff" stroke="#63b8ff" points="441.88,-29.96 447.84,-21.2 437.72,-24.33 441.88,-29.96"/>
</a>
</g>
</g>
</g>
</svg>
