<?xml version="1.0" encoding="UTF-8" standalone="no"?>
<!DOCTYPE svg PUBLIC "-//W3C//DTD SVG 1.1//EN"
 "http://www.w3.org/Graphics/SVG/1.1/DTD/svg11.dtd">
<!-- Generated by graphviz version 12.1.0 (20240811.2233)
 -->
<!-- Title: D:/Cprojects/square_solver_git/squareSolver/sources/argvprocessing.cpp Pages: 1 -->
<svg width="500pt" height="164pt"
 viewBox="0.00 0.00 499.75 164.00" xmlns="http://www.w3.org/2000/svg" xmlns:xlink="http://www.w3.org/1999/xlink">
<g id="graph0" class="graph" transform="scale(1 1) rotate(0) translate(4 160)">
<title>D:/Cprojects/square_solver_git/squareSolver/sources/argvprocessing.cpp</title>
<!-- Node1 -->
<g id="Node000001" class="node">
<title>Node1</title>
<g id="a_Node000001"><a xlink:title=" ">
<polygon fill="#999999" stroke="#666666" points="227.25,-156 86,-156 86,-112 227.25,-112 227.25,-156"/>
<text text-anchor="start" x="94" y="-142.5" font-family="Helvetica,sans-Serif" font-size="10.00">D:/Cprojects/square</text>
<text text-anchor="start" x="94" y="-130.5" font-family="Helvetica,sans-Serif" font-size="10.00">_solver_git/squareSolver</text>
<text text-anchor="middle" x="156.62" y="-118.5" font-family="Helvetica,sans-Serif" font-size="10.00">/sources/argvprocessing.cpp</text>
</a>
</g>
</g>
<!-- Node2 -->
<g id="Node000002" class="node">
<title>Node2</title>
<g id="a_Node000002"><a xlink:title=" ">
<polygon fill="#e0e0e0" stroke="#999999" points="45.25,-76 0,-76 0,-56 45.25,-56 45.25,-76"/>
<text text-anchor="middle" x="22.62" y="-62.5" font-family="Helvetica,sans-Serif" font-size="10.00">stdio.h</text>
</a>
</g>
</g>
<!-- Node1&#45;&gt;Node2 -->
<g id="edge1_Node000001_Node000002" class="edge">
<title>Node1&#45;&gt;Node2</title>
<g id="a_edge1_Node000001_Node000002"><a xlink:title=" ">
<path fill="none" stroke="#63b8ff" d="M113.12,-111.57C93.03,-101.68 69.71,-90.19 51.77,-81.36"/>
<polygon fill="#63b8ff" stroke="#63b8ff" points="53.51,-78.31 43,-77.03 50.42,-84.59 53.51,-78.31"/>
</a>
</g>
</g>
<!-- Node3 -->
<g id="Node000003" class="node">
<title>Node3</title>
<g id="a_Node000003"><a xlink:title=" ">
<polygon fill="#e0e0e0" stroke="#999999" points="111.75,-76 63.5,-76 63.5,-56 111.75,-56 111.75,-76"/>
<text text-anchor="middle" x="87.62" y="-62.5" font-family="Helvetica,sans-Serif" font-size="10.00">string.h</text>
</a>
</g>
</g>
<!-- Node1&#45;&gt;Node3 -->
<g id="edge2_Node000001_Node000003" class="edge">
<title>Node1&#45;&gt;Node3</title>
<g id="a_edge2_Node000001_Node000003"><a xlink:title=" ">
<path fill="none" stroke="#63b8ff" d="M134.41,-111.75C125.08,-102.82 114.36,-92.57 105.54,-84.13"/>
<polygon fill="#63b8ff" stroke="#63b8ff" points="108.21,-81.85 98.57,-77.47 103.37,-86.91 108.21,-81.85"/>
</a>
</g>
</g>
<!-- Node4 -->
<g id="Node000004" class="node">
<title>Node4</title>
<g id="a_Node000004"><a xlink:href="consts_8h.html" target="_top" xlink:title=" ">
<polygon fill="white" stroke="#666666" points="183.38,-76 129.88,-76 129.88,-56 183.38,-56 183.38,-76"/>
<text text-anchor="middle" x="156.62" y="-62.5" font-family="Helvetica,sans-Serif" font-size="10.00">consts.h</text>
</a>
</g>
</g>
<!-- Node1&#45;&gt;Node4 -->
<g id="edge3_Node000001_Node000004" class="edge">
<title>Node1&#45;&gt;Node4</title>
<g id="a_edge3_Node000001_Node000004"><a xlink:title=" ">
<path fill="none" stroke="#63b8ff" d="M156.62,-111.75C156.62,-104.13 156.62,-95.53 156.62,-87.93"/>
<polygon fill="#63b8ff" stroke="#63b8ff" points="160.13,-87.93 156.63,-77.93 153.13,-87.93 160.13,-87.93"/>
</a>
</g>
</g>
<!-- Node5 -->
<g id="Node000005" class="node">
<title>Node5</title>
<g id="a_Node000005"><a xlink:href="argvprocessing_8h.html" target="_top" xlink:title=" ">
<polygon fill="white" stroke="#666666" points="338,-76 201.25,-76 201.25,-56 338,-56 338,-76"/>
<text text-anchor="middle" x="269.62" y="-62.5" font-family="Helvetica,sans-Serif" font-size="10.00">../headers/argvprocessing.h</text>
</a>
</g>
</g>
<!-- Node1&#45;&gt;Node5 -->
<g id="edge4_Node000001_Node000005" class="edge">
<title>Node1&#45;&gt;Node5</title>
<g id="a_edge4_Node000001_Node000005"><a xlink:title=" ">
<path fill="none" stroke="#63b8ff" d="M193.31,-111.57C209.86,-101.91 229,-90.73 243.97,-81.98"/>
<polygon fill="#63b8ff" stroke="#63b8ff" points="245.41,-85.19 252.28,-77.13 241.88,-79.15 245.41,-85.19"/>
</a>
</g>
</g>
<!-- Node6 -->
<g id="Node000006" class="node">
<title>Node6</title>
<g id="a_Node000006"><a xlink:href="myassert_8h.html" target="_top" xlink:title=" ">
<polygon fill="white" stroke="#666666" points="421,-76 356.25,-76 356.25,-56 421,-56 421,-76"/>
<text text-anchor="middle" x="388.62" y="-62.5" font-family="Helvetica,sans-Serif" font-size="10.00">myassert.h</text>
</a>
</g>
</g>
<!-- Node1&#45;&gt;Node6 -->
<g id="edge5_Node000001_Node000006" class="edge">
<title>Node1&#45;&gt;Node6</title>
<g id="a_edge5_Node000001_Node000006"><a xlink:title=" ">
<path fill="none" stroke="#63b8ff" d="M227.49,-112.84C265.92,-101.91 312.18,-88.75 345.26,-79.34"/>
<polygon fill="#63b8ff" stroke="#63b8ff" points="345.83,-82.81 354.49,-76.71 343.91,-76.08 345.83,-82.81"/>
</a>
</g>
</g>
<!-- Node7 -->
<g id="Node000007" class="node">
<title>Node7</title>
<g id="a_Node000007"><a xlink:title=" ">
<polygon fill="#e0e0e0" stroke="#999999" points="345.38,-20 297.88,-20 297.88,0 345.38,0 345.38,-20"/>
<text text-anchor="middle" x="321.62" y="-6.5" font-family="Helvetica,sans-Serif" font-size="10.00">stdlib.h</text>
</a>
</g>
</g>
<!-- Node6&#45;&gt;Node7 -->
<g id="edge6_Node000006_Node000007" class="edge">
<title>Node6&#45;&gt;Node7</title>
<g id="a_edge6_Node000006_Node000007"><a xlink:title=" ">
<path fill="none" stroke="#63b8ff" d="M376.95,-55.59C367.35,-47.85 353.5,-36.69 342.06,-27.47"/>
<polygon fill="#63b8ff" stroke="#63b8ff" points="344.32,-24.8 334.34,-21.25 339.93,-30.25 344.32,-24.8"/>
</a>
</g>
</g>
<!-- Node8 -->
<g id="Node000008" class="node">
<title>Node8</title>
<g id="a_Node000008"><a xlink:href="colors_8h.html" target="_top" xlink:title=" ">
<polygon fill="white" stroke="#666666" points="413.88,-20 363.38,-20 363.38,0 413.88,0 413.88,-20"/>
<text text-anchor="middle" x="388.62" y="-6.5" font-family="Helvetica,sans-Serif" font-size="10.00">colors.h</text>
</a>
</g>
</g>
<!-- Node6&#45;&gt;Node8 -->
<g id="edge7_Node000006_Node000008" class="edge">
<title>Node6&#45;&gt;Node8</title>
<g id="a_edge7_Node000006_Node000008"><a xlink:title=" ">
<path fill="none" stroke="#63b8ff" d="M388.62,-55.59C388.62,-49.01 388.62,-39.96 388.62,-31.73"/>
<polygon fill="#63b8ff" stroke="#63b8ff" points="392.13,-31.81 388.63,-21.81 385.13,-31.81 392.13,-31.81"/>
</a>
</g>
</g>
<!-- Node9 -->
<g id="Node000009" class="node">
<title>Node9</title>
<g id="a_Node000009"><a xlink:href="col_printf_8h.html" target="_top" xlink:title=" ">
<polygon fill="white" stroke="#666666" points="491.75,-20 431.5,-20 431.5,0 491.75,0 491.75,-20"/>
<text text-anchor="middle" x="461.62" y="-6.5" font-family="Helvetica,sans-Serif" font-size="10.00">colPrintf.h</text>
</a>
</g>
</g>
<!-- Node6&#45;&gt;Node9 -->
<g id="edge8_Node000006_Node000009" class="edge">
<title>Node6&#45;&gt;Node9</title>
<g id="a_edge8_Node000006_Node000009"><a xlink:title=" ">
<path fill="none" stroke="#63b8ff" d="M401.34,-55.59C412.02,-47.7 427.5,-36.24 440.11,-26.92"/>
<polygon fill="#63b8ff" stroke="#63b8ff" points="441.88,-29.96 447.84,-21.2 437.72,-24.33 441.88,-29.96"/>
</a>
</g>
</g>
</g>
</svg>
