<?xml version="1.0" encoding="UTF-8" standalone="no"?>
<!DOCTYPE svg PUBLIC "-//W3C//DTD SVG 1.1//EN"
 "http://www.w3.org/Graphics/SVG/1.1/DTD/svg11.dtd">
<!-- Generated by graphviz version 12.1.0 (20240811.2233)
 -->
<!-- Title: argvHandler Pages: 1 -->
<svg width="528pt" height="180pt"
 viewBox="0.00 0.00 527.75 180.00" xmlns="http://www.w3.org/2000/svg" xmlns:xlink="http://www.w3.org/1999/xlink">
<g id="graph0" class="graph" transform="scale(1 1) rotate(0) translate(4 176)">
<title>argvHandler</title>
<!-- Node1 -->
<g id="Node000001" class="node">
<title>Node1</title>
<g id="a_Node000001"><a xlink:title="Действует в зависимости от значений флагов в fval.">
<polygon fill="#999999" stroke="#666666" points="68.5,-153 0,-153 0,-133 68.5,-133 68.5,-153"/>
<text text-anchor="middle" x="34.25" y="-139.5" font-family="Helvetica,sans-Serif" font-size="10.00">argvHandler</text>
</a>
</g>
</g>
<!-- Node2 -->
<g id="Node000002" class="node">
<title>Node2</title>
<g id="a_Node000002"><a xlink:href="col_printf_8cpp.html#ae860d5ee10e4e730f39d929a55709678" target="_top" xlink:title="Если colFlag == 1, текст окрашивается с помощью цветовой строки color, в остальном &#45; обычный printf.">
<polygon fill="white" stroke="#666666" points="353.88,-172 301.88,-172 301.88,-152 353.88,-152 353.88,-172"/>
<text text-anchor="middle" x="327.88" y="-158.5" font-family="Helvetica,sans-Serif" font-size="10.00">colPrintf</text>
</a>
</g>
</g>
<!-- Node1&#45;&gt;Node2 -->
<g id="edge1_Node000001_Node000002" class="edge">
<title>Node1&#45;&gt;Node2</title>
<g id="a_edge1_Node000001_Node000002"><a xlink:title=" ">
<path fill="none" stroke="#63b8ff" d="M66.25,-153.41C78.08,-156.88 91.77,-160.29 104.5,-162 169.34,-170.73 245.78,-167.9 290.05,-164.99"/>
<polygon fill="#63b8ff" stroke="#63b8ff" points="290.14,-168.5 299.87,-164.31 289.65,-161.51 290.14,-168.5"/>
</a>
</g>
</g>
<!-- Node3 -->
<g id="Node000003" class="node">
<title>Node3</title>
<g id="a_Node000003"><a xlink:href="tests_8cpp.html#af69c2591503f36d530dd5912015e849c" target="_top" xlink:title="Запускает тесты из файла с именем fname, использует freadTests() и runTest()">
<polygon fill="white" stroke="#666666" points="164.38,-153 107.88,-153 107.88,-133 164.38,-133 164.38,-153"/>
<text text-anchor="middle" x="136.12" y="-139.5" font-family="Helvetica,sans-Serif" font-size="10.00">frunTests</text>
</a>
</g>
</g>
<!-- Node1&#45;&gt;Node3 -->
<g id="edge2_Node000001_Node000003" class="edge">
<title>Node1&#45;&gt;Node3</title>
<g id="a_edge2_Node000001_Node000003"><a xlink:title=" ">
<path fill="none" stroke="#63b8ff" d="M68.78,-143C77.53,-143 87.04,-143 96.04,-143"/>
<polygon fill="#63b8ff" stroke="#63b8ff" points="95.98,-146.5 105.98,-143 95.98,-139.5 95.98,-146.5"/>
</a>
</g>
</g>
<!-- Node12 -->
<g id="Node000012" class="node">
<title>Node12</title>
<g id="a_Node000012"><a xlink:href="col_printf_8cpp.html#a0a90d6e29a785f1f30db7ef3f23c3859" target="_top" xlink:title="Функция, выставляющая значение colFlag.">
<polygon fill="white" stroke="#666666" points="167.75,-115 104.5,-115 104.5,-95 167.75,-95 167.75,-115"/>
<text text-anchor="middle" x="136.12" y="-101.5" font-family="Helvetica,sans-Serif" font-size="10.00">setColFlag</text>
</a>
</g>
</g>
<!-- Node1&#45;&gt;Node12 -->
<g id="edge15_Node000001_Node000012" class="edge">
<title>Node1&#45;&gt;Node12</title>
<g id="a_edge15_Node000001_Node000012"><a xlink:title=" ">
<path fill="none" stroke="#63b8ff" d="M62.81,-132.52C73.39,-128.49 85.68,-123.81 97.08,-119.48"/>
<polygon fill="#63b8ff" stroke="#63b8ff" points="98.14,-122.82 106.24,-115.99 95.65,-116.27 98.14,-122.82"/>
</a>
</g>
</g>
<!-- Node4 -->
<g id="Node000004" class="node">
<title>Node4</title>
<g id="a_Node000004"><a xlink:href="tests_8cpp.html#a9431305e7a02dad28707814742a00be3" target="_top" xlink:title="Читает тесты из файла fname в массив testp.">
<polygon fill="white" stroke="#666666" points="265.5,-153 203.75,-153 203.75,-133 265.5,-133 265.5,-153"/>
<text text-anchor="middle" x="234.62" y="-139.5" font-family="Helvetica,sans-Serif" font-size="10.00">freadTests</text>
</a>
</g>
</g>
<!-- Node3&#45;&gt;Node4 -->
<g id="edge3_Node000003_Node000004" class="edge">
<title>Node3&#45;&gt;Node4</title>
<g id="a_edge3_Node000003_Node000004"><a xlink:title=" ">
<path fill="none" stroke="#63b8ff" d="M164.78,-143C173.24,-143 182.73,-143 191.91,-143"/>
<polygon fill="#63b8ff" stroke="#63b8ff" points="191.75,-146.5 201.75,-143 191.75,-139.5 191.75,-146.5"/>
</a>
</g>
</g>
<!-- Node5 -->
<g id="Node000005" class="node">
<title>Node5</title>
<g id="a_Node000005"><a xlink:href="tests_8cpp.html#a4dfedd6bea487396641c51297a35d57b" target="_top" xlink:title="Тестирует функцию sqSolve, используя данные из test.">
<polygon fill="white" stroke="#666666" points="258.75,-115 210.5,-115 210.5,-95 258.75,-95 258.75,-115"/>
<text text-anchor="middle" x="234.62" y="-101.5" font-family="Helvetica,sans-Serif" font-size="10.00">runTest</text>
</a>
</g>
</g>
<!-- Node3&#45;&gt;Node5 -->
<g id="edge5_Node000003_Node000005" class="edge">
<title>Node3&#45;&gt;Node5</title>
<g id="a_edge5_Node000003_Node000005"><a xlink:title=" ">
<path fill="none" stroke="#63b8ff" d="M163.75,-132.52C174.85,-128.14 187.89,-123.01 199.67,-118.37"/>
<polygon fill="#63b8ff" stroke="#63b8ff" points="200.62,-121.76 208.64,-114.84 198.05,-115.25 200.62,-121.76"/>
</a>
</g>
</g>
<!-- Node4&#45;&gt;Node2 -->
<g id="edge4_Node000004_Node000002" class="edge">
<title>Node4&#45;&gt;Node2</title>
<g id="a_edge4_Node000004_Node000002"><a xlink:title=" ">
<path fill="none" stroke="#63b8ff" d="M265.76,-149.27C273.66,-150.92 282.27,-152.71 290.46,-154.42"/>
<polygon fill="#63b8ff" stroke="#63b8ff" points="289.67,-157.83 300.17,-156.44 291.1,-150.97 289.67,-157.83"/>
</a>
</g>
</g>
<!-- Node5&#45;&gt;Node2 -->
<g id="edge6_Node000005_Node000002" class="edge">
<title>Node5&#45;&gt;Node2</title>
<g id="a_edge6_Node000005_Node000002"><a xlink:title=" ">
<path fill="none" stroke="#63b8ff" d="M252.36,-115.45C265.87,-123.89 285.11,-135.91 300.66,-145.62"/>
<polygon fill="#63b8ff" stroke="#63b8ff" points="298.63,-148.48 308.96,-150.81 302.33,-142.54 298.63,-148.48"/>
</a>
</g>
</g>
<!-- Node6 -->
<g id="Node000006" class="node">
<title>Node6</title>
<g id="a_Node000006"><a xlink:href="sqmath_8cpp.html#a4549ae82b726502768498c8469b8143f" target="_top" xlink:title="С погрешностью EPSILON сравнивает корни типа roots_t.">
<polygon fill="white" stroke="#666666" points="354.25,-134 301.5,-134 301.5,-114 354.25,-114 354.25,-134"/>
<text text-anchor="middle" x="327.88" y="-120.5" font-family="Helvetica,sans-Serif" font-size="10.00">eqRoots</text>
</a>
</g>
</g>
<!-- Node5&#45;&gt;Node6 -->
<g id="edge7_Node000005_Node000006" class="edge">
<title>Node5&#45;&gt;Node6</title>
<g id="a_edge7_Node000005_Node000006"><a xlink:title=" ">
<path fill="none" stroke="#63b8ff" d="M259.12,-109.89C268.59,-111.86 279.72,-114.18 290.2,-116.36"/>
<polygon fill="#63b8ff" stroke="#63b8ff" points="289.22,-119.74 299.73,-118.35 290.65,-112.88 289.22,-119.74"/>
</a>
</g>
</g>
<!-- Node7 -->
<g id="Node000007" class="node">
<title>Node7</title>
<g id="a_Node000007"><a xlink:href="sqmath_8cpp.html#afc2fd18b983db1a6b8530aa3fb24da1e" target="_top" xlink:title="С погрешностью EPSILON сравнивает 2 числа типа double.">
<polygon fill="white" stroke="#666666" points="437.75,-134 393.25,-134 393.25,-114 437.75,-114 437.75,-134"/>
<text text-anchor="middle" x="415.5" y="-120.5" font-family="Helvetica,sans-Serif" font-size="10.00">equals</text>
</a>
</g>
</g>
<!-- Node5&#45;&gt;Node7 -->
<g id="edge9_Node000005_Node000007" class="edge">
<title>Node5&#45;&gt;Node7</title>
<g id="a_edge9_Node000005_Node000007"><a xlink:title=" ">
<path fill="none" stroke="#63b8ff" d="M258.97,-102.92C283.01,-101.26 321.48,-99.96 354.25,-105 363.47,-106.42 373.22,-108.99 382.12,-111.8"/>
<polygon fill="#63b8ff" stroke="#63b8ff" points="380.82,-115.05 391.41,-114.92 383.05,-108.42 380.82,-115.05"/>
</a>
</g>
</g>
<!-- Node8 -->
<g id="Node000008" class="node">
<title>Node8</title>
<g id="a_Node000008"><a xlink:href="sqmath_8cpp.html#a81a063d50a9d1121b1d696f2e0e7e8e7" target="_top" xlink:title="Решает квадратное уравнение вида ax^2 + bx + c = 0. Коэффициенты берет из структуры coeffs_t,...">
<polygon fill="white" stroke="#666666" points="353.5,-58 302.25,-58 302.25,-38 353.5,-38 353.5,-58"/>
<text text-anchor="middle" x="327.88" y="-44.5" font-family="Helvetica,sans-Serif" font-size="10.00">sqSolve</text>
</a>
</g>
</g>
<!-- Node5&#45;&gt;Node8 -->
<g id="edge10_Node000005_Node000008" class="edge">
<title>Node5&#45;&gt;Node8</title>
<g id="a_edge10_Node000005_Node000008"><a xlink:title=" ">
<path fill="none" stroke="#63b8ff" d="M252.36,-94.55C265.87,-86.11 285.11,-74.09 300.66,-64.38"/>
<polygon fill="#63b8ff" stroke="#63b8ff" points="302.33,-67.46 308.96,-59.19 298.63,-61.52 302.33,-67.46"/>
</a>
</g>
</g>
<!-- Node6&#45;&gt;Node7 -->
<g id="edge8_Node000006_Node000007" class="edge">
<title>Node6&#45;&gt;Node7</title>
<g id="a_edge8_Node000006_Node000007"><a xlink:title=" ">
<path fill="none" stroke="#63b8ff" d="M354.57,-124C363.06,-124 372.63,-124 381.59,-124"/>
<polygon fill="#63b8ff" stroke="#63b8ff" points="381.36,-127.5 391.36,-124 381.36,-120.5 381.36,-127.5"/>
</a>
</g>
</g>
<!-- Node9 -->
<g id="Node000009" class="node">
<title>Node9</title>
<g id="a_Node000009"><a xlink:href="sqmath_8cpp.html#aabc47b97dff1309b0dba82045778e896" target="_top" xlink:title="Считает дискриминант, используя коэффициенты из структуры типа coeffs_t.">
<polygon fill="white" stroke="#666666" points="434,-96 397,-96 397,-76 434,-76 434,-96"/>
<text text-anchor="middle" x="415.5" y="-82.5" font-family="Helvetica,sans-Serif" font-size="10.00">discr</text>
</a>
</g>
</g>
<!-- Node8&#45;&gt;Node9 -->
<g id="edge11_Node000008_Node000009" class="edge">
<title>Node8&#45;&gt;Node9</title>
<g id="a_edge11_Node000008_Node000009"><a xlink:title=" ">
<path fill="none" stroke="#63b8ff" d="M352.27,-58.38C362.74,-63.03 375.18,-68.55 386.18,-73.43"/>
<polygon fill="#63b8ff" stroke="#63b8ff" points="384.62,-76.57 395.18,-77.43 387.46,-70.17 384.62,-76.57"/>
</a>
</g>
</g>
<!-- Node10 -->
<g id="Node000010" class="node">
<title>Node10</title>
<g id="a_Node000010"><a xlink:href="sqmath_8cpp.html#a72f9e3f1ac3e22071bdcdd823010b63b" target="_top" xlink:title="Приближенно сравнивает a с 0. Погрешность определяется константой EPSILON.">
<polygon fill="white" stroke="#666666" points="519.75,-39 476.75,-39 476.75,-19 519.75,-19 519.75,-39"/>
<text text-anchor="middle" x="498.25" y="-25.5" font-family="Helvetica,sans-Serif" font-size="10.00">isZero</text>
</a>
</g>
</g>
<!-- Node8&#45;&gt;Node10 -->
<g id="edge12_Node000008_Node000010" class="edge">
<title>Node8&#45;&gt;Node10</title>
<g id="a_edge12_Node000008_Node000010"><a xlink:title=" ">
<path fill="none" stroke="#63b8ff" d="M353.72,-45.2C383.29,-41.86 432.75,-36.28 465.18,-32.62"/>
<polygon fill="#63b8ff" stroke="#63b8ff" points="465.25,-36.13 474.79,-31.53 464.46,-29.18 465.25,-36.13"/>
</a>
</g>
</g>
<!-- Node11 -->
<g id="Node000011" class="node">
<title>Node11</title>
<g id="a_Node000011"><a xlink:href="sqmath_8cpp.html#aadb30e038879ab02aee3f881974ed8fc" target="_top" xlink:title="Решает линейное уравнение вида bx + c = 0.">
<polygon fill="white" stroke="#666666" points="440.75,-20 390.25,-20 390.25,0 440.75,0 440.75,-20"/>
<text text-anchor="middle" x="415.5" y="-6.5" font-family="Helvetica,sans-Serif" font-size="10.00">linSolve</text>
</a>
</g>
</g>
<!-- Node8&#45;&gt;Node11 -->
<g id="edge13_Node000008_Node000011" class="edge">
<title>Node8&#45;&gt;Node11</title>
<g id="a_edge13_Node000008_Node000011"><a xlink:title=" ">
<path fill="none" stroke="#63b8ff" d="M352.27,-37.62C361.05,-33.72 371.21,-29.21 380.74,-24.98"/>
<polygon fill="#63b8ff" stroke="#63b8ff" points="382.03,-28.24 389.75,-20.99 379.19,-21.84 382.03,-28.24"/>
</a>
</g>
</g>
<!-- Node11&#45;&gt;Node10 -->
<g id="edge14_Node000011_Node000010" class="edge">
<title>Node11&#45;&gt;Node10</title>
<g id="a_edge14_Node000011_Node000010"><a xlink:title=" ">
<path fill="none" stroke="#63b8ff" d="M441.17,-15.8C448.71,-17.58 457.12,-19.56 465.08,-21.43"/>
<polygon fill="#63b8ff" stroke="#63b8ff" points="464.27,-24.83 474.8,-23.72 465.87,-18.02 464.27,-24.83"/>
</a>
</g>
</g>
</g>
</svg>
