<?xml version="1.0" encoding="UTF-8" standalone="no"?>
<!DOCTYPE svg PUBLIC "-//W3C//DTD SVG 1.1//EN"
 "http://www.w3.org/Graphics/SVG/1.1/DTD/svg11.dtd">
<!-- Generated by graphviz version 12.1.0 (20240811.2233)
 -->
<!-- Title: colPrintf Pages: 1 -->
<svg width="428pt" height="157pt"
 viewBox="0.00 0.00 427.75 157.31" xmlns="http://www.w3.org/2000/svg" xmlns:xlink="http://www.w3.org/1999/xlink">
<g id="graph0" class="graph" transform="scale(1 1) rotate(0) translate(4 153.31)">
<title>colPrintf</title>
<!-- Node1 -->
<g id="Node000001" class="node">
<title>Node1</title>
<g id="a_Node000001"><a xlink:title="Если colFlag == 1, текст окрашивается с помощью цветовой строки color, в остальном &#45; обычный printf.">
<polygon fill="#999999" stroke="#666666" points="419.75,-96 367.75,-96 367.75,-76 419.75,-76 419.75,-96"/>
<text text-anchor="middle" x="393.75" y="-82.5" font-family="Helvetica,sans-Serif" font-size="10.00">colPrintf</text>
</a>
</g>
</g>
<!-- Node2 -->
<g id="Node000002" class="node">
<title>Node2</title>
<g id="a_Node000002"><a xlink:href="tests_8cpp.html#a9431305e7a02dad28707814742a00be3" target="_top" xlink:title="Читает тесты из файла fname в массив testp.">
<polygon fill="white" stroke="#666666" points="331.75,-134 270,-134 270,-114 331.75,-114 331.75,-134"/>
<text text-anchor="middle" x="300.88" y="-120.5" font-family="Helvetica,sans-Serif" font-size="10.00">freadTests</text>
</a>
</g>
</g>
<!-- Node1&#45;&gt;Node2 -->
<g id="edge1_Node000001_Node000002" class="edge">
<title>Node1&#45;&gt;Node2</title>
<g id="a_edge1_Node000001_Node000002"><a xlink:title=" ">
<path fill="none" stroke="#63b8ff" d="M357.54,-100.72C347.24,-105.03 336.19,-109.65 326.68,-113.63"/>
<polygon fill="#63b8ff" stroke="#63b8ff" points="358.65,-104.05 366.52,-96.97 355.95,-97.6 358.65,-104.05"/>
</a>
</g>
</g>
<!-- Node3 -->
<g id="Node000003" class="node">
<title>Node3</title>
<g id="a_Node000003"><a xlink:href="tests_8cpp.html#af69c2591503f36d530dd5912015e849c" target="_top" xlink:title="Запускает тесты из файла с именем fname, использует freadTests() и runTest()">
<polygon fill="white" stroke="#666666" points="234,-134 177.5,-134 177.5,-114 234,-114 234,-134"/>
<text text-anchor="middle" x="205.75" y="-120.5" font-family="Helvetica,sans-Serif" font-size="10.00">frunTests</text>
</a>
</g>
</g>
<!-- Node1&#45;&gt;Node3 -->
<g id="edge5_Node000001_Node000003" class="edge">
<title>Node1&#45;&gt;Node3</title>
<g id="a_edge5_Node000001_Node000003"><a xlink:title=" ">
<path fill="none" stroke="#63b8ff" d="M378.54,-105.46C367.48,-118.82 350.85,-135.47 331.75,-143 297.85,-156.37 255.36,-144.41 229.67,-134.35"/>
<polygon fill="#63b8ff" stroke="#63b8ff" points="381.22,-107.7 384.62,-97.67 375.71,-103.39 381.22,-107.7"/>
</a>
</g>
</g>
<!-- Node5 -->
<g id="Node000005" class="node">
<title>Node5</title>
<g id="a_Node000005"><a xlink:href="main_8cpp.html#a0ddf1224851353fc92bfbff6f499fa97" target="_top" xlink:title=" ">
<polygon fill="white" stroke="#666666" points="37,-58 0,-58 0,-38 37,-38 37,-58"/>
<text text-anchor="middle" x="18.5" y="-44.5" font-family="Helvetica,sans-Serif" font-size="10.00">main</text>
</a>
</g>
</g>
<!-- Node1&#45;&gt;Node5 -->
<g id="edge6_Node000001_Node000005" class="edge">
<title>Node1&#45;&gt;Node5</title>
<g id="a_edge6_Node000001_Node000005"><a xlink:title=" ">
<path fill="none" stroke="#63b8ff" d="M356.36,-73.1C348.35,-70.7 339.83,-68.48 331.75,-67 221.17,-46.72 85.26,-46.81 37.29,-47.59"/>
<polygon fill="#63b8ff" stroke="#63b8ff" points="355.24,-76.41 365.83,-76.1 357.36,-69.74 355.24,-76.41"/>
</a>
</g>
</g>
<!-- Node6 -->
<g id="Node000006" class="node">
<title>Node6</title>
<g id="a_Node000006"><a xlink:href="printscan_8cpp.html#ac9328e55ee8a77051ab9f0e5c5b2f949" target="_top" xlink:title="Печатает корни из структуры roots_t.">
<polygon fill="white" stroke="#666666" points="137.75,-20 76.75,-20 76.75,0 137.75,0 137.75,-20"/>
<text text-anchor="middle" x="107.25" y="-6.5" font-family="Helvetica,sans-Serif" font-size="10.00">printRoots</text>
</a>
</g>
</g>
<!-- Node1&#45;&gt;Node6 -->
<g id="edge7_Node000001_Node000006" class="edge">
<title>Node1&#45;&gt;Node6</title>
<g id="a_edge7_Node000001_Node000006"><a xlink:title=" ">
<path fill="none" stroke="#63b8ff" d="M376.43,-67.23C365.14,-55.58 349.07,-41.45 331.75,-34 267.05,-6.15 182.48,-5.64 138.22,-7.76"/>
<polygon fill="#63b8ff" stroke="#63b8ff" points="373.69,-69.42 383.05,-74.39 378.84,-64.67 373.69,-69.42"/>
</a>
</g>
</g>
<!-- Node7 -->
<g id="Node000007" class="node">
<title>Node7</title>
<g id="a_Node000007"><a xlink:href="tests_8cpp.html#a4dfedd6bea487396641c51297a35d57b" target="_top" xlink:title="Тестирует функцию sqSolve, используя данные из test.">
<polygon fill="white" stroke="#666666" points="325,-96 276.75,-96 276.75,-76 325,-76 325,-96"/>
<text text-anchor="middle" x="300.88" y="-82.5" font-family="Helvetica,sans-Serif" font-size="10.00">runTest</text>
</a>
</g>
</g>
<!-- Node1&#45;&gt;Node7 -->
<g id="edge9_Node000001_Node000007" class="edge">
<title>Node1&#45;&gt;Node7</title>
<g id="a_edge9_Node000001_Node000007"><a xlink:title=" ">
<path fill="none" stroke="#63b8ff" d="M356.16,-86C345.82,-86 334.85,-86 325.49,-86"/>
<polygon fill="#63b8ff" stroke="#63b8ff" points="355.92,-89.5 365.92,-86 355.92,-82.5 355.92,-89.5"/>
</a>
</g>
</g>
<!-- Node2&#45;&gt;Node3 -->
<g id="edge2_Node000002_Node000003" class="edge">
<title>Node2&#45;&gt;Node3</title>
<g id="a_edge2_Node000002_Node000003"><a xlink:title=" ">
<path fill="none" stroke="#63b8ff" d="M258.37,-124C250.22,-124 241.86,-124 234.31,-124"/>
<polygon fill="#63b8ff" stroke="#63b8ff" points="258.13,-127.5 268.13,-124 258.13,-120.5 258.13,-127.5"/>
</a>
</g>
</g>
<!-- Node4 -->
<g id="Node000004" class="node">
<title>Node4</title>
<g id="a_Node000004"><a xlink:href="main_8cpp.html#ac52ecffca95f814564c9077d09c4b594" target="_top" xlink:title="Действует в зависимости от значений флагов в fval.">
<polygon fill="white" stroke="#666666" points="141.5,-115 73,-115 73,-95 141.5,-95 141.5,-115"/>
<text text-anchor="middle" x="107.25" y="-101.5" font-family="Helvetica,sans-Serif" font-size="10.00">argvHandler</text>
</a>
</g>
</g>
<!-- Node3&#45;&gt;Node4 -->
<g id="edge3_Node000003_Node000004" class="edge">
<title>Node3&#45;&gt;Node4</title>
<g id="a_edge3_Node000003_Node000004"><a xlink:title=" ">
<path fill="none" stroke="#63b8ff" d="M166.06,-116.38C158,-114.8 149.58,-113.14 141.73,-111.59"/>
<polygon fill="#63b8ff" stroke="#63b8ff" points="165.12,-119.77 175.61,-118.26 166.48,-112.9 165.12,-119.77"/>
</a>
</g>
</g>
<!-- Node4&#45;&gt;Node5 -->
<g id="edge4_Node000004_Node000005" class="edge">
<title>Node4&#45;&gt;Node5</title>
<g id="a_edge4_Node000004_Node000005"><a xlink:title=" ">
<path fill="none" stroke="#63b8ff" d="M80.79,-88.27C66.06,-78.59 48,-66.73 35.31,-58.39"/>
<polygon fill="#63b8ff" stroke="#63b8ff" points="78.79,-91.15 89.07,-93.71 82.64,-85.3 78.79,-91.15"/>
</a>
</g>
</g>
<!-- Node6&#45;&gt;Node5 -->
<g id="edge8_Node000006_Node000005" class="edge">
<title>Node6&#45;&gt;Node5</title>
<g id="a_edge8_Node000006_Node000005"><a xlink:title=" ">
<path fill="none" stroke="#63b8ff" d="M72.04,-24.98C60.2,-30.17 47.4,-35.78 37.4,-40.16"/>
<polygon fill="#63b8ff" stroke="#63b8ff" points="73.4,-28.21 81.16,-20.99 70.59,-21.8 73.4,-28.21"/>
</a>
</g>
</g>
<!-- Node7&#45;&gt;Node3 -->
<g id="edge10_Node000007_Node000003" class="edge">
<title>Node7&#45;&gt;Node3</title>
<g id="a_edge10_Node000007_Node000003"><a xlink:title=" ">
<path fill="none" stroke="#63b8ff" d="M265.73,-99.93C254.64,-104.46 242.54,-109.39 232.2,-113.61"/>
<polygon fill="#63b8ff" stroke="#63b8ff" points="267.04,-103.18 274.97,-96.16 264.39,-96.7 267.04,-103.18"/>
</a>
</g>
</g>
<!-- Node8 -->
<g id="Node000008" class="node">
<title>Node8</title>
<g id="a_Node000008"><a xlink:href="tests_8cpp.html#a2dcdccc8a8ededb7804d00ba921edb73" target="_top" xlink:title="(Устаревшее) Выполняет тесты из внутреннего массива типа struct test_t">
<polygon fill="white" stroke="#666666" points="232.5,-96 179,-96 179,-76 232.5,-76 232.5,-96"/>
<text text-anchor="middle" x="205.75" y="-82.5" font-family="Helvetica,sans-Serif" font-size="10.00">runTests</text>
</a>
</g>
</g>
<!-- Node7&#45;&gt;Node8 -->
<g id="edge11_Node000007_Node000008" class="edge">
<title>Node7&#45;&gt;Node8</title>
<g id="a_edge11_Node000007_Node000008"><a xlink:title=" ">
<path fill="none" stroke="#63b8ff" d="M264.88,-86C254.27,-86 242.79,-86 232.87,-86"/>
<polygon fill="#63b8ff" stroke="#63b8ff" points="264.86,-89.5 274.86,-86 264.86,-82.5 264.86,-89.5"/>
</a>
</g>
</g>
</g>
</svg>
