<?xml version="1.0" encoding="UTF-8" standalone="no"?>
<!DOCTYPE svg PUBLIC "-//W3C//DTD SVG 1.1//EN"
 "http://www.w3.org/Graphics/SVG/1.1/DTD/svg11.dtd">
<!-- Generated by graphviz version 12.1.0 (20240811.2233)
 -->
<!-- Title: sources/colPrintf.cpp Pages: 1 -->
<svg width="313pt" height="140pt"
 viewBox="0.00 0.00 312.75 140.00" xmlns="http://www.w3.org/2000/svg" xmlns:xlink="http://www.w3.org/1999/xlink">
<g id="graph0" class="graph" transform="scale(1 1) rotate(0) translate(4 136)">
<title>sources/colPrintf.cpp</title>
<!-- Node1 -->
<g id="Node000001" class="node">
<title>Node1</title>
<g id="a_Node000001"><a xlink:title=" ">
<polygon fill="#999999" stroke="#666666" points="196.75,-132 88.5,-132 88.5,-112 196.75,-112 196.75,-132"/>
<text text-anchor="middle" x="142.62" y="-118.5" font-family="Helvetica,sans-Serif" font-size="10.00">sources/colPrintf.cpp</text>
</a>
</g>
</g>
<!-- Node2 -->
<g id="Node000002" class="node">
<title>Node2</title>
<g id="a_Node000002"><a xlink:title=" ">
<polygon fill="#e0e0e0" stroke="#999999" points="45.25,-76 0,-76 0,-56 45.25,-56 45.25,-76"/>
<text text-anchor="middle" x="22.62" y="-62.5" font-family="Helvetica,sans-Serif" font-size="10.00">stdio.h</text>
</a>
</g>
</g>
<!-- Node1&#45;&gt;Node2 -->
<g id="edge1_Node000001_Node000002" class="edge">
<title>Node1&#45;&gt;Node2</title>
<g id="a_edge1_Node000001_Node000002"><a xlink:title=" ">
<path fill="none" stroke="#63b8ff" d="M121.72,-111.59C103,-103.17 75.27,-90.69 53.9,-81.07"/>
<polygon fill="#63b8ff" stroke="#63b8ff" points="55.63,-78.01 45.07,-77.1 52.75,-84.4 55.63,-78.01"/>
</a>
</g>
</g>
<!-- Node3 -->
<g id="Node000003" class="node">
<title>Node3</title>
<g id="a_Node000003"><a xlink:title=" ">
<polygon fill="#e0e0e0" stroke="#999999" points="114.25,-76 63,-76 63,-56 114.25,-56 114.25,-76"/>
<text text-anchor="middle" x="88.62" y="-62.5" font-family="Helvetica,sans-Serif" font-size="10.00">stdarg.h</text>
</a>
</g>
</g>
<!-- Node1&#45;&gt;Node3 -->
<g id="edge2_Node000001_Node000003" class="edge">
<title>Node1&#45;&gt;Node3</title>
<g id="a_edge2_Node000001_Node000003"><a xlink:title=" ">
<path fill="none" stroke="#63b8ff" d="M133.22,-111.59C125.71,-104.08 114.98,-93.35 105.93,-84.3"/>
<polygon fill="#63b8ff" stroke="#63b8ff" points="108.54,-81.96 98.99,-77.37 103.59,-86.91 108.54,-81.96"/>
</a>
</g>
</g>
<!-- Node4 -->
<g id="Node000004" class="node">
<title>Node4</title>
<g id="a_Node000004"><a xlink:href="colors_8h.html" target="_top" xlink:title=" ">
<polygon fill="white" stroke="#666666" points="160.88,-20 110.38,-20 110.38,0 160.88,0 160.88,-20"/>
<text text-anchor="middle" x="135.62" y="-6.5" font-family="Helvetica,sans-Serif" font-size="10.00">colors.h</text>
</a>
</g>
</g>
<!-- Node1&#45;&gt;Node4 -->
<g id="edge3_Node000001_Node000004" class="edge">
<title>Node1&#45;&gt;Node4</title>
<g id="a_edge3_Node000001_Node000004"><a xlink:title=" ">
<path fill="none" stroke="#63b8ff" d="M142.03,-111.62C140.91,-94.01 138.46,-55.59 136.94,-31.65"/>
<polygon fill="#63b8ff" stroke="#63b8ff" points="140.44,-31.62 136.32,-21.87 133.46,-32.07 140.44,-31.62"/>
</a>
</g>
</g>
<!-- Node5 -->
<g id="Node000005" class="node">
<title>Node5</title>
<g id="a_Node000005"><a xlink:href="col_printf_8h.html" target="_top" xlink:title=" ">
<polygon fill="white" stroke="#666666" points="304.75,-20 244.5,-20 244.5,0 304.75,0 304.75,-20"/>
<text text-anchor="middle" x="274.62" y="-6.5" font-family="Helvetica,sans-Serif" font-size="10.00">colPrintf.h</text>
</a>
</g>
</g>
<!-- Node1&#45;&gt;Node5 -->
<g id="edge4_Node000001_Node000005" class="edge">
<title>Node1&#45;&gt;Node5</title>
<g id="a_edge4_Node000001_Node000005"><a xlink:title=" ">
<path fill="none" stroke="#63b8ff" d="M179.44,-111.52C200.38,-104.57 225.89,-93.28 243.62,-76 256.23,-63.72 264.35,-45.29 269.1,-31.19"/>
<polygon fill="#63b8ff" stroke="#63b8ff" points="272.45,-32.21 272,-21.62 265.75,-30.18 272.45,-32.21"/>
</a>
</g>
</g>
<!-- Node6 -->
<g id="Node000006" class="node">
<title>Node6</title>
<g id="a_Node000006"><a xlink:href="myassert_8h.html" target="_top" xlink:title=" ">
<polygon fill="white" stroke="#666666" points="235,-76 170.25,-76 170.25,-56 235,-56 235,-76"/>
<text text-anchor="middle" x="202.62" y="-62.5" font-family="Helvetica,sans-Serif" font-size="10.00">myassert.h</text>
</a>
</g>
</g>
<!-- Node1&#45;&gt;Node6 -->
<g id="edge5_Node000001_Node000006" class="edge">
<title>Node1&#45;&gt;Node6</title>
<g id="a_edge5_Node000001_Node000006"><a xlink:title=" ">
<path fill="none" stroke="#63b8ff" d="M153.08,-111.59C161.59,-103.93 173.84,-92.91 184.02,-83.75"/>
<polygon fill="#63b8ff" stroke="#63b8ff" points="186.08,-86.6 191.17,-77.31 181.39,-81.4 186.08,-86.6"/>
</a>
</g>
</g>
<!-- Node6&#45;&gt;Node4 -->
<g id="edge7_Node000006_Node000004" class="edge">
<title>Node6&#45;&gt;Node4</title>
<g id="a_edge7_Node000006_Node000004"><a xlink:title=" ">
<path fill="none" stroke="#63b8ff" d="M190.95,-55.59C181.35,-47.85 167.5,-36.69 156.06,-27.47"/>
<polygon fill="#63b8ff" stroke="#63b8ff" points="158.32,-24.8 148.34,-21.25 153.93,-30.25 158.32,-24.8"/>
</a>
</g>
</g>
<!-- Node6&#45;&gt;Node5 -->
<g id="edge8_Node000006_Node000005" class="edge">
<title>Node6&#45;&gt;Node5</title>
<g id="a_edge8_Node000006_Node000005"><a xlink:title=" ">
<path fill="none" stroke="#63b8ff" d="M215.17,-55.59C225.59,-47.77 240.67,-36.46 253.04,-27.19"/>
<polygon fill="#63b8ff" stroke="#63b8ff" points="255.12,-30.01 261.02,-21.21 250.92,-24.41 255.12,-30.01"/>
</a>
</g>
</g>
<!-- Node7 -->
<g id="Node000007" class="node">
<title>Node7</title>
<g id="a_Node000007"><a xlink:title=" ">
<polygon fill="#e0e0e0" stroke="#999999" points="226.38,-20 178.88,-20 178.88,0 226.38,0 226.38,-20"/>
<text text-anchor="middle" x="202.62" y="-6.5" font-family="Helvetica,sans-Serif" font-size="10.00">stdlib.h</text>
</a>
</g>
</g>
<!-- Node6&#45;&gt;Node7 -->
<g id="edge6_Node000006_Node000007" class="edge">
<title>Node6&#45;&gt;Node7</title>
<g id="a_edge6_Node000006_Node000007"><a xlink:title=" ">
<path fill="none" stroke="#63b8ff" d="M202.62,-55.59C202.62,-49.01 202.62,-39.96 202.62,-31.73"/>
<polygon fill="#63b8ff" stroke="#63b8ff" points="206.13,-31.81 202.63,-21.81 199.13,-31.81 206.13,-31.81"/>
</a>
</g>
</g>
</g>
</svg>
