<?xml version="1.0" encoding="UTF-8" standalone="no"?>
<!DOCTYPE svg PUBLIC "-//W3C//DTD SVG 1.1//EN"
 "http://www.w3.org/Graphics/SVG/1.1/DTD/svg11.dtd">
<!-- Generated by graphviz version 12.1.0 (20240811.2233)
 -->
<!-- Title: D:/Cprojects/square_solver_git/squareSolver/sources/colPrintf.cpp Pages: 1 -->
<svg width="313pt" height="164pt"
 viewBox="0.00 0.00 312.75 164.00" xmlns="http://www.w3.org/2000/svg" xmlns:xlink="http://www.w3.org/1999/xlink">
<g id="graph0" class="graph" transform="scale(1 1) rotate(0) translate(4 160)">
<title>D:/Cprojects/square_solver_git/squareSolver/sources/colPrintf.cpp</title>
<!-- Node1 -->
<g id="Node000001" class="node">
<title>Node1</title>
<g id="a_Node000001"><a xlink:title=" ">
<polygon fill="#999999" stroke="#666666" points="204.25,-156 81,-156 81,-112 204.25,-112 204.25,-156"/>
<text text-anchor="start" x="89" y="-142.5" font-family="Helvetica,sans-Serif" font-size="10.00">D:/Cprojects/square</text>
<text text-anchor="start" x="89" y="-130.5" font-family="Helvetica,sans-Serif" font-size="10.00">_solver_git/squareSolver</text>
<text text-anchor="middle" x="142.62" y="-118.5" font-family="Helvetica,sans-Serif" font-size="10.00">/sources/colPrintf.cpp</text>
</a>
</g>
</g>
<!-- Node2 -->
<g id="Node000002" class="node">
<title>Node2</title>
<g id="a_Node000002"><a xlink:title=" ">
<polygon fill="#e0e0e0" stroke="#999999" points="45.25,-76 0,-76 0,-56 45.25,-56 45.25,-76"/>
<text text-anchor="middle" x="22.62" y="-62.5" font-family="Helvetica,sans-Serif" font-size="10.00">stdio.h</text>
</a>
</g>
</g>
<!-- Node1&#45;&gt;Node2 -->
<g id="edge1_Node000001_Node000002" class="edge">
<title>Node1&#45;&gt;Node2</title>
<g id="a_edge1_Node000001_Node000002"><a xlink:title=" ">
<path fill="none" stroke="#63b8ff" d="M103.66,-111.57C85.92,-101.81 65.38,-90.51 49.41,-81.73"/>
<polygon fill="#63b8ff" stroke="#63b8ff" points="51.43,-78.85 40.98,-77.09 48.05,-84.98 51.43,-78.85"/>
</a>
</g>
</g>
<!-- Node3 -->
<g id="Node000003" class="node">
<title>Node3</title>
<g id="a_Node000003"><a xlink:title=" ">
<polygon fill="#e0e0e0" stroke="#999999" points="114.25,-76 63,-76 63,-56 114.25,-56 114.25,-76"/>
<text text-anchor="middle" x="88.62" y="-62.5" font-family="Helvetica,sans-Serif" font-size="10.00">stdarg.h</text>
</a>
</g>
</g>
<!-- Node1&#45;&gt;Node3 -->
<g id="edge2_Node000001_Node000003" class="edge">
<title>Node1&#45;&gt;Node3</title>
<g id="a_edge2_Node000001_Node000003"><a xlink:title=" ">
<path fill="none" stroke="#63b8ff" d="M125.24,-111.75C118.24,-103.2 110.24,-93.42 103.51,-85.2"/>
<polygon fill="#63b8ff" stroke="#63b8ff" points="106.33,-83.11 97.29,-77.59 100.91,-87.55 106.33,-83.11"/>
</a>
</g>
</g>
<!-- Node4 -->
<g id="Node000004" class="node">
<title>Node4</title>
<g id="a_Node000004"><a xlink:href="colors_8h.html" target="_top" xlink:title=" ">
<polygon fill="white" stroke="#666666" points="160.88,-20 110.38,-20 110.38,0 160.88,0 160.88,-20"/>
<text text-anchor="middle" x="135.62" y="-6.5" font-family="Helvetica,sans-Serif" font-size="10.00">colors.h</text>
</a>
</g>
</g>
<!-- Node1&#45;&gt;Node4 -->
<g id="edge3_Node000001_Node000004" class="edge">
<title>Node1&#45;&gt;Node4</title>
<g id="a_edge3_Node000001_Node000004"><a xlink:title=" ">
<path fill="none" stroke="#63b8ff" d="M141.41,-111.75C140.12,-89.26 138.09,-54.02 136.81,-31.73"/>
<polygon fill="#63b8ff" stroke="#63b8ff" points="140.31,-31.6 136.25,-21.81 133.32,-32 140.31,-31.6"/>
</a>
</g>
</g>
<!-- Node5 -->
<g id="Node000005" class="node">
<title>Node5</title>
<g id="a_Node000005"><a xlink:href="col_printf_8h.html" target="_top" xlink:title=" ">
<polygon fill="white" stroke="#666666" points="304.75,-20 244.5,-20 244.5,0 304.75,0 304.75,-20"/>
<text text-anchor="middle" x="274.62" y="-6.5" font-family="Helvetica,sans-Serif" font-size="10.00">colPrintf.h</text>
</a>
</g>
</g>
<!-- Node1&#45;&gt;Node5 -->
<g id="edge4_Node000001_Node000005" class="edge">
<title>Node1&#45;&gt;Node5</title>
<g id="a_edge4_Node000001_Node000005"><a xlink:title=" ">
<path fill="none" stroke="#63b8ff" d="M194.39,-111.56C211.65,-102.52 229.95,-90.64 243.62,-76 255.5,-63.28 263.63,-45.17 268.57,-31.29"/>
<polygon fill="#63b8ff" stroke="#63b8ff" points="271.87,-32.47 271.64,-21.87 265.22,-30.3 271.87,-32.47"/>
</a>
</g>
</g>
<!-- Node6 -->
<g id="Node000006" class="node">
<title>Node6</title>
<g id="a_Node000006"><a xlink:href="myassert_8h.html" target="_top" xlink:title=" ">
<polygon fill="white" stroke="#666666" points="235,-76 170.25,-76 170.25,-56 235,-56 235,-76"/>
<text text-anchor="middle" x="202.62" y="-62.5" font-family="Helvetica,sans-Serif" font-size="10.00">myassert.h</text>
</a>
</g>
</g>
<!-- Node1&#45;&gt;Node6 -->
<g id="edge5_Node000001_Node000006" class="edge">
<title>Node1&#45;&gt;Node6</title>
<g id="a_edge5_Node000001_Node000006"><a xlink:title=" ">
<path fill="none" stroke="#63b8ff" d="M161.94,-111.75C169.8,-103.1 178.8,-93.21 186.32,-84.93"/>
<polygon fill="#63b8ff" stroke="#63b8ff" points="188.91,-87.29 193.04,-77.54 183.73,-82.58 188.91,-87.29"/>
</a>
</g>
</g>
<!-- Node6&#45;&gt;Node4 -->
<g id="edge7_Node000006_Node000004" class="edge">
<title>Node6&#45;&gt;Node4</title>
<g id="a_edge7_Node000006_Node000004"><a xlink:title=" ">
<path fill="none" stroke="#63b8ff" d="M190.95,-55.59C181.35,-47.85 167.5,-36.69 156.06,-27.47"/>
<polygon fill="#63b8ff" stroke="#63b8ff" points="158.32,-24.8 148.34,-21.25 153.93,-30.25 158.32,-24.8"/>
</a>
</g>
</g>
<!-- Node6&#45;&gt;Node5 -->
<g id="edge8_Node000006_Node000005" class="edge">
<title>Node6&#45;&gt;Node5</title>
<g id="a_edge8_Node000006_Node000005"><a xlink:title=" ">
<path fill="none" stroke="#63b8ff" d="M215.17,-55.59C225.59,-47.77 240.67,-36.46 253.04,-27.19"/>
<polygon fill="#63b8ff" stroke="#63b8ff" points="255.12,-30.01 261.02,-21.21 250.92,-24.41 255.12,-30.01"/>
</a>
</g>
</g>
<!-- Node7 -->
<g id="Node000007" class="node">
<title>Node7</title>
<g id="a_Node000007"><a xlink:title=" ">
<polygon fill="#e0e0e0" stroke="#999999" points="226.38,-20 178.88,-20 178.88,0 226.38,0 226.38,-20"/>
<text text-anchor="middle" x="202.62" y="-6.5" font-family="Helvetica,sans-Serif" font-size="10.00">stdlib.h</text>
</a>
</g>
</g>
<!-- Node6&#45;&gt;Node7 -->
<g id="edge6_Node000006_Node000007" class="edge">
<title>Node6&#45;&gt;Node7</title>
<g id="a_edge6_Node000006_Node000007"><a xlink:title=" ">
<path fill="none" stroke="#63b8ff" d="M202.62,-55.59C202.62,-49.01 202.62,-39.96 202.62,-31.73"/>
<polygon fill="#63b8ff" stroke="#63b8ff" points="206.13,-31.81 202.63,-21.81 199.13,-31.81 206.13,-31.81"/>
</a>
</g>
</g>
</g>
</svg>
