<?xml version="1.0" encoding="UTF-8" standalone="no"?>
<!DOCTYPE svg PUBLIC "-//W3C//DTD SVG 1.1//EN"
 "http://www.w3.org/Graphics/SVG/1.1/DTD/svg11.dtd">
<!-- Generated by graphviz version 12.1.0 (20240811.2233)
 -->
<!-- Title: D:/Cprojects/square_solver_git/squareSolver/headers/colors.h Pages: 1 -->
<svg width="854pt" height="212pt"
 viewBox="0.00 0.00 854.25 212.00" xmlns="http://www.w3.org/2000/svg" xmlns:xlink="http://www.w3.org/1999/xlink">
<g id="graph0" class="graph" transform="scale(1 1) rotate(0) translate(4 208)">
<title>D:/Cprojects/square_solver_git/squareSolver/headers/colors.h</title>
<!-- Node1 -->
<g id="Node000001" class="node">
<title>Node1</title>
<g id="a_Node000001"><a xlink:title=" ">
<polygon fill="#999999" stroke="#666666" points="464.25,-204 341,-204 341,-160 464.25,-160 464.25,-204"/>
<text text-anchor="start" x="349" y="-190.5" font-family="Helvetica,sans-Serif" font-size="10.00">D:/Cprojects/square</text>
<text text-anchor="start" x="349" y="-178.5" font-family="Helvetica,sans-Serif" font-size="10.00">_solver_git/squareSolver</text>
<text text-anchor="middle" x="402.62" y="-166.5" font-family="Helvetica,sans-Serif" font-size="10.00">/headers/colors.h</text>
</a>
</g>
</g>
<!-- Node2 -->
<g id="Node000002" class="node">
<title>Node2</title>
<g id="a_Node000002"><a xlink:href="myassert_8h.html" target="_top" xlink:title=" ">
<polygon fill="white" stroke="#666666" points="464.25,-124 341,-124 341,-80 464.25,-80 464.25,-124"/>
<text text-anchor="start" x="349" y="-110.5" font-family="Helvetica,sans-Serif" font-size="10.00">D:/Cprojects/square</text>
<text text-anchor="start" x="349" y="-98.5" font-family="Helvetica,sans-Serif" font-size="10.00">_solver_git/squareSolver</text>
<text text-anchor="middle" x="402.62" y="-86.5" font-family="Helvetica,sans-Serif" font-size="10.00">/headers/myassert.h</text>
</a>
</g>
</g>
<!-- Node1&#45;&gt;Node2 -->
<g id="edge1_Node000001_Node000002" class="edge">
<title>Node1&#45;&gt;Node2</title>
<g id="a_edge1_Node000001_Node000002"><a xlink:title=" ">
<path fill="none" stroke="#63b8ff" d="M402.62,-148.25C402.62,-140.15 402.62,-131.68 402.62,-124.29"/>
<polygon fill="#63b8ff" stroke="#63b8ff" points="399.13,-148.17 402.63,-158.17 406.13,-148.17 399.13,-148.17"/>
</a>
</g>
</g>
<!-- Node4 -->
<g id="Node000004" class="node">
<title>Node4</title>
<g id="a_Node000004"><a xlink:href="col_printf_8cpp.html" target="_top" xlink:title=" ">
<polygon fill="white" stroke="#666666" points="123.25,-44 0,-44 0,0 123.25,0 123.25,-44"/>
<text text-anchor="start" x="8" y="-30.5" font-family="Helvetica,sans-Serif" font-size="10.00">D:/Cprojects/square</text>
<text text-anchor="start" x="8" y="-18.5" font-family="Helvetica,sans-Serif" font-size="10.00">_solver_git/squareSolver</text>
<text text-anchor="middle" x="61.62" y="-6.5" font-family="Helvetica,sans-Serif" font-size="10.00">/sources/colPrintf.cpp</text>
</a>
</g>
</g>
<!-- Node1&#45;&gt;Node4 -->
<g id="edge8_Node000001_Node000004" class="edge">
<title>Node1&#45;&gt;Node4</title>
<g id="a_edge8_Node000001_Node000004"><a xlink:title=" ">
<path fill="none" stroke="#63b8ff" d="M343.49,-155.02C321.78,-145.39 297.04,-134.3 274.62,-124 216.06,-97.08 148.93,-65.05 105.95,-44.39"/>
<polygon fill="#63b8ff" stroke="#63b8ff" points="341.93,-158.16 352.49,-159.01 344.77,-151.76 341.93,-158.16"/>
</a>
</g>
</g>
<!-- Node5 -->
<g id="Node000005" class="node">
<title>Node5</title>
<g id="a_Node000005"><a xlink:href="main_8cpp.html" target="_top" xlink:title=" ">
<polygon fill="white" stroke="#666666" points="264.25,-44 141,-44 141,0 264.25,0 264.25,-44"/>
<text text-anchor="start" x="149" y="-30.5" font-family="Helvetica,sans-Serif" font-size="10.00">D:/Cprojects/square</text>
<text text-anchor="start" x="149" y="-18.5" font-family="Helvetica,sans-Serif" font-size="10.00">_solver_git/squareSolver</text>
<text text-anchor="middle" x="202.62" y="-6.5" font-family="Helvetica,sans-Serif" font-size="10.00">/sources/main.cpp</text>
</a>
</g>
</g>
<!-- Node1&#45;&gt;Node5 -->
<g id="edge9_Node000001_Node000005" class="edge">
<title>Node1&#45;&gt;Node5</title>
<g id="a_edge9_Node000001_Node000005"><a xlink:title=" ">
<path fill="none" stroke="#63b8ff" d="M366.66,-152.59C327.35,-121.53 265.25,-72.48 229.81,-44.48"/>
<polygon fill="#63b8ff" stroke="#63b8ff" points="364.45,-155.3 374.46,-158.75 368.79,-149.81 364.45,-155.3"/>
</a>
</g>
</g>
<!-- Node6 -->
<g id="Node000006" class="node">
<title>Node6</title>
<g id="a_Node000006"><a xlink:href="printscan_8cpp.html" target="_top" xlink:title=" ">
<polygon fill="white" stroke="#666666" points="705.25,-44 582,-44 582,0 705.25,0 705.25,-44"/>
<text text-anchor="start" x="590" y="-30.5" font-family="Helvetica,sans-Serif" font-size="10.00">D:/Cprojects/square</text>
<text text-anchor="start" x="590" y="-18.5" font-family="Helvetica,sans-Serif" font-size="10.00">_solver_git/squareSolver</text>
<text text-anchor="middle" x="643.62" y="-6.5" font-family="Helvetica,sans-Serif" font-size="10.00">/sources/printscan.cpp</text>
</a>
</g>
</g>
<!-- Node1&#45;&gt;Node6 -->
<g id="edge10_Node000001_Node000006" class="edge">
<title>Node1&#45;&gt;Node6</title>
<g id="a_edge10_Node000001_Node000006"><a xlink:title=" ">
<path fill="none" stroke="#63b8ff" d="M444.73,-153.39C492.05,-122.37 567.88,-72.66 610.94,-44.43"/>
<polygon fill="#63b8ff" stroke="#63b8ff" points="443.09,-150.29 436.64,-158.7 446.93,-156.14 443.09,-150.29"/>
</a>
</g>
</g>
<!-- Node8 -->
<g id="Node000008" class="node">
<title>Node8</title>
<g id="a_Node000008"><a xlink:href="tests_8cpp.html" target="_top" xlink:title=" ">
<polygon fill="white" stroke="#666666" points="846.25,-44 723,-44 723,0 846.25,0 846.25,-44"/>
<text text-anchor="start" x="731" y="-30.5" font-family="Helvetica,sans-Serif" font-size="10.00">D:/Cprojects/square</text>
<text text-anchor="start" x="731" y="-18.5" font-family="Helvetica,sans-Serif" font-size="10.00">_solver_git/squareSolver</text>
<text text-anchor="middle" x="784.62" y="-6.5" font-family="Helvetica,sans-Serif" font-size="10.00">/sources/tests.cpp</text>
</a>
</g>
</g>
<!-- Node1&#45;&gt;Node8 -->
<g id="edge11_Node000001_Node000008" class="edge">
<title>Node1&#45;&gt;Node8</title>
<g id="a_edge11_Node000001_Node000008"><a xlink:title=" ">
<path fill="none" stroke="#63b8ff" d="M464.73,-155.31C539.34,-124.45 663.13,-73.25 732.82,-44.43"/>
<polygon fill="#63b8ff" stroke="#63b8ff" points="463.84,-151.89 455.94,-158.95 466.52,-158.36 463.84,-151.89"/>
</a>
</g>
</g>
<!-- Node3 -->
<g id="Node000003" class="node">
<title>Node3</title>
<g id="a_Node000003"><a xlink:href="argvprocessing_8cpp.html" target="_top" xlink:title=" ">
<polygon fill="white" stroke="#666666" points="423.25,-44 282,-44 282,0 423.25,0 423.25,-44"/>
<text text-anchor="start" x="290" y="-30.5" font-family="Helvetica,sans-Serif" font-size="10.00">D:/Cprojects/square</text>
<text text-anchor="start" x="290" y="-18.5" font-family="Helvetica,sans-Serif" font-size="10.00">_solver_git/squareSolver</text>
<text text-anchor="middle" x="352.62" y="-6.5" font-family="Helvetica,sans-Serif" font-size="10.00">/sources/argvprocessing.cpp</text>
</a>
</g>
</g>
<!-- Node2&#45;&gt;Node3 -->
<g id="edge2_Node000002_Node000003" class="edge">
<title>Node2&#45;&gt;Node3</title>
<g id="a_edge2_Node000002_Node000003"><a xlink:title=" ">
<path fill="none" stroke="#63b8ff" d="M382.89,-70.22C377.33,-61.54 371.4,-52.28 366.27,-44.29"/>
<polygon fill="#63b8ff" stroke="#63b8ff" points="379.8,-71.88 388.15,-78.41 385.7,-68.1 379.8,-71.88"/>
</a>
</g>
</g>
<!-- Node2&#45;&gt;Node4 -->
<g id="edge3_Node000002_Node000004" class="edge">
<title>Node2&#45;&gt;Node4</title>
<g id="a_edge3_Node000002_Node000004"><a xlink:title=" ">
<path fill="none" stroke="#63b8ff" d="M329.67,-87.38C274.9,-76.74 198.21,-60.96 131.62,-44 128.92,-43.31 126.16,-42.59 123.38,-41.83"/>
<polygon fill="#63b8ff" stroke="#63b8ff" points="328.7,-90.76 339.18,-89.22 330.02,-83.89 328.7,-90.76"/>
</a>
</g>
</g>
<!-- Node2&#45;&gt;Node5 -->
<g id="edge4_Node000002_Node000005" class="edge">
<title>Node2&#45;&gt;Node5</title>
<g id="a_edge4_Node000002_Node000005"><a xlink:title=" ">
<path fill="none" stroke="#63b8ff" d="M337.26,-75.51C311.44,-65.44 282.1,-54 257.42,-44.37"/>
<polygon fill="#63b8ff" stroke="#63b8ff" points="335.71,-78.66 346.3,-79.03 338.25,-72.14 335.71,-78.66"/>
</a>
</g>
</g>
<!-- Node2&#45;&gt;Node6 -->
<g id="edge5_Node000002_Node000006" class="edge">
<title>Node2&#45;&gt;Node6</title>
<g id="a_edge5_Node000002_Node000006"><a xlink:title=" ">
<path fill="none" stroke="#63b8ff" d="M475.48,-77.42C509.4,-66.44 549.34,-53.52 581.77,-43.02"/>
<polygon fill="#63b8ff" stroke="#63b8ff" points="474.56,-74.04 466.13,-80.45 476.72,-80.7 474.56,-74.04"/>
</a>
</g>
</g>
<!-- Node7 -->
<g id="Node000007" class="node">
<title>Node7</title>
<g id="a_Node000007"><a xlink:href="sqmath_8cpp.html" target="_top" xlink:title=" ">
<polygon fill="white" stroke="#666666" points="564.25,-44 441,-44 441,0 564.25,0 564.25,-44"/>
<text text-anchor="start" x="449" y="-30.5" font-family="Helvetica,sans-Serif" font-size="10.00">D:/Cprojects/square</text>
<text text-anchor="start" x="449" y="-18.5" font-family="Helvetica,sans-Serif" font-size="10.00">_solver_git/squareSolver</text>
<text text-anchor="middle" x="502.62" y="-6.5" font-family="Helvetica,sans-Serif" font-size="10.00">/sources/sqmath.cpp</text>
</a>
</g>
</g>
<!-- Node2&#45;&gt;Node7 -->
<g id="edge6_Node000002_Node000007" class="edge">
<title>Node2&#45;&gt;Node7</title>
<g id="a_edge6_Node000002_Node000007"><a xlink:title=" ">
<path fill="none" stroke="#63b8ff" d="M438.88,-72.72C450.91,-63.34 464.09,-53.06 475.33,-44.29"/>
<polygon fill="#63b8ff" stroke="#63b8ff" points="436.88,-69.85 431.14,-78.76 441.18,-75.36 436.88,-69.85"/>
</a>
</g>
</g>
<!-- Node2&#45;&gt;Node8 -->
<g id="edge7_Node000002_Node000008" class="edge">
<title>Node2&#45;&gt;Node8</title>
<g id="a_edge7_Node000002_Node000008"><a xlink:title=" ">
<path fill="none" stroke="#63b8ff" d="M475.72,-90C539.25,-79.87 633.57,-63.5 714.62,-44 717.22,-43.38 719.85,-42.71 722.51,-42.02"/>
<polygon fill="#63b8ff" stroke="#63b8ff" points="475.44,-86.5 466.11,-91.51 476.53,-93.41 475.44,-86.5"/>
</a>
</g>
</g>
</g>
</svg>
