<?xml version="1.0" encoding="UTF-8" standalone="no"?>
<!DOCTYPE svg PUBLIC "-//W3C//DTD SVG 1.1//EN"
 "http://www.w3.org/Graphics/SVG/1.1/DTD/svg11.dtd">
<!-- Generated by graphviz version 12.1.0 (20240811.2233)
 -->
<!-- Title: headers/colors.h Pages: 1 -->
<svg width="748pt" height="140pt"
 viewBox="0.00 0.00 748.12 140.00" xmlns="http://www.w3.org/2000/svg" xmlns:xlink="http://www.w3.org/1999/xlink">
<g id="graph0" class="graph" transform="scale(1 1) rotate(0) translate(4 136)">
<title>headers/colors.h</title>
<!-- Node1 -->
<g id="Node000001" class="node">
<title>Node1</title>
<g id="a_Node000001"><a xlink:title=" ">
<polygon fill="#999999" stroke="#666666" points="395.12,-132 307.12,-132 307.12,-112 395.12,-112 395.12,-132"/>
<text text-anchor="middle" x="351.12" y="-118.5" font-family="Helvetica,sans-Serif" font-size="10.00">headers/colors.h</text>
</a>
</g>
</g>
<!-- Node2 -->
<g id="Node000002" class="node">
<title>Node2</title>
<g id="a_Node000002"><a xlink:href="myassert_8h.html" target="_top" xlink:title=" ">
<polygon fill="white" stroke="#666666" points="402.25,-76 300,-76 300,-56 402.25,-56 402.25,-76"/>
<text text-anchor="middle" x="351.12" y="-62.5" font-family="Helvetica,sans-Serif" font-size="10.00">headers/myassert.h</text>
</a>
</g>
</g>
<!-- Node1&#45;&gt;Node2 -->
<g id="edge1_Node000001_Node000002" class="edge">
<title>Node1&#45;&gt;Node2</title>
<g id="a_edge1_Node000001_Node000002"><a xlink:title=" ">
<path fill="none" stroke="#63b8ff" d="M351.12,-100.13C351.12,-91.9 351.12,-82.85 351.12,-76.3"/>
<polygon fill="#63b8ff" stroke="#63b8ff" points="347.63,-100.08 351.13,-110.08 354.63,-100.08 347.63,-100.08"/>
</a>
</g>
</g>
<!-- Node4 -->
<g id="Node000004" class="node">
<title>Node4</title>
<g id="a_Node000004"><a xlink:href="col_printf_8cpp.html" target="_top" xlink:title=" ">
<polygon fill="white" stroke="#666666" points="108.25,-20 0,-20 0,0 108.25,0 108.25,-20"/>
<text text-anchor="middle" x="54.12" y="-6.5" font-family="Helvetica,sans-Serif" font-size="10.00">sources/colPrintf.cpp</text>
</a>
</g>
</g>
<!-- Node1&#45;&gt;Node4 -->
<g id="edge8_Node000001_Node000004" class="edge">
<title>Node1&#45;&gt;Node4</title>
<g id="a_edge8_Node000001_Node000004"><a xlink:title=" ">
<path fill="none" stroke="#63b8ff" d="M314.91,-107.59C254.03,-85.04 132.64,-40.08 79.75,-20.49"/>
<polygon fill="#63b8ff" stroke="#63b8ff" points="313.53,-110.81 324.13,-111 315.96,-104.25 313.53,-110.81"/>
</a>
</g>
</g>
<!-- Node5 -->
<g id="Node000005" class="node">
<title>Node5</title>
<g id="a_Node000005"><a xlink:href="main_8cpp.html" target="_top" xlink:title=" ">
<polygon fill="white" stroke="#666666" points="219.75,-20 126.5,-20 126.5,0 219.75,0 219.75,-20"/>
<text text-anchor="middle" x="173.12" y="-6.5" font-family="Helvetica,sans-Serif" font-size="10.00">sources/main.cpp</text>
</a>
</g>
</g>
<!-- Node1&#45;&gt;Node5 -->
<g id="edge9_Node000001_Node000005" class="edge">
<title>Node1&#45;&gt;Node5</title>
<g id="a_edge9_Node000001_Node000005"><a xlink:title=" ">
<path fill="none" stroke="#63b8ff" d="M326.3,-105.66C288.84,-82.51 218.97,-39.33 188.26,-20.35"/>
<polygon fill="#63b8ff" stroke="#63b8ff" points="324.31,-108.55 334.66,-110.83 327.99,-102.59 324.31,-108.55"/>
</a>
</g>
</g>
<!-- Node6 -->
<g id="Node000006" class="node">
<title>Node6</title>
<g id="a_Node000006"><a xlink:href="printscan_8cpp.html" target="_top" xlink:title=" ">
<polygon fill="white" stroke="#666666" points="628.12,-20 516.12,-20 516.12,0 628.12,0 628.12,-20"/>
<text text-anchor="middle" x="572.12" y="-6.5" font-family="Helvetica,sans-Serif" font-size="10.00">sources/printscan.cpp</text>
</a>
</g>
</g>
<!-- Node1&#45;&gt;Node6 -->
<g id="edge10_Node000001_Node000006" class="edge">
<title>Node1&#45;&gt;Node6</title>
<g id="a_edge10_Node000001_Node000006"><a xlink:title=" ">
<path fill="none" stroke="#63b8ff" d="M380.18,-106.54C426.23,-83.62 514.72,-39.57 553.33,-20.35"/>
<polygon fill="#63b8ff" stroke="#63b8ff" points="378.72,-103.36 371.32,-110.95 381.83,-109.62 378.72,-103.36"/>
</a>
</g>
</g>
<!-- Node8 -->
<g id="Node000008" class="node">
<title>Node8</title>
<g id="a_Node000008"><a xlink:href="tests_8cpp.html" target="_top" xlink:title=" ">
<polygon fill="white" stroke="#666666" points="740.12,-20 646.12,-20 646.12,0 740.12,0 740.12,-20"/>
<text text-anchor="middle" x="693.12" y="-6.5" font-family="Helvetica,sans-Serif" font-size="10.00">sources/tests.cpp</text>
</a>
</g>
</g>
<!-- Node1&#45;&gt;Node8 -->
<g id="edge11_Node000001_Node000008" class="edge">
<title>Node1&#45;&gt;Node8</title>
<g id="a_edge11_Node000001_Node000008"><a xlink:title=" ">
<path fill="none" stroke="#63b8ff" d="M391.52,-108.01C461.19,-85.6 602.34,-40.2 663.62,-20.49"/>
<polygon fill="#63b8ff" stroke="#63b8ff" points="390.47,-104.67 382.02,-111.06 392.61,-111.33 390.47,-104.67"/>
</a>
</g>
</g>
<!-- Node3 -->
<g id="Node000003" class="node">
<title>Node3</title>
<g id="a_Node000003"><a xlink:href="argvprocessing_8cpp.html" target="_top" xlink:title=" ">
<polygon fill="white" stroke="#666666" points="376.25,-20 238,-20 238,0 376.25,0 376.25,-20"/>
<text text-anchor="middle" x="307.12" y="-6.5" font-family="Helvetica,sans-Serif" font-size="10.00">sources/argvprocessing.cpp</text>
</a>
</g>
</g>
<!-- Node2&#45;&gt;Node3 -->
<g id="edge2_Node000002_Node000003" class="edge">
<title>Node2&#45;&gt;Node3</title>
<g id="a_edge2_Node000002_Node000003"><a xlink:title=" ">
<path fill="none" stroke="#63b8ff" d="M336.23,-46.72C328.99,-37.84 320.61,-27.55 314.7,-20.3"/>
<polygon fill="#63b8ff" stroke="#63b8ff" points="333.47,-48.88 342.5,-54.42 338.9,-44.46 333.47,-48.88"/>
</a>
</g>
</g>
<!-- Node2&#45;&gt;Node4 -->
<g id="edge3_Node000002_Node000004" class="edge">
<title>Node2&#45;&gt;Node4</title>
<g id="a_edge3_Node000002_Node000004"><a xlink:title=" ">
<path fill="none" stroke="#63b8ff" d="M288.54,-53.62C234.38,-43.77 156.96,-29.7 106.14,-20.46"/>
<polygon fill="#63b8ff" stroke="#63b8ff" points="287.78,-57.04 298.24,-55.38 289.03,-50.15 287.78,-57.04"/>
</a>
</g>
</g>
<!-- Node2&#45;&gt;Node5 -->
<g id="edge4_Node000002_Node000005" class="edge">
<title>Node2&#45;&gt;Node5</title>
<g id="a_edge4_Node000002_Node000005"><a xlink:title=" ">
<path fill="none" stroke="#63b8ff" d="M309.28,-52.31C277.15,-42.56 233.5,-29.32 204.37,-20.48"/>
<polygon fill="#63b8ff" stroke="#63b8ff" points="308.09,-55.6 318.67,-55.15 310.12,-48.9 308.09,-55.6"/>
</a>
</g>
</g>
<!-- Node2&#45;&gt;Node6 -->
<g id="edge5_Node000002_Node000006" class="edge">
<title>Node2&#45;&gt;Node6</title>
<g id="a_edge5_Node000002_Node000006"><a xlink:title=" ">
<path fill="none" stroke="#63b8ff" d="M401,-52.81C441.1,-43.01 496.63,-29.45 533.42,-20.46"/>
<polygon fill="#63b8ff" stroke="#63b8ff" points="400.23,-49.4 391.34,-55.17 401.89,-56.2 400.23,-49.4"/>
</a>
</g>
</g>
<!-- Node7 -->
<g id="Node000007" class="node">
<title>Node7</title>
<g id="a_Node000007"><a xlink:href="sqmath_8cpp.html" target="_top" xlink:title=" ">
<polygon fill="white" stroke="#666666" points="498.38,-20 393.88,-20 393.88,0 498.38,0 498.38,-20"/>
<text text-anchor="middle" x="446.12" y="-6.5" font-family="Helvetica,sans-Serif" font-size="10.00">sources/sqmath.cpp</text>
</a>
</g>
</g>
<!-- Node2&#45;&gt;Node7 -->
<g id="edge6_Node000002_Node000007" class="edge">
<title>Node2&#45;&gt;Node7</title>
<g id="a_edge6_Node000002_Node000007"><a xlink:title=" ">
<path fill="none" stroke="#63b8ff" d="M377.37,-50.08C394.02,-40.62 415.06,-28.66 429.45,-20.48"/>
<polygon fill="#63b8ff" stroke="#63b8ff" points="375.95,-46.86 368.99,-54.85 379.41,-52.95 375.95,-46.86"/>
</a>
</g>
</g>
<!-- Node2&#45;&gt;Node8 -->
<g id="edge7_Node000002_Node000008" class="edge">
<title>Node2&#45;&gt;Node8</title>
<g id="a_edge7_Node000002_Node000008"><a xlink:title=" ">
<path fill="none" stroke="#63b8ff" d="M413.71,-55.21C471.66,-46.14 560.22,-32.23 637.12,-20 639.95,-19.55 642.85,-19.09 645.77,-18.62"/>
<polygon fill="#63b8ff" stroke="#63b8ff" points="413.37,-51.72 404.03,-56.73 414.46,-58.64 413.37,-51.72"/>
</a>
</g>
</g>
</g>
</svg>
