<?xml version="1.0" encoding="UTF-8" standalone="no"?>
<!DOCTYPE svg PUBLIC "-//W3C//DTD SVG 1.1//EN"
 "http://www.w3.org/Graphics/SVG/1.1/DTD/svg11.dtd">
<!-- Generated by graphviz version 12.1.0 (20240811.2233)
 -->
<!-- Title: D:/Cprojects/square_solver_git/squareSolver/headers/consts.h Pages: 1 -->
<svg width="682pt" height="212pt"
 viewBox="0.00 0.00 682.25 212.00" xmlns="http://www.w3.org/2000/svg" xmlns:xlink="http://www.w3.org/1999/xlink">
<g id="graph0" class="graph" transform="scale(1 1) rotate(0) translate(4 208)">
<title>D:/Cprojects/square_solver_git/squareSolver/headers/consts.h</title>
<!-- Node1 -->
<g id="Node000001" class="node">
<title>Node1</title>
<g id="a_Node000001"><a xlink:title=" ">
<polygon fill="#999999" stroke="#666666" points="333.25,-204 210,-204 210,-160 333.25,-160 333.25,-204"/>
<text text-anchor="start" x="218" y="-190.5" font-family="Helvetica,sans-Serif" font-size="10.00">D:/Cprojects/square</text>
<text text-anchor="start" x="218" y="-178.5" font-family="Helvetica,sans-Serif" font-size="10.00">_solver_git/squareSolver</text>
<text text-anchor="middle" x="271.62" y="-166.5" font-family="Helvetica,sans-Serif" font-size="10.00">/headers/consts.h</text>
</a>
</g>
</g>
<!-- Node2 -->
<g id="Node000002" class="node">
<title>Node2</title>
<g id="a_Node000002"><a xlink:href="tests_8h.html" target="_top" xlink:title=" ">
<polygon fill="white" stroke="#666666" points="194.25,-124 71,-124 71,-80 194.25,-80 194.25,-124"/>
<text text-anchor="start" x="79" y="-110.5" font-family="Helvetica,sans-Serif" font-size="10.00">D:/Cprojects/square</text>
<text text-anchor="start" x="79" y="-98.5" font-family="Helvetica,sans-Serif" font-size="10.00">_solver_git/squareSolver</text>
<text text-anchor="middle" x="132.62" y="-86.5" font-family="Helvetica,sans-Serif" font-size="10.00">/headers/tests.h</text>
</a>
</g>
</g>
<!-- Node1&#45;&gt;Node2 -->
<g id="edge1_Node000001_Node000002" class="edge">
<title>Node1&#45;&gt;Node2</title>
<g id="a_edge1_Node000001_Node000002"><a xlink:title=" ">
<path fill="none" stroke="#63b8ff" d="M223.68,-154.1C206.31,-144.35 186.95,-133.49 170.56,-124.29"/>
<polygon fill="#63b8ff" stroke="#63b8ff" points="221.89,-157.1 232.32,-158.95 225.31,-151 221.89,-157.1"/>
</a>
</g>
</g>
<!-- Node3 -->
<g id="Node000003" class="node">
<title>Node3</title>
<g id="a_Node000003"><a xlink:href="main_8cpp.html" target="_top" xlink:title=" ">
<polygon fill="white" stroke="#666666" points="123.25,-44 0,-44 0,0 123.25,0 123.25,-44"/>
<text text-anchor="start" x="8" y="-30.5" font-family="Helvetica,sans-Serif" font-size="10.00">D:/Cprojects/square</text>
<text text-anchor="start" x="8" y="-18.5" font-family="Helvetica,sans-Serif" font-size="10.00">_solver_git/squareSolver</text>
<text text-anchor="middle" x="61.62" y="-6.5" font-family="Helvetica,sans-Serif" font-size="10.00">/sources/main.cpp</text>
</a>
</g>
</g>
<!-- Node1&#45;&gt;Node3 -->
<g id="edge5_Node000001_Node000003" class="edge">
<title>Node1&#45;&gt;Node3</title>
<g id="a_edge5_Node000001_Node000003"><a xlink:title=" ">
<path fill="none" stroke="#63b8ff" d="M198.28,-170.67C144.63,-161.44 78.42,-145.96 61.62,-124 44.26,-101.3 49.01,-66.56 54.75,-44.31"/>
<polygon fill="#63b8ff" stroke="#63b8ff" points="197.58,-174.1 208.02,-172.3 198.74,-167.2 197.58,-174.1"/>
</a>
</g>
</g>
<!-- Node4 -->
<g id="Node000004" class="node">
<title>Node4</title>
<g id="a_Node000004"><a xlink:href="tests_8cpp.html" target="_top" xlink:title=" ">
<polygon fill="white" stroke="#666666" points="274.25,-44 151,-44 151,0 274.25,0 274.25,-44"/>
<text text-anchor="start" x="159" y="-30.5" font-family="Helvetica,sans-Serif" font-size="10.00">D:/Cprojects/square</text>
<text text-anchor="start" x="159" y="-18.5" font-family="Helvetica,sans-Serif" font-size="10.00">_solver_git/squareSolver</text>
<text text-anchor="middle" x="212.62" y="-6.5" font-family="Helvetica,sans-Serif" font-size="10.00">/sources/tests.cpp</text>
</a>
</g>
</g>
<!-- Node1&#45;&gt;Node4 -->
<g id="edge8_Node000001_Node000004" class="edge">
<title>Node1&#45;&gt;Node4</title>
<g id="a_edge8_Node000001_Node000004"><a xlink:title=" ">
<path fill="none" stroke="#63b8ff" d="M253.67,-149.67C249.38,-141.47 245.05,-132.54 241.62,-124 230.88,-97.25 222.35,-65.05 217.4,-44.31"/>
<polygon fill="#63b8ff" stroke="#63b8ff" points="250.46,-151.1 258.29,-158.24 256.62,-147.78 250.46,-151.1"/>
</a>
</g>
</g>
<!-- Node5 -->
<g id="Node000005" class="node">
<title>Node5</title>
<g id="a_Node000005"><a xlink:href="argvprocessing_8cpp.html" target="_top" xlink:title=" ">
<polygon fill="white" stroke="#666666" points="392.25,-124 251,-124 251,-80 392.25,-80 392.25,-124"/>
<text text-anchor="start" x="259" y="-110.5" font-family="Helvetica,sans-Serif" font-size="10.00">D:/Cprojects/square</text>
<text text-anchor="start" x="259" y="-98.5" font-family="Helvetica,sans-Serif" font-size="10.00">_solver_git/squareSolver</text>
<text text-anchor="middle" x="321.62" y="-86.5" font-family="Helvetica,sans-Serif" font-size="10.00">/sources/argvprocessing.cpp</text>
</a>
</g>
</g>
<!-- Node1&#45;&gt;Node5 -->
<g id="edge4_Node000001_Node000005" class="edge">
<title>Node1&#45;&gt;Node5</title>
<g id="a_edge4_Node000001_Node000005"><a xlink:title=" ">
<path fill="none" stroke="#63b8ff" d="M291.36,-150.22C296.92,-141.54 302.85,-132.28 307.98,-124.29"/>
<polygon fill="#63b8ff" stroke="#63b8ff" points="288.55,-148.1 286.1,-158.41 294.45,-151.88 288.55,-148.1"/>
</a>
</g>
</g>
<!-- Node6 -->
<g id="Node000006" class="node">
<title>Node6</title>
<g id="a_Node000006"><a xlink:href="printscan_8cpp.html" target="_top" xlink:title=" ">
<polygon fill="white" stroke="#666666" points="533.25,-124 410,-124 410,-80 533.25,-80 533.25,-124"/>
<text text-anchor="start" x="418" y="-110.5" font-family="Helvetica,sans-Serif" font-size="10.00">D:/Cprojects/square</text>
<text text-anchor="start" x="418" y="-98.5" font-family="Helvetica,sans-Serif" font-size="10.00">_solver_git/squareSolver</text>
<text text-anchor="middle" x="471.62" y="-86.5" font-family="Helvetica,sans-Serif" font-size="10.00">/sources/printscan.cpp</text>
</a>
</g>
</g>
<!-- Node1&#45;&gt;Node6 -->
<g id="edge6_Node000001_Node000006" class="edge">
<title>Node1&#45;&gt;Node6</title>
<g id="a_edge6_Node000001_Node000006"><a xlink:title=" ">
<path fill="none" stroke="#63b8ff" d="M336.99,-155.51C362.81,-145.44 392.15,-134 416.83,-124.37"/>
<polygon fill="#63b8ff" stroke="#63b8ff" points="336,-152.14 327.95,-159.03 338.54,-158.66 336,-152.14"/>
</a>
</g>
</g>
<!-- Node7 -->
<g id="Node000007" class="node">
<title>Node7</title>
<g id="a_Node000007"><a xlink:href="sqmath_8cpp.html" target="_top" xlink:title=" ">
<polygon fill="white" stroke="#666666" points="674.25,-124 551,-124 551,-80 674.25,-80 674.25,-124"/>
<text text-anchor="start" x="559" y="-110.5" font-family="Helvetica,sans-Serif" font-size="10.00">D:/Cprojects/square</text>
<text text-anchor="start" x="559" y="-98.5" font-family="Helvetica,sans-Serif" font-size="10.00">_solver_git/squareSolver</text>
<text text-anchor="middle" x="612.62" y="-86.5" font-family="Helvetica,sans-Serif" font-size="10.00">/sources/sqmath.cpp</text>
</a>
</g>
</g>
<!-- Node1&#45;&gt;Node7 -->
<g id="edge7_Node000001_Node000007" class="edge">
<title>Node1&#45;&gt;Node7</title>
<g id="a_edge7_Node000001_Node000007"><a xlink:title=" ">
<path fill="none" stroke="#63b8ff" d="M344.58,-167.38C399.35,-156.74 476.04,-140.96 542.62,-124 545.33,-123.31 548.09,-122.59 550.87,-121.83"/>
<polygon fill="#63b8ff" stroke="#63b8ff" points="344.23,-163.89 335.07,-169.22 345.55,-170.76 344.23,-163.89"/>
</a>
</g>
</g>
<!-- Node2&#45;&gt;Node3 -->
<g id="edge2_Node000002_Node000003" class="edge">
<title>Node2&#45;&gt;Node3</title>
<g id="a_edge2_Node000002_Node000003"><a xlink:title=" ">
<path fill="none" stroke="#63b8ff" d="M105.62,-71.34C97.43,-62.33 88.59,-52.63 81,-44.29"/>
<polygon fill="#63b8ff" stroke="#63b8ff" points="102.89,-73.53 112.21,-78.57 108.06,-68.82 102.89,-73.53"/>
</a>
</g>
</g>
<!-- Node2&#45;&gt;Node4 -->
<g id="edge3_Node000002_Node000004" class="edge">
<title>Node2&#45;&gt;Node4</title>
<g id="a_edge3_Node000002_Node000004"><a xlink:title=" ">
<path fill="none" stroke="#63b8ff" d="M162.48,-71.89C171.87,-62.74 182.06,-52.8 190.79,-44.29"/>
<polygon fill="#63b8ff" stroke="#63b8ff" points="160.29,-69.14 155.57,-78.63 165.17,-74.15 160.29,-69.14"/>
</a>
</g>
</g>
</g>
</svg>
