<?xml version="1.0" encoding="UTF-8" standalone="no"?>
<!DOCTYPE svg PUBLIC "-//W3C//DTD SVG 1.1//EN"
 "http://www.w3.org/Graphics/SVG/1.1/DTD/svg11.dtd">
<!-- Generated by graphviz version 12.1.0 (20240811.2233)
 -->
<!-- Title: headers/consts.h Pages: 1 -->
<svg width="599pt" height="140pt"
 viewBox="0.00 0.00 598.88 140.00" xmlns="http://www.w3.org/2000/svg" xmlns:xlink="http://www.w3.org/1999/xlink">
<g id="graph0" class="graph" transform="scale(1 1) rotate(0) translate(4 136)">
<title>headers/consts.h</title>
<!-- Node1 -->
<g id="Node000001" class="node">
<title>Node1</title>
<g id="a_Node000001"><a xlink:title=" ">
<polygon fill="#999999" stroke="#666666" points="266.12,-132 175.12,-132 175.12,-112 266.12,-112 266.12,-132"/>
<text text-anchor="middle" x="220.62" y="-118.5" font-family="Helvetica,sans-Serif" font-size="10.00">headers/consts.h</text>
</a>
</g>
</g>
<!-- Node2 -->
<g id="Node000002" class="node">
<title>Node2</title>
<g id="a_Node000002"><a xlink:href="tests_8h.html" target="_top" xlink:title=" ">
<polygon fill="white" stroke="#666666" points="144.38,-76 60.88,-76 60.88,-56 144.38,-56 144.38,-76"/>
<text text-anchor="middle" x="102.62" y="-62.5" font-family="Helvetica,sans-Serif" font-size="10.00">headers/tests.h</text>
</a>
</g>
</g>
<!-- Node1&#45;&gt;Node2 -->
<g id="edge1_Node000001_Node000002" class="edge">
<title>Node1&#45;&gt;Node2</title>
<g id="a_edge1_Node000001_Node000002"><a xlink:title=" ">
<path fill="none" stroke="#63b8ff" d="M189.76,-106.88C168.83,-97.3 141.72,-84.89 123.34,-76.48"/>
<polygon fill="#63b8ff" stroke="#63b8ff" points="188.15,-109.99 198.69,-110.96 191.06,-103.62 188.15,-109.99"/>
</a>
</g>
</g>
<!-- Node3 -->
<g id="Node000003" class="node">
<title>Node3</title>
<g id="a_Node000003"><a xlink:href="main_8cpp.html" target="_top" xlink:title=" ">
<polygon fill="white" stroke="#666666" points="93.25,-20 0,-20 0,0 93.25,0 93.25,-20"/>
<text text-anchor="middle" x="46.62" y="-6.5" font-family="Helvetica,sans-Serif" font-size="10.00">sources/main.cpp</text>
</a>
</g>
</g>
<!-- Node1&#45;&gt;Node3 -->
<g id="edge5_Node000001_Node000003" class="edge">
<title>Node1&#45;&gt;Node3</title>
<g id="a_edge5_Node000001_Node000003"><a xlink:title=" ">
<path fill="none" stroke="#63b8ff" d="M163.66,-112.99C120.42,-105.66 66.01,-93.31 51.62,-76 38.45,-60.16 41.48,-33.99 44.34,-20.18"/>
<polygon fill="#63b8ff" stroke="#63b8ff" points="163.02,-116.43 173.45,-114.59 164.15,-109.53 163.02,-116.43"/>
</a>
</g>
</g>
<!-- Node4 -->
<g id="Node000004" class="node">
<title>Node4</title>
<g id="a_Node000004"><a xlink:href="tests_8cpp.html" target="_top" xlink:title=" ">
<polygon fill="white" stroke="#666666" points="212.62,-20 118.62,-20 118.62,0 212.62,0 212.62,-20"/>
<text text-anchor="middle" x="165.62" y="-6.5" font-family="Helvetica,sans-Serif" font-size="10.00">sources/tests.cpp</text>
</a>
</g>
</g>
<!-- Node1&#45;&gt;Node4 -->
<g id="edge8_Node000001_Node000004" class="edge">
<title>Node1&#45;&gt;Node4</title>
<g id="a_edge8_Node000001_Node000004"><a xlink:title=" ">
<path fill="none" stroke="#63b8ff" d="M207.44,-102.32C202.16,-94.4 196.25,-84.96 191.62,-76 181.7,-56.78 173.01,-32.86 168.63,-20.07"/>
<polygon fill="#63b8ff" stroke="#63b8ff" points="204.45,-104.15 212.99,-110.41 210.22,-100.19 204.45,-104.15"/>
</a>
</g>
</g>
<!-- Node5 -->
<g id="Node000005" class="node">
<title>Node5</title>
<g id="a_Node000005"><a xlink:href="argvprocessing_8cpp.html" target="_top" xlink:title=" ">
<polygon fill="white" stroke="#666666" points="338.75,-76 200.5,-76 200.5,-56 338.75,-56 338.75,-76"/>
<text text-anchor="middle" x="269.62" y="-62.5" font-family="Helvetica,sans-Serif" font-size="10.00">sources/argvprocessing.cpp</text>
</a>
</g>
</g>
<!-- Node1&#45;&gt;Node5 -->
<g id="edge4_Node000001_Node000005" class="edge">
<title>Node1&#45;&gt;Node5</title>
<g id="a_edge4_Node000001_Node000005"><a xlink:title=" ">
<path fill="none" stroke="#63b8ff" d="M236.7,-103.29C244.87,-94.28 254.47,-83.7 261.19,-76.3"/>
<polygon fill="#63b8ff" stroke="#63b8ff" points="234.31,-100.72 230.18,-110.47 239.49,-105.42 234.31,-100.72"/>
</a>
</g>
</g>
<!-- Node6 -->
<g id="Node000006" class="node">
<title>Node6</title>
<g id="a_Node000006"><a xlink:href="printscan_8cpp.html" target="_top" xlink:title=" ">
<polygon fill="white" stroke="#666666" points="468.62,-76 356.62,-76 356.62,-56 468.62,-56 468.62,-76"/>
<text text-anchor="middle" x="412.62" y="-62.5" font-family="Helvetica,sans-Serif" font-size="10.00">sources/printscan.cpp</text>
</a>
</g>
</g>
<!-- Node1&#45;&gt;Node6 -->
<g id="edge6_Node000001_Node000006" class="edge">
<title>Node1&#45;&gt;Node6</title>
<g id="a_edge6_Node000001_Node000006"><a xlink:title=" ">
<path fill="none" stroke="#63b8ff" d="M264.86,-108.56C299.59,-98.79 347.23,-85.39 378.92,-76.48"/>
<polygon fill="#63b8ff" stroke="#63b8ff" points="264.2,-105.11 255.53,-111.18 266.1,-111.85 264.2,-105.11"/>
</a>
</g>
</g>
<!-- Node7 -->
<g id="Node000007" class="node">
<title>Node7</title>
<g id="a_Node000007"><a xlink:href="sqmath_8cpp.html" target="_top" xlink:title=" ">
<polygon fill="white" stroke="#666666" points="590.88,-76 486.38,-76 486.38,-56 590.88,-56 590.88,-76"/>
<text text-anchor="middle" x="538.62" y="-62.5" font-family="Helvetica,sans-Serif" font-size="10.00">sources/sqmath.cpp</text>
</a>
</g>
</g>
<!-- Node1&#45;&gt;Node7 -->
<g id="edge7_Node000001_Node000007" class="edge">
<title>Node1&#45;&gt;Node7</title>
<g id="a_edge7_Node000001_Node000007"><a xlink:title=" ">
<path fill="none" stroke="#63b8ff" d="M277.54,-111.33C336.73,-101.28 428.62,-85.68 486.12,-75.92"/>
<polygon fill="#63b8ff" stroke="#63b8ff" points="277.29,-107.83 268.02,-112.95 278.46,-114.73 277.29,-107.83"/>
</a>
</g>
</g>
<!-- Node2&#45;&gt;Node3 -->
<g id="edge2_Node000002_Node000003" class="edge">
<title>Node2&#45;&gt;Node3</title>
<g id="a_edge2_Node000002_Node000003"><a xlink:title=" ">
<path fill="none" stroke="#63b8ff" d="M84.84,-47.85C75.37,-38.72 64.1,-27.86 56.27,-20.3"/>
<polygon fill="#63b8ff" stroke="#63b8ff" points="82.15,-50.12 91.78,-54.54 87.01,-45.08 82.15,-50.12"/>
</a>
</g>
</g>
<!-- Node2&#45;&gt;Node4 -->
<g id="edge3_Node000002_Node000004" class="edge">
<title>Node2&#45;&gt;Node4</title>
<g id="a_edge3_Node000002_Node000004"><a xlink:title=" ">
<path fill="none" stroke="#63b8ff" d="M122.31,-48.13C133.03,-38.94 145.87,-27.93 154.78,-20.3"/>
<polygon fill="#63b8ff" stroke="#63b8ff" points="120.06,-45.44 114.75,-54.61 124.62,-50.76 120.06,-45.44"/>
</a>
</g>
</g>
</g>
</svg>
