<?xml version="1.0" encoding="UTF-8" standalone="no"?>
<!DOCTYPE svg PUBLIC "-//W3C//DTD SVG 1.1//EN"
 "http://www.w3.org/Graphics/SVG/1.1/DTD/svg11.dtd">
<!-- Generated by graphviz version 12.1.0 (20240811.2233)
 -->
<!-- Title: argvHandler Pages: 1 -->
<svg width="622pt" height="218pt"
 viewBox="0.00 0.00 621.75 218.00" xmlns="http://www.w3.org/2000/svg" xmlns:xlink="http://www.w3.org/1999/xlink">
<g id="graph0" class="graph" transform="scale(1 1) rotate(0) translate(4 214)">
<title>argvHandler</title>
<!-- Node1 -->
<g id="Node000001" class="node">
<title>Node1</title>
<g id="a_Node000001"><a xlink:title="Действует в зависимости от значений флагов в fval.">
<polygon fill="#999999" stroke="#666666" points="68.5,-153 0,-153 0,-133 68.5,-133 68.5,-153"/>
<text text-anchor="middle" x="34.25" y="-139.5" font-family="Helvetica,sans-Serif" font-size="10.00">argvHandler</text>
</a>
</g>
</g>
<!-- Node2 -->
<g id="Node000002" class="node">
<title>Node2</title>
<g id="a_Node000002"><a xlink:href="tests_8cpp.html#af69c2591503f36d530dd5912015e849c" target="_top" xlink:title="Запускает тесты из файла с именем fname, использует freadTests() и runTest()">
<polygon fill="white" stroke="#666666" points="164.38,-191 107.88,-191 107.88,-171 164.38,-171 164.38,-191"/>
<text text-anchor="middle" x="136.12" y="-177.5" font-family="Helvetica,sans-Serif" font-size="10.00">frunTests</text>
</a>
</g>
</g>
<!-- Node1&#45;&gt;Node2 -->
<g id="edge1_Node000001_Node000002" class="edge">
<title>Node1&#45;&gt;Node2</title>
<g id="a_edge1_Node000001_Node000002"><a xlink:title=" ">
<path fill="none" stroke="#63b8ff" d="M62.81,-153.48C73.39,-157.51 85.68,-162.19 97.08,-166.52"/>
<polygon fill="#63b8ff" stroke="#63b8ff" points="95.65,-169.73 106.24,-170.01 98.14,-163.18 95.65,-169.73"/>
</a>
</g>
</g>
<!-- Node13 -->
<g id="Node000013" class="node">
<title>Node13</title>
<g id="a_Node000013"><a xlink:href="argvprocessing_8cpp.html#a0d20b69b0ad703df78459e1033d5c1d4" target="_top" xlink:title="Печатает –help, берет данные из args, определенной в argvprocessing.cpp.">
<polygon fill="white" stroke="#666666" points="163.62,-153 108.62,-153 108.62,-133 163.62,-133 163.62,-153"/>
<text text-anchor="middle" x="136.12" y="-139.5" font-family="Helvetica,sans-Serif" font-size="10.00">printHelp</text>
</a>
</g>
</g>
<!-- Node1&#45;&gt;Node13 -->
<g id="edge20_Node000001_Node000013" class="edge">
<title>Node1&#45;&gt;Node13</title>
<g id="a_edge20_Node000001_Node000013"><a xlink:title=" ">
<path fill="none" stroke="#63b8ff" d="M68.78,-143C77.79,-143 87.6,-143 96.84,-143"/>
<polygon fill="#63b8ff" stroke="#63b8ff" points="96.63,-146.5 106.63,-143 96.63,-139.5 96.63,-146.5"/>
</a>
</g>
</g>
<!-- Node14 -->
<g id="Node000014" class="node">
<title>Node14</title>
<g id="a_Node000014"><a xlink:href="col_printf_8cpp.html#a0a90d6e29a785f1f30db7ef3f23c3859" target="_top" xlink:title="Функция, выставляющая значение colFlag.">
<polygon fill="white" stroke="#666666" points="167.75,-115 104.5,-115 104.5,-95 167.75,-95 167.75,-115"/>
<text text-anchor="middle" x="136.12" y="-101.5" font-family="Helvetica,sans-Serif" font-size="10.00">setColFlag</text>
</a>
</g>
</g>
<!-- Node1&#45;&gt;Node14 -->
<g id="edge21_Node000001_Node000014" class="edge">
<title>Node1&#45;&gt;Node14</title>
<g id="a_edge21_Node000001_Node000014"><a xlink:title=" ">
<path fill="none" stroke="#63b8ff" d="M62.81,-132.52C73.39,-128.49 85.68,-123.81 97.08,-119.48"/>
<polygon fill="#63b8ff" stroke="#63b8ff" points="98.14,-122.82 106.24,-115.99 95.65,-116.27 98.14,-122.82"/>
</a>
</g>
</g>
<!-- Node3 -->
<g id="Node000003" class="node">
<title>Node3</title>
<g id="a_Node000003"><a xlink:href="col_printf_8cpp.html#ae860d5ee10e4e730f39d929a55709678" target="_top" xlink:title="Если colFlag == 1, текст окрашивается с помощью цветовой строки color, в остальном &#45; обычный printf.">
<polygon fill="white" stroke="#666666" points="353.88,-210 301.88,-210 301.88,-190 353.88,-190 353.88,-210"/>
<text text-anchor="middle" x="327.88" y="-196.5" font-family="Helvetica,sans-Serif" font-size="10.00">colPrintf</text>
</a>
</g>
</g>
<!-- Node2&#45;&gt;Node3 -->
<g id="edge2_Node000002_Node000003" class="edge">
<title>Node2&#45;&gt;Node3</title>
<g id="a_edge2_Node000002_Node000003"><a xlink:title=" ">
<path fill="none" stroke="#63b8ff" d="M164.63,-190.7C176.5,-194.4 190.65,-198.17 203.75,-200 232.68,-204.04 265.8,-203.77 290.4,-202.64"/>
<polygon fill="#63b8ff" stroke="#63b8ff" points="290.43,-206.14 300.23,-202.11 290.05,-199.15 290.43,-206.14"/>
</a>
</g>
</g>
<!-- Node4 -->
<g id="Node000004" class="node">
<title>Node4</title>
<g id="a_Node000004"><a xlink:href="tests_8cpp.html#a9431305e7a02dad28707814742a00be3" target="_top" xlink:title="Читает тесты из файла fname в массив testp.">
<polygon fill="white" stroke="#666666" points="265.5,-191 203.75,-191 203.75,-171 265.5,-171 265.5,-191"/>
<text text-anchor="middle" x="234.62" y="-177.5" font-family="Helvetica,sans-Serif" font-size="10.00">freadTests</text>
</a>
</g>
</g>
<!-- Node2&#45;&gt;Node4 -->
<g id="edge3_Node000002_Node000004" class="edge">
<title>Node2&#45;&gt;Node4</title>
<g id="a_edge3_Node000002_Node000004"><a xlink:title=" ">
<path fill="none" stroke="#63b8ff" d="M164.78,-181C173.24,-181 182.73,-181 191.91,-181"/>
<polygon fill="#63b8ff" stroke="#63b8ff" points="191.75,-184.5 201.75,-181 191.75,-177.5 191.75,-184.5"/>
</a>
</g>
</g>
<!-- Node5 -->
<g id="Node000005" class="node">
<title>Node5</title>
<g id="a_Node000005"><a xlink:href="tests_8cpp.html#a4dfedd6bea487396641c51297a35d57b" target="_top" xlink:title="Тестирует функцию sqSolve, используя данные из test.">
<polygon fill="white" stroke="#666666" points="258.75,-153 210.5,-153 210.5,-133 258.75,-133 258.75,-153"/>
<text text-anchor="middle" x="234.62" y="-139.5" font-family="Helvetica,sans-Serif" font-size="10.00">runTest</text>
</a>
</g>
</g>
<!-- Node2&#45;&gt;Node5 -->
<g id="edge5_Node000002_Node000005" class="edge">
<title>Node2&#45;&gt;Node5</title>
<g id="a_edge5_Node000002_Node000005"><a xlink:title=" ">
<path fill="none" stroke="#63b8ff" d="M163.75,-170.52C174.85,-166.14 187.89,-161.01 199.67,-156.37"/>
<polygon fill="#63b8ff" stroke="#63b8ff" points="200.62,-159.76 208.64,-152.84 198.05,-153.25 200.62,-159.76"/>
</a>
</g>
</g>
<!-- Node4&#45;&gt;Node3 -->
<g id="edge4_Node000004_Node000003" class="edge">
<title>Node4&#45;&gt;Node3</title>
<g id="a_edge4_Node000004_Node000003"><a xlink:title=" ">
<path fill="none" stroke="#63b8ff" d="M265.76,-187.27C273.66,-188.92 282.27,-190.71 290.46,-192.42"/>
<polygon fill="#63b8ff" stroke="#63b8ff" points="289.67,-195.83 300.17,-194.44 291.1,-188.97 289.67,-195.83"/>
</a>
</g>
</g>
<!-- Node5&#45;&gt;Node3 -->
<g id="edge6_Node000005_Node000003" class="edge">
<title>Node5&#45;&gt;Node3</title>
<g id="a_edge6_Node000005_Node000003"><a xlink:title=" ">
<path fill="none" stroke="#63b8ff" d="M252.36,-153.45C265.87,-161.89 285.11,-173.91 300.66,-183.62"/>
<polygon fill="#63b8ff" stroke="#63b8ff" points="298.63,-186.48 308.96,-188.81 302.33,-180.54 298.63,-186.48"/>
</a>
</g>
</g>
<!-- Node6 -->
<g id="Node000006" class="node">
<title>Node6</title>
<g id="a_Node000006"><a xlink:href="sqmath_8cpp.html#a4549ae82b726502768498c8469b8143f" target="_top" xlink:title="С погрешностью EPSILON сравнивает корни типа roots_t.">
<polygon fill="white" stroke="#666666" points="354.25,-172 301.5,-172 301.5,-152 354.25,-152 354.25,-172"/>
<text text-anchor="middle" x="327.88" y="-158.5" font-family="Helvetica,sans-Serif" font-size="10.00">eqRoots</text>
</a>
</g>
</g>
<!-- Node5&#45;&gt;Node6 -->
<g id="edge7_Node000005_Node000006" class="edge">
<title>Node5&#45;&gt;Node6</title>
<g id="a_edge7_Node000005_Node000006"><a xlink:title=" ">
<path fill="none" stroke="#63b8ff" d="M259.12,-147.89C268.59,-149.86 279.72,-152.18 290.2,-154.36"/>
<polygon fill="#63b8ff" stroke="#63b8ff" points="289.22,-157.74 299.73,-156.35 290.65,-150.88 289.22,-157.74"/>
</a>
</g>
</g>
<!-- Node7 -->
<g id="Node000007" class="node">
<title>Node7</title>
<g id="a_Node000007"><a xlink:href="sqmath_8cpp.html#afc2fd18b983db1a6b8530aa3fb24da1e" target="_top" xlink:title="С погрешностью EPSILON сравнивает 2 числа типа double.">
<polygon fill="white" stroke="#666666" points="437.75,-172 393.25,-172 393.25,-152 437.75,-152 437.75,-172"/>
<text text-anchor="middle" x="415.5" y="-158.5" font-family="Helvetica,sans-Serif" font-size="10.00">equals</text>
</a>
</g>
</g>
<!-- Node5&#45;&gt;Node7 -->
<g id="edge10_Node000005_Node000007" class="edge">
<title>Node5&#45;&gt;Node7</title>
<g id="a_edge10_Node000005_Node000007"><a xlink:title=" ">
<path fill="none" stroke="#63b8ff" d="M258.97,-140.92C283.01,-139.26 321.48,-137.96 354.25,-143 363.47,-144.42 373.22,-146.99 382.12,-149.8"/>
<polygon fill="#63b8ff" stroke="#63b8ff" points="380.82,-153.05 391.41,-152.92 383.05,-146.42 380.82,-153.05"/>
</a>
</g>
</g>
<!-- Node9 -->
<g id="Node000009" class="node">
<title>Node9</title>
<g id="a_Node000009"><a xlink:href="sqmath_8cpp.html#a81a063d50a9d1121b1d696f2e0e7e8e7" target="_top" xlink:title="Решает квадратное уравнение вида ax^2 + bx + c = 0. Коэффициенты берет из структуры coeffs_t,...">
<polygon fill="white" stroke="#666666" points="353.5,-96 302.25,-96 302.25,-76 353.5,-76 353.5,-96"/>
<text text-anchor="middle" x="327.88" y="-82.5" font-family="Helvetica,sans-Serif" font-size="10.00">sqSolve</text>
</a>
</g>
</g>
<!-- Node5&#45;&gt;Node9 -->
<g id="edge11_Node000005_Node000009" class="edge">
<title>Node5&#45;&gt;Node9</title>
<g id="a_edge11_Node000005_Node000009"><a xlink:title=" ">
<path fill="none" stroke="#63b8ff" d="M252.36,-132.55C265.87,-124.11 285.11,-112.09 300.66,-102.38"/>
<polygon fill="#63b8ff" stroke="#63b8ff" points="302.33,-105.46 308.96,-97.19 298.63,-99.52 302.33,-105.46"/>
</a>
</g>
</g>
<!-- Node6&#45;&gt;Node7 -->
<g id="edge8_Node000006_Node000007" class="edge">
<title>Node6&#45;&gt;Node7</title>
<g id="a_edge8_Node000006_Node000007"><a xlink:title=" ">
<path fill="none" stroke="#63b8ff" d="M354.57,-162C363.06,-162 372.63,-162 381.59,-162"/>
<polygon fill="#63b8ff" stroke="#63b8ff" points="381.36,-165.5 391.36,-162 381.36,-158.5 381.36,-165.5"/>
</a>
</g>
</g>
<!-- Node8 -->
<g id="Node000008" class="node">
<title>Node8</title>
<g id="a_Node000008"><a xlink:href="myisfinite_8cpp.html#afd2bf05e56bb7a125c4fe3587f897deb" target="_top" xlink:title="Буквально isfinite, только мой &#45; если число не NAN, INF, &#45;INF, возвращает 1.">
<polygon fill="white" stroke="#666666" points="613.75,-96 555.75,-96 555.75,-76 613.75,-76 613.75,-96"/>
<text text-anchor="middle" x="584.75" y="-82.5" font-family="Helvetica,sans-Serif" font-size="10.00">myisfinite</text>
</a>
</g>
</g>
<!-- Node7&#45;&gt;Node8 -->
<g id="edge9_Node000007_Node000008" class="edge">
<title>Node7&#45;&gt;Node8</title>
<g id="a_edge9_Node000007_Node000008"><a xlink:title=" ">
<path fill="none" stroke="#63b8ff" d="M438.01,-159.87C459.58,-157.09 493.31,-150.95 519.75,-138 536.96,-129.57 553.68,-115.74 565.7,-104.46"/>
<polygon fill="#63b8ff" stroke="#63b8ff" points="568.11,-107 572.83,-97.52 563.23,-101.98 568.11,-107"/>
</a>
</g>
</g>
<!-- Node9&#45;&gt;Node8 -->
<g id="edge19_Node000009_Node000008" class="edge">
<title>Node9&#45;&gt;Node8</title>
<g id="a_edge19_Node000009_Node000008"><a xlink:title=" ">
<path fill="none" stroke="#63b8ff" d="M353.78,-92.67C364.87,-95.39 378.13,-98.28 390.25,-100 447.28,-108.09 462.75,-113.28 519.75,-105 527.86,-103.82 536.37,-101.85 544.44,-99.6"/>
<polygon fill="#63b8ff" stroke="#63b8ff" points="545.44,-102.96 554.02,-96.74 543.44,-96.25 545.44,-102.96"/>
</a>
</g>
</g>
<!-- Node10 -->
<g id="Node000010" class="node">
<title>Node10</title>
<g id="a_Node000010"><a xlink:href="sqmath_8cpp.html#aabc47b97dff1309b0dba82045778e896" target="_top" xlink:title="Считает дискриминант, используя коэффициенты из структуры типа coeffs_t.">
<polygon fill="white" stroke="#666666" points="516.75,-96 479.75,-96 479.75,-76 516.75,-76 516.75,-96"/>
<text text-anchor="middle" x="498.25" y="-82.5" font-family="Helvetica,sans-Serif" font-size="10.00">discr</text>
</a>
</g>
</g>
<!-- Node9&#45;&gt;Node10 -->
<g id="edge12_Node000009_Node000010" class="edge">
<title>Node9&#45;&gt;Node10</title>
<g id="a_edge12_Node000009_Node000010"><a xlink:title=" ">
<path fill="none" stroke="#63b8ff" d="M353.72,-86C384.22,-86 435.86,-86 468.17,-86"/>
<polygon fill="#63b8ff" stroke="#63b8ff" points="468.02,-89.5 478.02,-86 468.02,-82.5 468.02,-89.5"/>
</a>
</g>
</g>
<!-- Node11 -->
<g id="Node000011" class="node">
<title>Node11</title>
<g id="a_Node000011"><a xlink:href="sqmath_8cpp.html#a72f9e3f1ac3e22071bdcdd823010b63b" target="_top" xlink:title="Приближенно сравнивает a с 0. Погрешность определяется константой EPSILON.">
<polygon fill="white" stroke="#666666" points="519.75,-58 476.75,-58 476.75,-38 519.75,-38 519.75,-58"/>
<text text-anchor="middle" x="498.25" y="-44.5" font-family="Helvetica,sans-Serif" font-size="10.00">isZero</text>
</a>
</g>
</g>
<!-- Node9&#45;&gt;Node11 -->
<g id="edge14_Node000009_Node000011" class="edge">
<title>Node9&#45;&gt;Node11</title>
<g id="a_edge14_Node000009_Node000011"><a xlink:title=" ">
<path fill="none" stroke="#63b8ff" d="M353.72,-80.39C383.29,-73.72 432.75,-62.56 465.18,-55.24"/>
<polygon fill="#63b8ff" stroke="#63b8ff" points="465.83,-58.68 474.82,-53.06 464.29,-51.85 465.83,-58.68"/>
</a>
</g>
</g>
<!-- Node12 -->
<g id="Node000012" class="node">
<title>Node12</title>
<g id="a_Node000012"><a xlink:href="sqmath_8cpp.html#aadb30e038879ab02aee3f881974ed8fc" target="_top" xlink:title="Решает линейное уравнение вида bx + c = 0.">
<polygon fill="white" stroke="#666666" points="440.75,-20 390.25,-20 390.25,0 440.75,0 440.75,-20"/>
<text text-anchor="middle" x="415.5" y="-6.5" font-family="Helvetica,sans-Serif" font-size="10.00">linSolve</text>
</a>
</g>
</g>
<!-- Node9&#45;&gt;Node12 -->
<g id="edge16_Node000009_Node000012" class="edge">
<title>Node9&#45;&gt;Node12</title>
<g id="a_edge16_Node000009_Node000012"><a xlink:title=" ">
<path fill="none" stroke="#63b8ff" d="M340.42,-75.75C354.21,-63.51 377.51,-42.83 394.3,-27.92"/>
<polygon fill="#63b8ff" stroke="#63b8ff" points="396.57,-30.59 401.73,-21.33 391.93,-25.36 396.57,-30.59"/>
</a>
</g>
</g>
<!-- Node10&#45;&gt;Node8 -->
<g id="edge13_Node000010_Node000008" class="edge">
<title>Node10&#45;&gt;Node8</title>
<g id="a_edge13_Node000010_Node000008"><a xlink:title=" ">
<path fill="none" stroke="#63b8ff" d="M517.17,-86C525.09,-86 534.74,-86 544.21,-86"/>
<polygon fill="#63b8ff" stroke="#63b8ff" points="544.03,-89.5 554.03,-86 544.03,-82.5 544.03,-89.5"/>
</a>
</g>
</g>
<!-- Node11&#45;&gt;Node8 -->
<g id="edge15_Node000011_Node000008" class="edge">
<title>Node11&#45;&gt;Node8</title>
<g id="a_edge15_Node000011_Node000008"><a xlink:title=" ">
<path fill="none" stroke="#63b8ff" d="M520.14,-57.39C529.21,-61.47 540.06,-66.35 550.21,-70.91"/>
<polygon fill="#63b8ff" stroke="#63b8ff" points="548.49,-73.98 559.04,-74.89 551.36,-67.6 548.49,-73.98"/>
</a>
</g>
</g>
<!-- Node12&#45;&gt;Node8 -->
<g id="edge18_Node000012_Node000008" class="edge">
<title>Node12&#45;&gt;Node8</title>
<g id="a_edge18_Node000012_Node000008"><a xlink:title=" ">
<path fill="none" stroke="#63b8ff" d="M441.03,-10.8C462.71,-12.36 494.7,-16.75 519.75,-29 538.47,-38.15 555.85,-54.34 567.77,-67.14"/>
<polygon fill="#63b8ff" stroke="#63b8ff" points="565.14,-69.45 574.41,-74.57 570.36,-64.78 565.14,-69.45"/>
</a>
</g>
</g>
<!-- Node12&#45;&gt;Node11 -->
<g id="edge17_Node000012_Node000011" class="edge">
<title>Node12&#45;&gt;Node11</title>
<g id="a_edge17_Node000012_Node000011"><a xlink:title=" ">
<path fill="none" stroke="#63b8ff" d="M438.57,-20.38C447.02,-24.36 456.84,-28.98 466,-33.29"/>
<polygon fill="#63b8ff" stroke="#63b8ff" points="464.42,-36.42 474.95,-37.51 467.4,-30.08 464.42,-36.42"/>
</a>
</g>
</g>
</g>
</svg>
