<?xml version="1.0" encoding="UTF-8" standalone="no"?>
<!DOCTYPE svg PUBLIC "-//W3C//DTD SVG 1.1//EN"
 "http://www.w3.org/Graphics/SVG/1.1/DTD/svg11.dtd">
<!-- Generated by graphviz version 12.1.0 (20240811.2233)
 -->
<!-- Title: sources/main.cpp Pages: 1 -->
<svg width="882pt" height="140pt"
 viewBox="0.00 0.00 881.75 140.00" xmlns="http://www.w3.org/2000/svg" xmlns:xlink="http://www.w3.org/1999/xlink">
<g id="graph0" class="graph" transform="scale(1 1) rotate(0) translate(4 136)">
<title>sources/main.cpp</title>
<!-- Node1 -->
<g id="Node000001" class="node">
<title>Node1</title>
<g id="a_Node000001"><a xlink:title=" ">
<polygon fill="#999999" stroke="#666666" points="427.25,-132 334,-132 334,-112 427.25,-112 427.25,-132"/>
<text text-anchor="middle" x="380.62" y="-118.5" font-family="Helvetica,sans-Serif" font-size="10.00">sources/main.cpp</text>
</a>
</g>
</g>
<!-- Node2 -->
<g id="Node000002" class="node">
<title>Node2</title>
<g id="a_Node000002"><a xlink:title=" ">
<polygon fill="#e0e0e0" stroke="#999999" points="45.25,-76 0,-76 0,-56 45.25,-56 45.25,-76"/>
<text text-anchor="middle" x="22.62" y="-62.5" font-family="Helvetica,sans-Serif" font-size="10.00">stdio.h</text>
</a>
</g>
</g>
<!-- Node1&#45;&gt;Node2 -->
<g id="edge1_Node000001_Node000002" class="edge">
<title>Node1&#45;&gt;Node2</title>
<g id="a_edge1_Node000001_Node000002"><a xlink:title=" ">
<path fill="none" stroke="#63b8ff" d="M333.58,-116.55C272.08,-110.29 160.86,-97.43 56.64,-76.16"/>
<polygon fill="#63b8ff" stroke="#63b8ff" points="57.59,-72.78 47.09,-74.18 56.17,-79.64 57.59,-72.78"/>
</a>
</g>
</g>
<!-- Node3 -->
<g id="Node000003" class="node">
<title>Node3</title>
<g id="a_Node000003"><a xlink:title=" ">
<polygon fill="#e0e0e0" stroke="#999999" points="109.62,-76 63.62,-76 63.62,-56 109.62,-56 109.62,-76"/>
<text text-anchor="middle" x="86.62" y="-62.5" font-family="Helvetica,sans-Serif" font-size="10.00">math.h</text>
</a>
</g>
</g>
<!-- Node1&#45;&gt;Node3 -->
<g id="edge2_Node000001_Node000003" class="edge">
<title>Node1&#45;&gt;Node3</title>
<g id="a_edge2_Node000001_Node000003"><a xlink:title=" ">
<path fill="none" stroke="#63b8ff" d="M333.55,-113.7C281.88,-105.47 196.56,-91.24 123.62,-76 122.8,-75.83 121.97,-75.65 121.12,-75.47"/>
<polygon fill="#63b8ff" stroke="#63b8ff" points="122.06,-72.09 111.54,-73.28 120.51,-78.92 122.06,-72.09"/>
</a>
</g>
</g>
<!-- Node4 -->
<g id="Node000004" class="node">
<title>Node4</title>
<g id="a_Node000004"><a xlink:title=" ">
<polygon fill="#e0e0e0" stroke="#999999" points="164.38,-20 116.88,-20 116.88,0 164.38,0 164.38,-20"/>
<text text-anchor="middle" x="140.62" y="-6.5" font-family="Helvetica,sans-Serif" font-size="10.00">stdlib.h</text>
</a>
</g>
</g>
<!-- Node1&#45;&gt;Node4 -->
<g id="edge3_Node000001_Node000004" class="edge">
<title>Node1&#45;&gt;Node4</title>
<g id="a_edge3_Node000001_Node000004"><a xlink:title=" ">
<path fill="none" stroke="#63b8ff" d="M333.57,-117.41C275.53,-112.01 181.48,-99.8 156.62,-76 144.81,-64.68 141.15,-46.16 140.25,-31.78"/>
<polygon fill="#63b8ff" stroke="#63b8ff" points="143.75,-31.93 140.06,-22 136.76,-32.06 143.75,-31.93"/>
</a>
</g>
</g>
<!-- Node5 -->
<g id="Node000005" class="node">
<title>Node5</title>
<g id="a_Node000005"><a xlink:title=" ">
<polygon fill="#e0e0e0" stroke="#999999" points="371.75,-76 323.5,-76 323.5,-56 371.75,-56 371.75,-76"/>
<text text-anchor="middle" x="347.62" y="-62.5" font-family="Helvetica,sans-Serif" font-size="10.00">string.h</text>
</a>
</g>
</g>
<!-- Node1&#45;&gt;Node5 -->
<g id="edge4_Node000001_Node000005" class="edge">
<title>Node1&#45;&gt;Node5</title>
<g id="a_edge4_Node000001_Node000005"><a xlink:title=" ">
<path fill="none" stroke="#63b8ff" d="M374.88,-111.59C370.57,-104.55 364.53,-94.67 359.24,-86"/>
<polygon fill="#63b8ff" stroke="#63b8ff" points="362.3,-84.3 354.1,-77.59 356.32,-87.95 362.3,-84.3"/>
</a>
</g>
</g>
<!-- Node6 -->
<g id="Node000006" class="node">
<title>Node6</title>
<g id="a_Node000006"><a xlink:title=" ">
<polygon fill="#e0e0e0" stroke="#999999" points="437.75,-76 389.5,-76 389.5,-56 437.75,-56 437.75,-76"/>
<text text-anchor="middle" x="413.62" y="-62.5" font-family="Helvetica,sans-Serif" font-size="10.00">ctype.h</text>
</a>
</g>
</g>
<!-- Node1&#45;&gt;Node6 -->
<g id="edge5_Node000001_Node000006" class="edge">
<title>Node1&#45;&gt;Node6</title>
<g id="a_edge5_Node000001_Node000006"><a xlink:title=" ">
<path fill="none" stroke="#63b8ff" d="M386.37,-111.59C390.68,-104.55 396.72,-94.67 402.01,-86"/>
<polygon fill="#63b8ff" stroke="#63b8ff" points="404.93,-87.95 407.15,-77.59 398.95,-84.3 404.93,-87.95"/>
</a>
</g>
</g>
<!-- Node7 -->
<g id="Node000007" class="node">
<title>Node7</title>
<g id="a_Node000007"><a xlink:title=" ">
<polygon fill="#e0e0e0" stroke="#999999" points="507.25,-76 456,-76 456,-56 507.25,-56 507.25,-76"/>
<text text-anchor="middle" x="481.62" y="-62.5" font-family="Helvetica,sans-Serif" font-size="10.00">stdarg.h</text>
</a>
</g>
</g>
<!-- Node1&#45;&gt;Node7 -->
<g id="edge6_Node000001_Node000007" class="edge">
<title>Node1&#45;&gt;Node7</title>
<g id="a_edge6_Node000001_Node000007"><a xlink:title=" ">
<path fill="none" stroke="#63b8ff" d="M398.22,-111.59C413.55,-103.4 436.04,-91.37 453.81,-81.87"/>
<polygon fill="#63b8ff" stroke="#63b8ff" points="455.39,-84.99 462.56,-77.19 452.09,-78.82 455.39,-84.99"/>
</a>
</g>
</g>
<!-- Node8 -->
<g id="Node000008" class="node">
<title>Node8</title>
<g id="a_Node000008"><a xlink:href="colors_8h.html" target="_top" xlink:title=" ">
<polygon fill="white" stroke="#666666" points="236.88,-20 186.38,-20 186.38,0 236.88,0 236.88,-20"/>
<text text-anchor="middle" x="211.62" y="-6.5" font-family="Helvetica,sans-Serif" font-size="10.00">colors.h</text>
</a>
</g>
</g>
<!-- Node1&#45;&gt;Node8 -->
<g id="edge7_Node000001_Node000008" class="edge">
<title>Node1&#45;&gt;Node8</title>
<g id="a_edge7_Node000001_Node000008"><a xlink:title=" ">
<path fill="none" stroke="#63b8ff" d="M361.63,-111.54C344.73,-102.89 319.52,-89.44 298.62,-76 274.81,-60.68 249,-40.96 231.72,-27.28"/>
<polygon fill="#63b8ff" stroke="#63b8ff" points="234.25,-24.82 224.26,-21.31 229.88,-30.29 234.25,-24.82"/>
</a>
</g>
</g>
<!-- Node9 -->
<g id="Node000009" class="node">
<title>Node9</title>
<g id="a_Node000009"><a xlink:href="printscan_8h.html" target="_top" xlink:title=" ">
<polygon fill="white" stroke="#666666" points="589.62,-76 525.62,-76 525.62,-56 589.62,-56 589.62,-76"/>
<text text-anchor="middle" x="557.62" y="-62.5" font-family="Helvetica,sans-Serif" font-size="10.00">printscan.h</text>
</a>
</g>
</g>
<!-- Node1&#45;&gt;Node9 -->
<g id="edge8_Node000001_Node000009" class="edge">
<title>Node1&#45;&gt;Node9</title>
<g id="a_edge8_Node000001_Node000009"><a xlink:title=" ">
<path fill="none" stroke="#63b8ff" d="M411.46,-111.59C440.34,-102.78 483.74,-89.54 515.75,-79.78"/>
<polygon fill="#63b8ff" stroke="#63b8ff" points="516.56,-83.19 525.11,-76.92 514.52,-76.49 516.56,-83.19"/>
</a>
</g>
</g>
<!-- Node10 -->
<g id="Node000010" class="node">
<title>Node10</title>
<g id="a_Node000010"><a xlink:href="sqmath_8h.html" target="_top" xlink:title=" ">
<polygon fill="white" stroke="#666666" points="663.88,-76 607.38,-76 607.38,-56 663.88,-56 663.88,-76"/>
<text text-anchor="middle" x="635.62" y="-62.5" font-family="Helvetica,sans-Serif" font-size="10.00">sqmath.h</text>
</a>
</g>
</g>
<!-- Node1&#45;&gt;Node10 -->
<g id="edge9_Node000001_Node000010" class="edge">
<title>Node1&#45;&gt;Node10</title>
<g id="a_edge9_Node000001_Node000010"><a xlink:title=" ">
<path fill="none" stroke="#63b8ff" d="M427.5,-111.82C469.3,-103.52 532.43,-90.72 595.94,-76.55"/>
<polygon fill="#63b8ff" stroke="#63b8ff" points="596.5,-80.01 605.49,-74.41 594.96,-73.18 596.5,-80.01"/>
</a>
</g>
</g>
<!-- Node11 -->
<g id="Node000011" class="node">
<title>Node11</title>
<g id="a_Node000011"><a xlink:href="consts_8h.html" target="_top" xlink:title=" ">
<polygon fill="white" stroke="#666666" points="743.38,-20 689.88,-20 689.88,0 743.38,0 743.38,-20"/>
<text text-anchor="middle" x="716.62" y="-6.5" font-family="Helvetica,sans-Serif" font-size="10.00">consts.h</text>
</a>
</g>
</g>
<!-- Node1&#45;&gt;Node11 -->
<g id="edge10_Node000001_Node000011" class="edge">
<title>Node1&#45;&gt;Node11</title>
<g id="a_edge10_Node000001_Node000011"><a xlink:title=" ">
<path fill="none" stroke="#63b8ff" d="M427.46,-118.31C499.35,-113.44 632.75,-101.24 672.62,-76 689.51,-65.31 701.49,-45.55 708.64,-30.6"/>
<polygon fill="#63b8ff" stroke="#63b8ff" points="711.72,-32.3 712.56,-21.73 705.31,-29.47 711.72,-32.3"/>
</a>
</g>
</g>
<!-- Node12 -->
<g id="Node000012" class="node">
<title>Node12</title>
<g id="a_Node000012"><a xlink:href="tests_8h.html" target="_top" xlink:title=" ">
<polygon fill="white" stroke="#666666" points="765.62,-76 719.62,-76 719.62,-56 765.62,-56 765.62,-76"/>
<text text-anchor="middle" x="742.62" y="-62.5" font-family="Helvetica,sans-Serif" font-size="10.00">tests.h</text>
</a>
</g>
</g>
<!-- Node1&#45;&gt;Node12 -->
<g id="edge11_Node000001_Node000012" class="edge">
<title>Node1&#45;&gt;Node12</title>
<g id="a_edge11_Node000001_Node000012"><a xlink:title=" ">
<path fill="none" stroke="#63b8ff" d="M427.69,-115.99C491.12,-108.91 607.42,-94.69 705.62,-76 706.45,-75.84 707.29,-75.68 708.13,-75.51"/>
<polygon fill="#63b8ff" stroke="#63b8ff" points="708.72,-78.96 717.74,-73.4 707.22,-72.13 708.72,-78.96"/>
</a>
</g>
</g>
<!-- Node13 -->
<g id="Node000013" class="node">
<title>Node13</title>
<g id="a_Node000013"><a xlink:href="col_printf_8h.html" target="_top" xlink:title=" ">
<polygon fill="white" stroke="#666666" points="316.75,-20 256.5,-20 256.5,0 316.75,0 316.75,-20"/>
<text text-anchor="middle" x="286.62" y="-6.5" font-family="Helvetica,sans-Serif" font-size="10.00">colPrintf.h</text>
</a>
</g>
</g>
<!-- Node1&#45;&gt;Node13 -->
<g id="edge13_Node000001_Node000013" class="edge">
<title>Node1&#45;&gt;Node13</title>
<g id="a_edge13_Node000001_Node000013"><a xlink:title=" ">
<path fill="none" stroke="#63b8ff" d="M361.08,-111.54C346.62,-103.72 327.33,-91.41 314.62,-76 303.74,-62.8 296.42,-44.74 292,-31"/>
<polygon fill="#63b8ff" stroke="#63b8ff" points="295.45,-30.33 289.27,-21.73 288.73,-32.31 295.45,-30.33"/>
</a>
</g>
</g>
<!-- Node14 -->
<g id="Node000014" class="node">
<title>Node14</title>
<g id="a_Node000014"><a xlink:href="myassert_8h.html" target="_top" xlink:title=" ">
<polygon fill="white" stroke="#666666" points="230,-76 165.25,-76 165.25,-56 230,-56 230,-76"/>
<text text-anchor="middle" x="197.62" y="-62.5" font-family="Helvetica,sans-Serif" font-size="10.00">myassert.h</text>
</a>
</g>
</g>
<!-- Node1&#45;&gt;Node14 -->
<g id="edge14_Node000001_Node000014" class="edge">
<title>Node1&#45;&gt;Node14</title>
<g id="a_edge14_Node000001_Node000014"><a xlink:title=" ">
<path fill="none" stroke="#63b8ff" d="M348.75,-111.59C318.76,-102.74 273.62,-89.43 240.49,-79.65"/>
<polygon fill="#63b8ff" stroke="#63b8ff" points="241.78,-76.38 231.2,-76.91 239.8,-83.09 241.78,-76.38"/>
</a>
</g>
</g>
<!-- Node15 -->
<g id="Node000015" class="node">
<title>Node15</title>
<g id="a_Node000015"><a xlink:href="argvprocessing_8h.html" target="_top" xlink:title=" ">
<polygon fill="white" stroke="#666666" points="873.75,-76 783.5,-76 783.5,-56 873.75,-56 873.75,-76"/>
<text text-anchor="middle" x="828.62" y="-62.5" font-family="Helvetica,sans-Serif" font-size="10.00">argvprocessing.h</text>
</a>
</g>
</g>
<!-- Node1&#45;&gt;Node15 -->
<g id="edge18_Node000001_Node000015" class="edge">
<title>Node1&#45;&gt;Node15</title>
<g id="a_edge18_Node000001_Node000015"><a xlink:title=" ">
<path fill="none" stroke="#63b8ff" d="M427.73,-116.41C499.63,-109.23 641.37,-94.41 771.9,-76.32"/>
<polygon fill="#63b8ff" stroke="#63b8ff" points="772.36,-79.79 781.78,-74.94 771.39,-72.86 772.36,-79.79"/>
</a>
</g>
</g>
<!-- Node12&#45;&gt;Node11 -->
<g id="edge12_Node000012_Node000011" class="edge">
<title>Node12&#45;&gt;Node11</title>
<g id="a_edge12_Node000012_Node000011"><a xlink:title=" ">
<path fill="none" stroke="#63b8ff" d="M738.1,-55.59C734.78,-48.7 730.16,-39.1 726.05,-30.57"/>
<polygon fill="#63b8ff" stroke="#63b8ff" points="729.25,-29.15 721.76,-21.66 722.94,-32.19 729.25,-29.15"/>
</a>
</g>
</g>
<!-- Node14&#45;&gt;Node4 -->
<g id="edge15_Node000014_Node000004" class="edge">
<title>Node14&#45;&gt;Node4</title>
<g id="a_edge15_Node000014_Node000004"><a xlink:title=" ">
<path fill="none" stroke="#63b8ff" d="M187.7,-55.59C179.69,-48.01 168.21,-37.13 158.59,-28.02"/>
<polygon fill="#63b8ff" stroke="#63b8ff" points="161.21,-25.68 151.54,-21.34 156.39,-30.76 161.21,-25.68"/>
</a>
</g>
</g>
<!-- Node14&#45;&gt;Node8 -->
<g id="edge16_Node000014_Node000008" class="edge">
<title>Node14&#45;&gt;Node8</title>
<g id="a_edge16_Node000014_Node000008"><a xlink:title=" ">
<path fill="none" stroke="#63b8ff" d="M200.06,-55.59C201.79,-48.93 204.17,-39.75 206.33,-31.44"/>
<polygon fill="#63b8ff" stroke="#63b8ff" points="209.71,-32.32 208.83,-21.76 202.94,-30.56 209.71,-32.32"/>
</a>
</g>
</g>
<!-- Node14&#45;&gt;Node13 -->
<g id="edge17_Node000014_Node000013" class="edge">
<title>Node14&#45;&gt;Node13</title>
<g id="a_edge17_Node000014_Node000013"><a xlink:title=" ">
<path fill="none" stroke="#63b8ff" d="M213.13,-55.59C226.45,-47.51 245.9,-35.71 261.45,-26.27"/>
<polygon fill="#63b8ff" stroke="#63b8ff" points="262.97,-29.44 269.71,-21.26 259.34,-23.46 262.97,-29.44"/>
</a>
</g>
</g>
</g>
</svg>
