<?xml version="1.0" encoding="UTF-8" standalone="no"?>
<!DOCTYPE svg PUBLIC "-//W3C//DTD SVG 1.1//EN"
 "http://www.w3.org/Graphics/SVG/1.1/DTD/svg11.dtd">
<!-- Generated by graphviz version 12.1.0 (20240811.2233)
 -->
<!-- Title: main Pages: 1 -->
<svg width="699pt" height="315pt"
 viewBox="0.00 0.00 698.50 314.74" xmlns="http://www.w3.org/2000/svg" xmlns:xlink="http://www.w3.org/1999/xlink">
<g id="graph0" class="graph" transform="scale(1 1) rotate(0) translate(4 310.74)">
<title>main</title>
<!-- Node1 -->
<g id="Node000001" class="node">
<title>Node1</title>
<g id="a_Node000001"><a xlink:title=" ">
<polygon fill="#999999" stroke="#666666" points="37,-134 0,-134 0,-114 37,-114 37,-134"/>
<text text-anchor="middle" x="18.5" y="-120.5" font-family="Helvetica,sans-Serif" font-size="10.00">main</text>
</a>
</g>
</g>
<!-- Node2 -->
<g id="Node000002" class="node">
<title>Node2</title>
<g id="a_Node000002"><a xlink:href="main_8cpp.html#a87969c37f3523e73957ae67d5fa983f4" target="_top" xlink:title="Действует в зависимости от значений флагов в fval.">
<polygon fill="white" stroke="#666666" points="142.62,-191 74.12,-191 74.12,-171 142.62,-171 142.62,-191"/>
<text text-anchor="middle" x="108.38" y="-177.5" font-family="Helvetica,sans-Serif" font-size="10.00">argvHandler</text>
</a>
</g>
</g>
<!-- Node1&#45;&gt;Node2 -->
<g id="edge1_Node000001_Node000002" class="edge">
<title>Node1&#45;&gt;Node2</title>
<g id="a_edge1_Node000001_Node000002"><a xlink:title=" ">
<path fill="none" stroke="#63b8ff" d="M35.62,-134.45C48.62,-142.89 67.16,-154.91 82.13,-164.62"/>
<polygon fill="#63b8ff" stroke="#63b8ff" points="79.8,-167.28 90.09,-169.79 83.6,-161.41 79.8,-167.28"/>
</a>
</g>
</g>
<!-- Node4 -->
<g id="Node000004" class="node">
<title>Node4</title>
<g id="a_Node000004"><a xlink:href="col_printf_8cpp.html#ae860d5ee10e4e730f39d929a55709678" target="_top" xlink:title="Если colFlag == 1, текст окрашивается с помощью цветовой строки color, в остальном &#45; обычный printf.">
<polygon fill="white" stroke="#666666" points="429.12,-248 377.12,-248 377.12,-228 429.12,-228 429.12,-248"/>
<text text-anchor="middle" x="403.12" y="-234.5" font-family="Helvetica,sans-Serif" font-size="10.00">colPrintf</text>
</a>
</g>
</g>
<!-- Node1&#45;&gt;Node4 -->
<g id="edge24_Node000001_Node000004" class="edge">
<title>Node1&#45;&gt;Node4</title>
<g id="a_edge24_Node000001_Node000004"><a xlink:title=" ">
<path fill="none" stroke="#63b8ff" d="M21.77,-134.49C27,-156.34 41.94,-207.06 73,-236 110.3,-270.75 130.64,-264.29 179.75,-278 249.05,-297.35 273.78,-321.3 340.75,-295 359.92,-287.47 376.66,-270.83 387.8,-257.46"/>
<polygon fill="#63b8ff" stroke="#63b8ff" points="390.5,-259.69 393.93,-249.67 385,-255.36 390.5,-259.69"/>
</a>
</g>
</g>
<!-- Node10 -->
<g id="Node000010" class="node">
<title>Node10</title>
<g id="a_Node000010"><a xlink:href="sqmath_8cpp.html#a62cf47e75fc1f85d1f20dd49098267d3" target="_top" xlink:title="Решает квадратное уравнение вида ax^2 + bx + c = 0. Коэффициенты берет из структуры coeffs_t,...">
<polygon fill="white" stroke="#666666" points="428.75,-134 377.5,-134 377.5,-114 428.75,-114 428.75,-134"/>
<text text-anchor="middle" x="403.12" y="-120.5" font-family="Helvetica,sans-Serif" font-size="10.00">sqSolve</text>
</a>
</g>
</g>
<!-- Node1&#45;&gt;Node10 -->
<g id="edge29_Node000001_Node000010" class="edge">
<title>Node1&#45;&gt;Node10</title>
<g id="a_edge29_Node000001_Node000010"><a xlink:title=" ">
<path fill="none" stroke="#63b8ff" d="M37.44,-124C96.47,-124 285.4,-124 365.59,-124"/>
<polygon fill="#63b8ff" stroke="#63b8ff" points="365.53,-127.5 375.53,-124 365.53,-120.5 365.53,-127.5"/>
</a>
</g>
</g>
<!-- Node16 -->
<g id="Node000016" class="node">
<title>Node16</title>
<g id="a_Node000016"><a xlink:href="argvprocessing_8cpp.html#a874bd6700508cd66afd2d8143adeaf39" target="_top" xlink:title="Обрабатывает аргументы командной строки, примеры которых лежат в массиве структур argvEx_t в argvproc...">
<polygon fill="white" stroke="#666666" points="143.75,-96 73,-96 73,-76 143.75,-76 143.75,-96"/>
<text text-anchor="middle" x="108.38" y="-82.5" font-family="Helvetica,sans-Serif" font-size="10.00">argvReceive</text>
</a>
</g>
</g>
<!-- Node1&#45;&gt;Node16 -->
<g id="edge22_Node000001_Node000016" class="edge">
<title>Node1&#45;&gt;Node16</title>
<g id="a_edge22_Node000001_Node000016"><a xlink:title=" ">
<path fill="none" stroke="#63b8ff" d="M37.28,-116.31C47.52,-111.88 60.74,-106.17 72.94,-100.89"/>
<polygon fill="#63b8ff" stroke="#63b8ff" points="74.11,-104.2 81.9,-97.02 71.33,-97.77 74.11,-104.2"/>
</a>
</g>
</g>
<!-- Node18 -->
<g id="Node000018" class="node">
<title>Node18</title>
<g id="a_Node000018"><a xlink:href="printscan_8cpp.html#ad35c5bba1254c1da8e3817e2a87acdf9" target="_top" xlink:title="Печатает корни из структуры roots_t.">
<polygon fill="white" stroke="#666666" points="340.38,-286 279.38,-286 279.38,-266 340.38,-266 340.38,-286"/>
<text text-anchor="middle" x="309.88" y="-272.5" font-family="Helvetica,sans-Serif" font-size="10.00">printRoots</text>
</a>
</g>
</g>
<!-- Node1&#45;&gt;Node18 -->
<g id="edge25_Node000001_Node000018" class="edge">
<title>Node1&#45;&gt;Node18</title>
<g id="a_edge25_Node000001_Node000018"><a xlink:title=" ">
<path fill="none" stroke="#63b8ff" d="M24.67,-134.24C33.04,-150.01 50.88,-180.44 73,-200 113.3,-235.62 128.67,-240.17 179.75,-257 208.3,-266.41 241.94,-271.17 267.73,-273.57"/>
<polygon fill="#63b8ff" stroke="#63b8ff" points="267.21,-277.04 277.47,-274.39 267.8,-270.06 267.21,-277.04"/>
</a>
</g>
</g>
<!-- Node19 -->
<g id="Node000019" class="node">
<title>Node19</title>
<g id="a_Node000019"><a xlink:href="printscan_8cpp.html#a20a597c5a13b02adc66bf5666fcf9f20" target="_top" xlink:title="Записывает вводимые коэффициенты в структуру coeffs_t, в случае неправильного ввода возвращает 0.">
<polygon fill="white" stroke="#666666" points="140,-58 76.75,-58 76.75,-38 140,-38 140,-58"/>
<text text-anchor="middle" x="108.38" y="-44.5" font-family="Helvetica,sans-Serif" font-size="10.00">scanCoefs</text>
</a>
</g>
</g>
<!-- Node1&#45;&gt;Node19 -->
<g id="edge27_Node000001_Node000019" class="edge">
<title>Node1&#45;&gt;Node19</title>
<g id="a_edge27_Node000001_Node000019"><a xlink:title=" ">
<path fill="none" stroke="#63b8ff" d="M27.39,-113.82C37.17,-101.65 54.79,-81.16 73,-67 74.12,-66.13 75.29,-65.27 76.48,-64.44"/>
<polygon fill="#63b8ff" stroke="#63b8ff" points="78.11,-67.55 84.71,-59.26 74.39,-61.62 78.11,-67.55"/>
</a>
</g>
</g>
<!-- Node20 -->
<g id="Node000020" class="node">
<title>Node20</title>
<g id="a_Node000020"><a xlink:href="argvprocessing_8cpp.html#a0c0b64e31d7a439350b7a29ba42e0886" target="_top" xlink:title="Выставляет начальные значения массива fval.">
<polygon fill="white" stroke="#666666" points="135.12,-20 81.62,-20 81.62,0 135.12,0 135.12,-20"/>
<text text-anchor="middle" x="108.38" y="-6.5" font-family="Helvetica,sans-Serif" font-size="10.00">setFlags</text>
</a>
</g>
</g>
<!-- Node1&#45;&gt;Node20 -->
<g id="edge28_Node000001_Node000020" class="edge">
<title>Node1&#45;&gt;Node20</title>
<g id="a_edge28_Node000001_Node000020"><a xlink:title=" ">
<path fill="none" stroke="#63b8ff" d="M23.13,-113.66C30.19,-94.81 47.33,-54.46 73,-29 73.72,-28.29 74.47,-27.59 75.25,-26.91"/>
<polygon fill="#63b8ff" stroke="#63b8ff" points="77,-29.97 83.08,-21.29 72.92,-24.28 77,-29.97"/>
</a>
</g>
</g>
<!-- Node3 -->
<g id="Node000003" class="node">
<title>Node3</title>
<g id="a_Node000003"><a xlink:href="tests_8cpp.html#af69c2591503f36d530dd5912015e849c" target="_top" xlink:title="Запускает тесты из файла с именем fname, использует freadTests() и runTest()">
<polygon fill="white" stroke="#666666" points="239.62,-248 183.12,-248 183.12,-228 239.62,-228 239.62,-248"/>
<text text-anchor="middle" x="211.38" y="-234.5" font-family="Helvetica,sans-Serif" font-size="10.00">frunTests</text>
</a>
</g>
</g>
<!-- Node2&#45;&gt;Node3 -->
<g id="edge2_Node000002_Node000003" class="edge">
<title>Node2&#45;&gt;Node3</title>
<g id="a_edge2_Node000002_Node000003"><a xlink:title=" ">
<path fill="none" stroke="#63b8ff" d="M127.9,-191.45C143.13,-200.05 164.96,-212.37 182.34,-222.18"/>
<polygon fill="#63b8ff" stroke="#63b8ff" points="180.22,-225 190.65,-226.87 183.66,-218.9 180.22,-225"/>
</a>
</g>
</g>
<!-- Node14 -->
<g id="Node000014" class="node">
<title>Node14</title>
<g id="a_Node000014"><a xlink:href="argvprocessing_8cpp.html#a0d20b69b0ad703df78459e1033d5c1d4" target="_top" xlink:title="Печатает –help, берет данные из args, определенной в argvprocessing.cpp.">
<polygon fill="white" stroke="#666666" points="238.88,-172 183.88,-172 183.88,-152 238.88,-152 238.88,-172"/>
<text text-anchor="middle" x="211.38" y="-158.5" font-family="Helvetica,sans-Serif" font-size="10.00">printHelp</text>
</a>
</g>
</g>
<!-- Node2&#45;&gt;Node14 -->
<g id="edge20_Node000002_Node000014" class="edge">
<title>Node2&#45;&gt;Node14</title>
<g id="a_edge20_Node000002_Node000014"><a xlink:title=" ">
<path fill="none" stroke="#63b8ff" d="M143.01,-174.67C152.49,-172.89 162.88,-170.94 172.59,-169.11"/>
<polygon fill="#63b8ff" stroke="#63b8ff" points="172.92,-172.61 182.1,-167.32 171.63,-165.73 172.92,-172.61"/>
</a>
</g>
</g>
<!-- Node15 -->
<g id="Node000015" class="node">
<title>Node15</title>
<g id="a_Node000015"><a xlink:href="col_printf_8cpp.html#a2950e5e4fbfcf6bd7639471dd355f359" target="_top" xlink:title="Функция, выставляющая значение colFlag.">
<polygon fill="white" stroke="#666666" points="243,-210 179.75,-210 179.75,-190 243,-190 243,-210"/>
<text text-anchor="middle" x="211.38" y="-196.5" font-family="Helvetica,sans-Serif" font-size="10.00">setColFlag</text>
</a>
</g>
</g>
<!-- Node2&#45;&gt;Node15 -->
<g id="edge21_Node000002_Node000015" class="edge">
<title>Node2&#45;&gt;Node15</title>
<g id="a_edge21_Node000002_Node000015"><a xlink:title=" ">
<path fill="none" stroke="#63b8ff" d="M143.01,-187.33C151.05,-188.84 159.75,-190.48 168.13,-192.05"/>
<polygon fill="#63b8ff" stroke="#63b8ff" points="167.32,-195.46 177.79,-193.87 168.61,-188.58 167.32,-195.46"/>
</a>
</g>
</g>
<!-- Node3&#45;&gt;Node4 -->
<g id="edge3_Node000003_Node000004" class="edge">
<title>Node3&#45;&gt;Node4</title>
<g id="a_edge3_Node000003_Node000004"><a xlink:title=" ">
<path fill="none" stroke="#63b8ff" d="M239.88,-228.3C251.75,-224.6 265.9,-220.83 279,-219 306.18,-215.2 313.61,-214.9 340.75,-219 349.09,-220.26 357.86,-222.44 366.08,-224.87"/>
<polygon fill="#63b8ff" stroke="#63b8ff" points="364.81,-228.14 375.4,-227.84 366.93,-221.47 364.81,-228.14"/>
</a>
</g>
</g>
<!-- Node5 -->
<g id="Node000005" class="node">
<title>Node5</title>
<g id="a_Node000005"><a xlink:href="tests_8cpp.html#a9431305e7a02dad28707814742a00be3" target="_top" xlink:title="Читает тесты из файла fname в массив testp.">
<polygon fill="white" stroke="#666666" points="340.75,-248 279,-248 279,-228 340.75,-228 340.75,-248"/>
<text text-anchor="middle" x="309.88" y="-234.5" font-family="Helvetica,sans-Serif" font-size="10.00">freadTests</text>
</a>
</g>
</g>
<!-- Node3&#45;&gt;Node5 -->
<g id="edge4_Node000003_Node000005" class="edge">
<title>Node3&#45;&gt;Node5</title>
<g id="a_edge4_Node000003_Node000005"><a xlink:title=" ">
<path fill="none" stroke="#63b8ff" d="M240.03,-238C248.49,-238 257.98,-238 267.16,-238"/>
<polygon fill="#63b8ff" stroke="#63b8ff" points="267,-241.5 277,-238 267,-234.5 267,-241.5"/>
</a>
</g>
</g>
<!-- Node6 -->
<g id="Node000006" class="node">
<title>Node6</title>
<g id="a_Node000006"><a xlink:href="tests_8cpp.html#a34f5261dce77501b22f450100be01a66" target="_top" xlink:title="Тестирует функцию sqSolve, используя данные из test.">
<polygon fill="white" stroke="#666666" points="334,-172 285.75,-172 285.75,-152 334,-152 334,-172"/>
<text text-anchor="middle" x="309.88" y="-158.5" font-family="Helvetica,sans-Serif" font-size="10.00">runTest</text>
</a>
</g>
</g>
<!-- Node3&#45;&gt;Node6 -->
<g id="edge6_Node000003_Node000006" class="edge">
<title>Node3&#45;&gt;Node6</title>
<g id="a_edge6_Node000003_Node000006"><a xlink:title=" ">
<path fill="none" stroke="#63b8ff" d="M230.24,-227.69C234.52,-225.01 239.01,-222.02 243,-219 260.3,-205.89 262.53,-200.14 279,-186 281.51,-183.85 284.17,-181.63 286.83,-179.44"/>
<polygon fill="#63b8ff" stroke="#63b8ff" points="288.88,-182.29 294.46,-173.28 284.48,-176.84 288.88,-182.29"/>
</a>
</g>
</g>
<!-- Node5&#45;&gt;Node4 -->
<g id="edge5_Node000005_Node000004" class="edge">
<title>Node5&#45;&gt;Node4</title>
<g id="a_edge5_Node000005_Node000004"><a xlink:title=" ">
<path fill="none" stroke="#63b8ff" d="M341.01,-238C348.82,-238 357.32,-238 365.43,-238"/>
<polygon fill="#63b8ff" stroke="#63b8ff" points="365.39,-241.5 375.39,-238 365.39,-234.5 365.39,-241.5"/>
</a>
</g>
</g>
<!-- Node6&#45;&gt;Node4 -->
<g id="edge7_Node000006_Node000004" class="edge">
<title>Node6&#45;&gt;Node4</title>
<g id="a_edge7_Node000006_Node000004"><a xlink:title=" ">
<path fill="none" stroke="#63b8ff" d="M324.02,-172.44C329.25,-176.63 335.31,-181.51 340.75,-186 354.35,-197.22 369.46,-210.02 381.29,-220.11"/>
<polygon fill="#63b8ff" stroke="#63b8ff" points="378.95,-222.72 388.83,-226.56 383.5,-217.4 378.95,-222.72"/>
</a>
</g>
</g>
<!-- Node7 -->
<g id="Node000007" class="node">
<title>Node7</title>
<g id="a_Node000007"><a xlink:href="sqmath_8cpp.html#a32aa402e7aab2e7758805135f862bc73" target="_top" xlink:title="С погрешностью EPSILON сравнивает корни типа roots_t.">
<polygon fill="white" stroke="#666666" points="429.5,-191 376.75,-191 376.75,-171 429.5,-171 429.5,-191"/>
<text text-anchor="middle" x="403.12" y="-177.5" font-family="Helvetica,sans-Serif" font-size="10.00">eqRoots</text>
</a>
</g>
</g>
<!-- Node6&#45;&gt;Node7 -->
<g id="edge8_Node000006_Node000007" class="edge">
<title>Node6&#45;&gt;Node7</title>
<g id="a_edge8_Node000006_Node000007"><a xlink:title=" ">
<path fill="none" stroke="#63b8ff" d="M334.37,-166.89C343.84,-168.86 354.97,-171.18 365.45,-173.36"/>
<polygon fill="#63b8ff" stroke="#63b8ff" points="364.47,-176.74 374.98,-175.35 365.9,-169.88 364.47,-176.74"/>
</a>
</g>
</g>
<!-- Node6&#45;&gt;Node10 -->
<g id="edge11_Node000006_Node000010" class="edge">
<title>Node6&#45;&gt;Node10</title>
<g id="a_edge11_Node000006_Node000010"><a xlink:title=" ">
<path fill="none" stroke="#63b8ff" d="M334.37,-152.21C344.2,-148.12 355.82,-143.28 366.65,-138.77"/>
<polygon fill="#63b8ff" stroke="#63b8ff" points="367.82,-142.08 375.71,-135 365.13,-135.61 367.82,-142.08"/>
</a>
</g>
</g>
<!-- Node8 -->
<g id="Node000008" class="node">
<title>Node8</title>
<g id="a_Node000008"><a xlink:href="sqmath_8cpp.html#afc2fd18b983db1a6b8530aa3fb24da1e" target="_top" xlink:title="С погрешностью EPSILON сравнивает 2 числа типа double.">
<polygon fill="white" stroke="#666666" points="596.5,-210 552,-210 552,-190 596.5,-190 596.5,-210"/>
<text text-anchor="middle" x="574.25" y="-196.5" font-family="Helvetica,sans-Serif" font-size="10.00">equals</text>
</a>
</g>
</g>
<!-- Node7&#45;&gt;Node8 -->
<g id="edge9_Node000007_Node000008" class="edge">
<title>Node7&#45;&gt;Node8</title>
<g id="a_edge9_Node000007_Node000008"><a xlink:title=" ">
<path fill="none" stroke="#63b8ff" d="M429.81,-183.89C459.44,-187.21 508.21,-192.69 540.53,-196.32"/>
<polygon fill="#63b8ff" stroke="#63b8ff" points="539.79,-199.76 550.12,-197.4 540.58,-192.81 539.79,-199.76"/>
</a>
</g>
</g>
<!-- Node9 -->
<g id="Node000009" class="node">
<title>Node9</title>
<g id="a_Node000009"><a xlink:href="myisfinite_8cpp.html#afd2bf05e56bb7a125c4fe3587f897deb" target="_top" xlink:title="Буквально isfinite, только мой &#45; если число не NAN, INF, &#45;INF, возвращает 1.">
<polygon fill="white" stroke="#666666" points="690.5,-134 632.5,-134 632.5,-114 690.5,-114 690.5,-134"/>
<text text-anchor="middle" x="661.5" y="-120.5" font-family="Helvetica,sans-Serif" font-size="10.00">myisfinite</text>
</a>
</g>
</g>
<!-- Node8&#45;&gt;Node9 -->
<g id="edge10_Node000008_Node000009" class="edge">
<title>Node8&#45;&gt;Node9</title>
<g id="a_edge10_Node000008_Node000009"><a xlink:title=" ">
<path fill="none" stroke="#63b8ff" d="M586.75,-189.75C600.48,-177.51 623.68,-156.83 640.39,-141.92"/>
<polygon fill="#63b8ff" stroke="#63b8ff" points="642.65,-144.6 647.78,-135.34 637.99,-139.38 642.65,-144.6"/>
</a>
</g>
</g>
<!-- Node10&#45;&gt;Node9 -->
<g id="edge19_Node000010_Node000009" class="edge">
<title>Node10&#45;&gt;Node9</title>
<g id="a_edge19_Node000010_Node000009"><a xlink:title=" ">
<path fill="none" stroke="#63b8ff" d="M429.11,-133.6C440.09,-137.33 453.26,-141.15 465.5,-143 519.11,-151.11 581.55,-141.75 621.05,-133.54"/>
<polygon fill="#63b8ff" stroke="#63b8ff" points="621.78,-136.96 630.81,-131.42 620.3,-130.12 621.78,-136.96"/>
</a>
</g>
</g>
<!-- Node11 -->
<g id="Node000011" class="node">
<title>Node11</title>
<g id="a_Node000011"><a xlink:href="sqmath_8cpp.html#a99cf170491e6e4c4facc3321b9efeb22" target="_top" xlink:title="Считает дискриминант, используя коэффициенты из структуры типа coeffs_t.">
<polygon fill="white" stroke="#666666" points="509.25,-58 472.25,-58 472.25,-38 509.25,-38 509.25,-58"/>
<text text-anchor="middle" x="490.75" y="-44.5" font-family="Helvetica,sans-Serif" font-size="10.00">discr</text>
</a>
</g>
</g>
<!-- Node10&#45;&gt;Node11 -->
<g id="edge12_Node000010_Node000011" class="edge">
<title>Node10&#45;&gt;Node11</title>
<g id="a_edge12_Node000010_Node000011"><a xlink:title=" ">
<path fill="none" stroke="#63b8ff" d="M415.67,-113.75C429.46,-101.51 452.76,-80.83 469.55,-65.92"/>
<polygon fill="#63b8ff" stroke="#63b8ff" points="471.82,-68.59 476.98,-59.33 467.18,-63.36 471.82,-68.59"/>
</a>
</g>
</g>
<!-- Node12 -->
<g id="Node000012" class="node">
<title>Node12</title>
<g id="a_Node000012"><a xlink:href="sqmath_8cpp.html#a72f9e3f1ac3e22071bdcdd823010b63b" target="_top" xlink:title="Приближенно сравнивает a с 0. Погрешность определяется константой EPSILON.">
<polygon fill="white" stroke="#666666" points="595.75,-96 552.75,-96 552.75,-76 595.75,-76 595.75,-96"/>
<text text-anchor="middle" x="574.25" y="-82.5" font-family="Helvetica,sans-Serif" font-size="10.00">isZero</text>
</a>
</g>
</g>
<!-- Node10&#45;&gt;Node12 -->
<g id="edge14_Node000010_Node000012" class="edge">
<title>Node10&#45;&gt;Node12</title>
<g id="a_edge14_Node000010_Node000012"><a xlink:title=" ">
<path fill="none" stroke="#63b8ff" d="M429.01,-115.52C440.09,-111.94 453.36,-107.94 465.5,-105 490.74,-98.89 519.74,-93.89 541.3,-90.56"/>
<polygon fill="#63b8ff" stroke="#63b8ff" points="541.57,-94.05 550.94,-89.1 540.53,-87.13 541.57,-94.05"/>
</a>
</g>
</g>
<!-- Node13 -->
<g id="Node000013" class="node">
<title>Node13</title>
<g id="a_Node000013"><a xlink:href="sqmath_8cpp.html#aadb30e038879ab02aee3f881974ed8fc" target="_top" xlink:title="Решает линейное уравнение вида bx + c = 0.">
<polygon fill="white" stroke="#666666" points="516,-134 465.5,-134 465.5,-114 516,-114 516,-134"/>
<text text-anchor="middle" x="490.75" y="-120.5" font-family="Helvetica,sans-Serif" font-size="10.00">linSolve</text>
</a>
</g>
</g>
<!-- Node10&#45;&gt;Node13 -->
<g id="edge16_Node000010_Node000013" class="edge">
<title>Node10&#45;&gt;Node13</title>
<g id="a_edge16_Node000010_Node000013"><a xlink:title=" ">
<path fill="none" stroke="#63b8ff" d="M428.89,-124C436.61,-124 445.29,-124 453.63,-124"/>
<polygon fill="#63b8ff" stroke="#63b8ff" points="453.53,-127.5 463.53,-124 453.53,-120.5 453.53,-127.5"/>
</a>
</g>
</g>
<!-- Node11&#45;&gt;Node9 -->
<g id="edge13_Node000011_Node000009" class="edge">
<title>Node11&#45;&gt;Node9</title>
<g id="a_edge13_Node000011_Node000009"><a xlink:title=" ">
<path fill="none" stroke="#63b8ff" d="M509.71,-48.33C531.33,-49.37 568.26,-53.23 596.5,-67 615.23,-76.13 632.61,-92.32 644.52,-105.12"/>
<polygon fill="#63b8ff" stroke="#63b8ff" points="641.89,-107.43 651.16,-112.56 647.12,-102.77 641.89,-107.43"/>
</a>
</g>
</g>
<!-- Node12&#45;&gt;Node9 -->
<g id="edge15_Node000012_Node000009" class="edge">
<title>Node12&#45;&gt;Node9</title>
<g id="a_edge15_Node000012_Node000009"><a xlink:title=" ">
<path fill="none" stroke="#63b8ff" d="M595.89,-95.2C605.1,-99.31 616.21,-104.26 626.59,-108.89"/>
<polygon fill="#63b8ff" stroke="#63b8ff" points="625.1,-112.05 635.66,-112.93 627.95,-105.66 625.1,-112.05"/>
</a>
</g>
</g>
<!-- Node13&#45;&gt;Node9 -->
<g id="edge18_Node000013_Node000009" class="edge">
<title>Node13&#45;&gt;Node9</title>
<g id="a_edge18_Node000013_Node000009"><a xlink:title=" ">
<path fill="none" stroke="#63b8ff" d="M516.29,-124C543.72,-124 588.55,-124 620.95,-124"/>
<polygon fill="#63b8ff" stroke="#63b8ff" points="620.76,-127.5 630.76,-124 620.76,-120.5 620.76,-127.5"/>
</a>
</g>
</g>
<!-- Node13&#45;&gt;Node12 -->
<g id="edge17_Node000013_Node000012" class="edge">
<title>Node13&#45;&gt;Node12</title>
<g id="a_edge17_Node000013_Node000012"><a xlink:title=" ">
<path fill="none" stroke="#63b8ff" d="M514.02,-113.62C522.72,-109.56 532.84,-104.84 542.23,-100.46"/>
<polygon fill="#63b8ff" stroke="#63b8ff" points="543.45,-103.76 551.04,-96.36 540.49,-97.41 543.45,-103.76"/>
</a>
</g>
</g>
<!-- Node17 -->
<g id="Node000017" class="node">
<title>Node17</title>
<g id="a_Node000017"><a xlink:href="argvprocessing_8cpp.html#a739ab2331ecfd04a50b155985e62aa3d" target="_top" xlink:title="Заполняет значение флага fvals.">
<polygon fill="white" stroke="#666666" points="233.62,-96 189.12,-96 189.12,-76 233.62,-76 233.62,-96"/>
<text text-anchor="middle" x="211.38" y="-82.5" font-family="Helvetica,sans-Serif" font-size="10.00">fillFval</text>
</a>
</g>
</g>
<!-- Node16&#45;&gt;Node17 -->
<g id="edge23_Node000016_Node000017" class="edge">
<title>Node16&#45;&gt;Node17</title>
<g id="a_edge23_Node000016_Node000017"><a xlink:title=" ">
<path fill="none" stroke="#63b8ff" d="M144.13,-86C154.91,-86 166.76,-86 177.41,-86"/>
<polygon fill="#63b8ff" stroke="#63b8ff" points="177.3,-89.5 187.3,-86 177.3,-82.5 177.3,-89.5"/>
</a>
</g>
</g>
<!-- Node18&#45;&gt;Node4 -->
<g id="edge26_Node000018_Node000004" class="edge">
<title>Node18&#45;&gt;Node4</title>
<g id="a_edge26_Node000018_Node000004"><a xlink:title=" ">
<path fill="none" stroke="#63b8ff" d="M335.81,-265.62C345.37,-261.64 356.46,-257.02 366.8,-252.71"/>
<polygon fill="#63b8ff" stroke="#63b8ff" points="367.94,-256.03 375.82,-248.95 365.25,-249.57 367.94,-256.03"/>
</a>
</g>
</g>
</g>
</svg>
