<?xml version="1.0" encoding="UTF-8" standalone="no"?>
<!DOCTYPE svg PUBLIC "-//W3C//DTD SVG 1.1//EN"
 "http://www.w3.org/Graphics/SVG/1.1/DTD/svg11.dtd">
<!-- Generated by graphviz version 12.1.0 (20240811.2233)
 -->
<!-- Title: D:/Cprojects/square_solver_git/squareSolver/sources/main.cpp Pages: 1 -->
<svg width="882pt" height="164pt"
 viewBox="0.00 0.00 881.75 164.00" xmlns="http://www.w3.org/2000/svg" xmlns:xlink="http://www.w3.org/1999/xlink">
<g id="graph0" class="graph" transform="scale(1 1) rotate(0) translate(4 160)">
<title>D:/Cprojects/square_solver_git/squareSolver/sources/main.cpp</title>
<!-- Node1 -->
<g id="Node000001" class="node">
<title>Node1</title>
<g id="a_Node000001"><a xlink:title=" ">
<polygon fill="#999999" stroke="#666666" points="442.25,-156 319,-156 319,-112 442.25,-112 442.25,-156"/>
<text text-anchor="start" x="327" y="-142.5" font-family="Helvetica,sans-Serif" font-size="10.00">D:/Cprojects/square</text>
<text text-anchor="start" x="327" y="-130.5" font-family="Helvetica,sans-Serif" font-size="10.00">_solver_git/squareSolver</text>
<text text-anchor="middle" x="380.62" y="-118.5" font-family="Helvetica,sans-Serif" font-size="10.00">/sources/main.cpp</text>
</a>
</g>
</g>
<!-- Node2 -->
<g id="Node000002" class="node">
<title>Node2</title>
<g id="a_Node000002"><a xlink:title=" ">
<polygon fill="#e0e0e0" stroke="#999999" points="45.25,-76 0,-76 0,-56 45.25,-56 45.25,-76"/>
<text text-anchor="middle" x="22.62" y="-62.5" font-family="Helvetica,sans-Serif" font-size="10.00">stdio.h</text>
</a>
</g>
</g>
<!-- Node1&#45;&gt;Node2 -->
<g id="edge1_Node000001_Node000002" class="edge">
<title>Node1&#45;&gt;Node2</title>
<g id="a_edge1_Node000001_Node000002"><a xlink:title=" ">
<path fill="none" stroke="#63b8ff" d="M318.67,-124.08C255.25,-114.51 153.69,-98.02 56.8,-76.3"/>
<polygon fill="#63b8ff" stroke="#63b8ff" points="57.63,-72.9 47.1,-74.1 56.08,-79.73 57.63,-72.9"/>
</a>
</g>
</g>
<!-- Node3 -->
<g id="Node000003" class="node">
<title>Node3</title>
<g id="a_Node000003"><a xlink:title=" ">
<polygon fill="#e0e0e0" stroke="#999999" points="109.62,-76 63.62,-76 63.62,-56 109.62,-56 109.62,-76"/>
<text text-anchor="middle" x="86.62" y="-62.5" font-family="Helvetica,sans-Serif" font-size="10.00">math.h</text>
</a>
</g>
</g>
<!-- Node1&#45;&gt;Node3 -->
<g id="edge2_Node000001_Node000003" class="edge">
<title>Node1&#45;&gt;Node3</title>
<g id="a_edge2_Node000001_Node000003"><a xlink:title=" ">
<path fill="none" stroke="#63b8ff" d="M318.75,-119.65C266.64,-108.31 190.17,-91.47 123.62,-76 122.8,-75.81 121.97,-75.61 121.14,-75.42"/>
<polygon fill="#63b8ff" stroke="#63b8ff" points="122.11,-72.05 111.57,-73.14 120.48,-78.86 122.11,-72.05"/>
</a>
</g>
</g>
<!-- Node4 -->
<g id="Node000004" class="node">
<title>Node4</title>
<g id="a_Node000004"><a xlink:title=" ">
<polygon fill="#e0e0e0" stroke="#999999" points="164.38,-20 116.88,-20 116.88,0 164.38,0 164.38,-20"/>
<text text-anchor="middle" x="140.62" y="-6.5" font-family="Helvetica,sans-Serif" font-size="10.00">stdlib.h</text>
</a>
</g>
</g>
<!-- Node1&#45;&gt;Node4 -->
<g id="edge3_Node000001_Node000004" class="edge">
<title>Node1&#45;&gt;Node4</title>
<g id="a_edge3_Node000001_Node000004"><a xlink:title=" ">
<path fill="none" stroke="#63b8ff" d="M318.74,-124.49C260.57,-115.25 179.17,-98.72 156.62,-76 145.1,-64.39 141.41,-45.89 140.43,-31.6"/>
<polygon fill="#63b8ff" stroke="#63b8ff" points="143.94,-31.81 140.17,-21.9 136.94,-31.99 143.94,-31.81"/>
</a>
</g>
</g>
<!-- Node5 -->
<g id="Node000005" class="node">
<title>Node5</title>
<g id="a_Node000005"><a xlink:title=" ">
<polygon fill="#e0e0e0" stroke="#999999" points="371.75,-76 323.5,-76 323.5,-56 371.75,-56 371.75,-76"/>
<text text-anchor="middle" x="347.62" y="-62.5" font-family="Helvetica,sans-Serif" font-size="10.00">string.h</text>
</a>
</g>
</g>
<!-- Node1&#45;&gt;Node5 -->
<g id="edge4_Node000001_Node000005" class="edge">
<title>Node1&#45;&gt;Node5</title>
<g id="a_edge4_Node000001_Node000005"><a xlink:title=" ">
<path fill="none" stroke="#63b8ff" d="M370,-111.75C365.96,-103.66 361.37,-94.48 357.4,-86.55"/>
<polygon fill="#63b8ff" stroke="#63b8ff" points="360.61,-85.15 353.01,-77.77 354.35,-88.28 360.61,-85.15"/>
</a>
</g>
</g>
<!-- Node6 -->
<g id="Node000006" class="node">
<title>Node6</title>
<g id="a_Node000006"><a xlink:title=" ">
<polygon fill="#e0e0e0" stroke="#999999" points="437.75,-76 389.5,-76 389.5,-56 437.75,-56 437.75,-76"/>
<text text-anchor="middle" x="413.62" y="-62.5" font-family="Helvetica,sans-Serif" font-size="10.00">ctype.h</text>
</a>
</g>
</g>
<!-- Node1&#45;&gt;Node6 -->
<g id="edge5_Node000001_Node000006" class="edge">
<title>Node1&#45;&gt;Node6</title>
<g id="a_edge5_Node000001_Node000006"><a xlink:title=" ">
<path fill="none" stroke="#63b8ff" d="M391.25,-111.75C395.29,-103.66 399.88,-94.48 403.85,-86.55"/>
<polygon fill="#63b8ff" stroke="#63b8ff" points="406.9,-88.28 408.24,-77.77 400.64,-85.15 406.9,-88.28"/>
</a>
</g>
</g>
<!-- Node7 -->
<g id="Node000007" class="node">
<title>Node7</title>
<g id="a_Node000007"><a xlink:title=" ">
<polygon fill="#e0e0e0" stroke="#999999" points="507.25,-76 456,-76 456,-56 507.25,-56 507.25,-76"/>
<text text-anchor="middle" x="481.62" y="-62.5" font-family="Helvetica,sans-Serif" font-size="10.00">stdarg.h</text>
</a>
</g>
</g>
<!-- Node1&#45;&gt;Node7 -->
<g id="edge6_Node000001_Node000007" class="edge">
<title>Node1&#45;&gt;Node7</title>
<g id="a_edge6_Node000001_Node000007"><a xlink:title=" ">
<path fill="none" stroke="#63b8ff" d="M413.42,-111.57C427.92,-102.09 444.66,-91.16 457.92,-82.49"/>
<polygon fill="#63b8ff" stroke="#63b8ff" points="459.57,-85.59 466.03,-77.19 455.74,-79.73 459.57,-85.59"/>
</a>
</g>
</g>
<!-- Node8 -->
<g id="Node000008" class="node">
<title>Node8</title>
<g id="a_Node000008"><a xlink:href="colors_8h.html" target="_top" xlink:title=" ">
<polygon fill="white" stroke="#666666" points="236.88,-20 186.38,-20 186.38,0 236.88,0 236.88,-20"/>
<text text-anchor="middle" x="211.62" y="-6.5" font-family="Helvetica,sans-Serif" font-size="10.00">colors.h</text>
</a>
</g>
</g>
<!-- Node1&#45;&gt;Node8 -->
<g id="edge7_Node000001_Node000008" class="edge">
<title>Node1&#45;&gt;Node8</title>
<g id="a_edge7_Node000001_Node000008"><a xlink:title=" ">
<path fill="none" stroke="#63b8ff" d="M349.3,-111.6C333.94,-101.01 315.22,-87.96 298.62,-76 275.91,-59.63 250.27,-40.38 232.75,-27.1"/>
<polygon fill="#63b8ff" stroke="#63b8ff" points="235.2,-24.57 225.12,-21.31 230.97,-30.14 235.2,-24.57"/>
</a>
</g>
</g>
<!-- Node9 -->
<g id="Node000009" class="node">
<title>Node9</title>
<g id="a_Node000009"><a xlink:href="printscan_8h.html" target="_top" xlink:title=" ">
<polygon fill="white" stroke="#666666" points="589.62,-76 525.62,-76 525.62,-56 589.62,-56 589.62,-76"/>
<text text-anchor="middle" x="557.62" y="-62.5" font-family="Helvetica,sans-Serif" font-size="10.00">printscan.h</text>
</a>
</g>
</g>
<!-- Node1&#45;&gt;Node9 -->
<g id="edge8_Node000001_Node000009" class="edge">
<title>Node1&#45;&gt;Node9</title>
<g id="a_edge8_Node000001_Node000009"><a xlink:title=" ">
<path fill="none" stroke="#63b8ff" d="M438.09,-111.57C465.63,-101.3 497.76,-89.32 521.76,-80.37"/>
<polygon fill="#63b8ff" stroke="#63b8ff" points="522.94,-83.67 531.09,-76.89 520.5,-77.11 522.94,-83.67"/>
</a>
</g>
</g>
<!-- Node10 -->
<g id="Node000010" class="node">
<title>Node10</title>
<g id="a_Node000010"><a xlink:href="sqmath_8h.html" target="_top" xlink:title=" ">
<polygon fill="white" stroke="#666666" points="663.88,-76 607.38,-76 607.38,-56 663.88,-56 663.88,-76"/>
<text text-anchor="middle" x="635.62" y="-62.5" font-family="Helvetica,sans-Serif" font-size="10.00">sqmath.h</text>
</a>
</g>
</g>
<!-- Node1&#45;&gt;Node10 -->
<g id="edge9_Node000001_Node000010" class="edge">
<title>Node1&#45;&gt;Node10</title>
<g id="a_edge9_Node000001_Node000010"><a xlink:title=" ">
<path fill="none" stroke="#63b8ff" d="M442.68,-116.94C490.52,-104.56 555.22,-87.81 596.19,-77.21"/>
<polygon fill="#63b8ff" stroke="#63b8ff" points="596.82,-80.66 605.62,-74.77 595.06,-73.88 596.82,-80.66"/>
</a>
</g>
</g>
<!-- Node11 -->
<g id="Node000011" class="node">
<title>Node11</title>
<g id="a_Node000011"><a xlink:href="consts_8h.html" target="_top" xlink:title=" ">
<polygon fill="white" stroke="#666666" points="743.38,-20 689.88,-20 689.88,0 743.38,0 743.38,-20"/>
<text text-anchor="middle" x="716.62" y="-6.5" font-family="Helvetica,sans-Serif" font-size="10.00">consts.h</text>
</a>
</g>
</g>
<!-- Node1&#45;&gt;Node11 -->
<g id="edge10_Node000001_Node000011" class="edge">
<title>Node1&#45;&gt;Node11</title>
<g id="a_edge10_Node000001_Node000011"><a xlink:title=" ">
<path fill="none" stroke="#63b8ff" d="M442.66,-126.49C516.84,-117.76 635.63,-100.47 672.62,-76 689.29,-64.98 701.3,-45.26 708.52,-30.42"/>
<polygon fill="#63b8ff" stroke="#63b8ff" points="711.56,-32.19 712.48,-21.63 705.18,-29.31 711.56,-32.19"/>
</a>
</g>
</g>
<!-- Node12 -->
<g id="Node000012" class="node">
<title>Node12</title>
<g id="a_Node000012"><a xlink:href="tests_8h.html" target="_top" xlink:title=" ">
<polygon fill="white" stroke="#666666" points="765.62,-76 719.62,-76 719.62,-56 765.62,-56 765.62,-76"/>
<text text-anchor="middle" x="742.62" y="-62.5" font-family="Helvetica,sans-Serif" font-size="10.00">tests.h</text>
</a>
</g>
</g>
<!-- Node1&#45;&gt;Node12 -->
<g id="edge11_Node000001_Node000012" class="edge">
<title>Node1&#45;&gt;Node12</title>
<g id="a_edge11_Node000001_Node000012"><a xlink:title=" ">
<path fill="none" stroke="#63b8ff" d="M442.55,-123.37C508.12,-112.88 614.51,-95.05 705.62,-76 706.45,-75.83 707.28,-75.65 708.13,-75.47"/>
<polygon fill="#63b8ff" stroke="#63b8ff" points="708.74,-78.92 717.71,-73.28 707.19,-72.09 708.74,-78.92"/>
</a>
</g>
</g>
<!-- Node13 -->
<g id="Node000013" class="node">
<title>Node13</title>
<g id="a_Node000013"><a xlink:href="col_printf_8h.html" target="_top" xlink:title=" ">
<polygon fill="white" stroke="#666666" points="316.75,-20 256.5,-20 256.5,0 316.75,0 316.75,-20"/>
<text text-anchor="middle" x="286.62" y="-6.5" font-family="Helvetica,sans-Serif" font-size="10.00">colPrintf.h</text>
</a>
</g>
</g>
<!-- Node1&#45;&gt;Node13 -->
<g id="edge13_Node000001_Node000013" class="edge">
<title>Node1&#45;&gt;Node13</title>
<g id="a_edge13_Node000001_Node000013"><a xlink:title=" ">
<path fill="none" stroke="#63b8ff" d="M350.32,-111.63C338.04,-101.84 324.47,-89.43 314.62,-76 304.51,-62.2 297.12,-44.19 292.48,-30.63"/>
<polygon fill="#63b8ff" stroke="#63b8ff" points="295.94,-29.97 289.57,-21.51 289.27,-32.1 295.94,-29.97"/>
</a>
</g>
</g>
<!-- Node14 -->
<g id="Node000014" class="node">
<title>Node14</title>
<g id="a_Node000014"><a xlink:href="myassert_8h.html" target="_top" xlink:title=" ">
<polygon fill="white" stroke="#666666" points="230,-76 165.25,-76 165.25,-56 230,-56 230,-76"/>
<text text-anchor="middle" x="197.62" y="-62.5" font-family="Helvetica,sans-Serif" font-size="10.00">myassert.h</text>
</a>
</g>
</g>
<!-- Node1&#45;&gt;Node14 -->
<g id="edge14_Node000001_Node000014" class="edge">
<title>Node1&#45;&gt;Node14</title>
<g id="a_edge14_Node000001_Node000014"><a xlink:title=" ">
<path fill="none" stroke="#63b8ff" d="M321.21,-111.57C292.61,-101.26 259.22,-89.22 234.37,-80.25"/>
<polygon fill="#63b8ff" stroke="#63b8ff" points="235.61,-76.98 225.02,-76.88 233.24,-83.56 235.61,-76.98"/>
</a>
</g>
</g>
<!-- Node15 -->
<g id="Node000015" class="node">
<title>Node15</title>
<g id="a_Node000015"><a xlink:href="argvprocessing_8h.html" target="_top" xlink:title=" ">
<polygon fill="white" stroke="#666666" points="873.75,-76 783.5,-76 783.5,-56 873.75,-56 873.75,-76"/>
<text text-anchor="middle" x="828.62" y="-62.5" font-family="Helvetica,sans-Serif" font-size="10.00">argvprocessing.h</text>
</a>
</g>
</g>
<!-- Node1&#45;&gt;Node15 -->
<g id="edge18_Node000001_Node000015" class="edge">
<title>Node1&#45;&gt;Node15</title>
<g id="a_edge18_Node000001_Node000015"><a xlink:title=" ">
<path fill="none" stroke="#63b8ff" d="M442.45,-124.47C517.81,-113.99 649.34,-95.39 772.17,-76.36"/>
<polygon fill="#63b8ff" stroke="#63b8ff" points="772.42,-79.86 781.77,-74.87 771.35,-72.94 772.42,-79.86"/>
</a>
</g>
</g>
<!-- Node12&#45;&gt;Node11 -->
<g id="edge12_Node000012_Node000011" class="edge">
<title>Node12&#45;&gt;Node11</title>
<g id="a_edge12_Node000012_Node000011"><a xlink:title=" ">
<path fill="none" stroke="#63b8ff" d="M738.1,-55.59C734.78,-48.7 730.16,-39.1 726.05,-30.57"/>
<polygon fill="#63b8ff" stroke="#63b8ff" points="729.25,-29.15 721.76,-21.66 722.94,-32.19 729.25,-29.15"/>
</a>
</g>
</g>
<!-- Node14&#45;&gt;Node4 -->
<g id="edge15_Node000014_Node000004" class="edge">
<title>Node14&#45;&gt;Node4</title>
<g id="a_edge15_Node000014_Node000004"><a xlink:title=" ">
<path fill="none" stroke="#63b8ff" d="M187.7,-55.59C179.69,-48.01 168.21,-37.13 158.59,-28.02"/>
<polygon fill="#63b8ff" stroke="#63b8ff" points="161.21,-25.68 151.54,-21.34 156.39,-30.76 161.21,-25.68"/>
</a>
</g>
</g>
<!-- Node14&#45;&gt;Node8 -->
<g id="edge16_Node000014_Node000008" class="edge">
<title>Node14&#45;&gt;Node8</title>
<g id="a_edge16_Node000014_Node000008"><a xlink:title=" ">
<path fill="none" stroke="#63b8ff" d="M200.06,-55.59C201.79,-48.93 204.17,-39.75 206.33,-31.44"/>
<polygon fill="#63b8ff" stroke="#63b8ff" points="209.71,-32.32 208.83,-21.76 202.94,-30.56 209.71,-32.32"/>
</a>
</g>
</g>
<!-- Node14&#45;&gt;Node13 -->
<g id="edge17_Node000014_Node000013" class="edge">
<title>Node14&#45;&gt;Node13</title>
<g id="a_edge17_Node000014_Node000013"><a xlink:title=" ">
<path fill="none" stroke="#63b8ff" d="M213.13,-55.59C226.45,-47.51 245.9,-35.71 261.45,-26.27"/>
<polygon fill="#63b8ff" stroke="#63b8ff" points="262.97,-29.44 269.71,-21.26 259.34,-23.46 262.97,-29.44"/>
</a>
</g>
</g>
</g>
</svg>
