<?xml version="1.0" encoding="UTF-8" standalone="no"?>
<!DOCTYPE svg PUBLIC "-//W3C//DTD SVG 1.1//EN"
 "http://www.w3.org/Graphics/SVG/1.1/DTD/svg11.dtd">
<!-- Generated by graphviz version 12.1.0 (20240811.2233)
 -->
<!-- Title: D:/Cprojects/square_solver_git/squareSolver/headers/myassert.h Pages: 1 -->
<svg width="854pt" height="132pt"
 viewBox="0.00 0.00 854.25 132.00" xmlns="http://www.w3.org/2000/svg" xmlns:xlink="http://www.w3.org/1999/xlink">
<g id="graph0" class="graph" transform="scale(1 1) rotate(0) translate(4 128)">
<title>D:/Cprojects/square_solver_git/squareSolver/headers/myassert.h</title>
<!-- Node1 -->
<g id="Node000001" class="node">
<title>Node1</title>
<g id="a_Node000001"><a xlink:title=" ">
<polygon fill="#999999" stroke="#666666" points="493.25,-124 370,-124 370,-80 493.25,-80 493.25,-124"/>
<text text-anchor="start" x="378" y="-110.5" font-family="Helvetica,sans-Serif" font-size="10.00">D:/Cprojects/square</text>
<text text-anchor="start" x="378" y="-98.5" font-family="Helvetica,sans-Serif" font-size="10.00">_solver_git/squareSolver</text>
<text text-anchor="middle" x="431.62" y="-86.5" font-family="Helvetica,sans-Serif" font-size="10.00">/headers/myassert.h</text>
</a>
</g>
</g>
<!-- Node2 -->
<g id="Node000002" class="node">
<title>Node2</title>
<g id="a_Node000002"><a xlink:href="argvprocessing_8cpp.html" target="_top" xlink:title=" ">
<polygon fill="white" stroke="#666666" points="141.25,-44 0,-44 0,0 141.25,0 141.25,-44"/>
<text text-anchor="start" x="8" y="-30.5" font-family="Helvetica,sans-Serif" font-size="10.00">D:/Cprojects/square</text>
<text text-anchor="start" x="8" y="-18.5" font-family="Helvetica,sans-Serif" font-size="10.00">_solver_git/squareSolver</text>
<text text-anchor="middle" x="70.62" y="-6.5" font-family="Helvetica,sans-Serif" font-size="10.00">/sources/argvprocessing.cpp</text>
</a>
</g>
</g>
<!-- Node1&#45;&gt;Node2 -->
<g id="edge1_Node000001_Node000002" class="edge">
<title>Node1&#45;&gt;Node2</title>
<g id="a_edge1_Node000001_Node000002"><a xlink:title=" ">
<path fill="none" stroke="#63b8ff" d="M358.42,-87.46C301.34,-76.6 220.19,-60.49 149.62,-44 147,-43.39 144.33,-42.75 141.63,-42.09"/>
<polygon fill="#63b8ff" stroke="#63b8ff" points="357.54,-90.86 368.02,-89.28 358.84,-83.98 357.54,-90.86"/>
</a>
</g>
</g>
<!-- Node3 -->
<g id="Node000003" class="node">
<title>Node3</title>
<g id="a_Node000003"><a xlink:href="col_printf_8cpp.html" target="_top" xlink:title=" ">
<polygon fill="white" stroke="#666666" points="282.25,-44 159,-44 159,0 282.25,0 282.25,-44"/>
<text text-anchor="start" x="167" y="-30.5" font-family="Helvetica,sans-Serif" font-size="10.00">D:/Cprojects/square</text>
<text text-anchor="start" x="167" y="-18.5" font-family="Helvetica,sans-Serif" font-size="10.00">_solver_git/squareSolver</text>
<text text-anchor="middle" x="220.62" y="-6.5" font-family="Helvetica,sans-Serif" font-size="10.00">/sources/colPrintf.cpp</text>
</a>
</g>
</g>
<!-- Node1&#45;&gt;Node3 -->
<g id="edge2_Node000001_Node000003" class="edge">
<title>Node1&#45;&gt;Node3</title>
<g id="a_edge2_Node000001_Node000003"><a xlink:title=" ">
<path fill="none" stroke="#63b8ff" d="M363.03,-75.64C335.7,-65.54 304.59,-54.04 278.43,-44.37"/>
<polygon fill="#63b8ff" stroke="#63b8ff" points="361.68,-78.87 372.27,-79.06 364.1,-72.31 361.68,-78.87"/>
</a>
</g>
</g>
<!-- Node4 -->
<g id="Node000004" class="node">
<title>Node4</title>
<g id="a_Node000004"><a xlink:href="main_8cpp.html" target="_top" xlink:title=" ">
<polygon fill="white" stroke="#666666" points="423.25,-44 300,-44 300,0 423.25,0 423.25,-44"/>
<text text-anchor="start" x="308" y="-30.5" font-family="Helvetica,sans-Serif" font-size="10.00">D:/Cprojects/square</text>
<text text-anchor="start" x="308" y="-18.5" font-family="Helvetica,sans-Serif" font-size="10.00">_solver_git/squareSolver</text>
<text text-anchor="middle" x="361.62" y="-6.5" font-family="Helvetica,sans-Serif" font-size="10.00">/sources/main.cpp</text>
</a>
</g>
</g>
<!-- Node1&#45;&gt;Node4 -->
<g id="edge3_Node000001_Node000004" class="edge">
<title>Node1&#45;&gt;Node4</title>
<g id="a_edge3_Node000001_Node000004"><a xlink:title=" ">
<path fill="none" stroke="#63b8ff" d="M405.01,-71.34C396.93,-62.33 388.21,-52.63 380.73,-44.29"/>
<polygon fill="#63b8ff" stroke="#63b8ff" points="402.2,-73.45 411.49,-78.56 407.41,-68.78 402.2,-73.45"/>
</a>
</g>
</g>
<!-- Node5 -->
<g id="Node000005" class="node">
<title>Node5</title>
<g id="a_Node000005"><a xlink:href="printscan_8cpp.html" target="_top" xlink:title=" ">
<polygon fill="white" stroke="#666666" points="564.25,-44 441,-44 441,0 564.25,0 564.25,-44"/>
<text text-anchor="start" x="449" y="-30.5" font-family="Helvetica,sans-Serif" font-size="10.00">D:/Cprojects/square</text>
<text text-anchor="start" x="449" y="-18.5" font-family="Helvetica,sans-Serif" font-size="10.00">_solver_git/squareSolver</text>
<text text-anchor="middle" x="502.62" y="-6.5" font-family="Helvetica,sans-Serif" font-size="10.00">/sources/printscan.cpp</text>
</a>
</g>
</g>
<!-- Node1&#45;&gt;Node5 -->
<g id="edge4_Node000001_Node000005" class="edge">
<title>Node1&#45;&gt;Node5</title>
<g id="a_edge4_Node000001_Node000005"><a xlink:title=" ">
<path fill="none" stroke="#63b8ff" d="M458.63,-71.34C466.82,-62.33 475.66,-52.63 483.25,-44.29"/>
<polygon fill="#63b8ff" stroke="#63b8ff" points="456.19,-68.82 452.04,-78.57 461.36,-73.53 456.19,-68.82"/>
</a>
</g>
</g>
<!-- Node6 -->
<g id="Node000006" class="node">
<title>Node6</title>
<g id="a_Node000006"><a xlink:href="sqmath_8cpp.html" target="_top" xlink:title=" ">
<polygon fill="white" stroke="#666666" points="705.25,-44 582,-44 582,0 705.25,0 705.25,-44"/>
<text text-anchor="start" x="590" y="-30.5" font-family="Helvetica,sans-Serif" font-size="10.00">D:/Cprojects/square</text>
<text text-anchor="start" x="590" y="-18.5" font-family="Helvetica,sans-Serif" font-size="10.00">_solver_git/squareSolver</text>
<text text-anchor="middle" x="643.62" y="-6.5" font-family="Helvetica,sans-Serif" font-size="10.00">/sources/sqmath.cpp</text>
</a>
</g>
</g>
<!-- Node1&#45;&gt;Node6 -->
<g id="edge5_Node000001_Node000006" class="edge">
<title>Node1&#45;&gt;Node6</title>
<g id="a_edge5_Node000001_Node000006"><a xlink:title=" ">
<path fill="none" stroke="#63b8ff" d="M500.55,-75.64C528.01,-65.54 559.26,-54.04 585.54,-44.37"/>
<polygon fill="#63b8ff" stroke="#63b8ff" points="499.43,-72.32 491.26,-79.06 501.85,-78.89 499.43,-72.32"/>
</a>
</g>
</g>
<!-- Node7 -->
<g id="Node000007" class="node">
<title>Node7</title>
<g id="a_Node000007"><a xlink:href="tests_8cpp.html" target="_top" xlink:title=" ">
<polygon fill="white" stroke="#666666" points="846.25,-44 723,-44 723,0 846.25,0 846.25,-44"/>
<text text-anchor="start" x="731" y="-30.5" font-family="Helvetica,sans-Serif" font-size="10.00">D:/Cprojects/square</text>
<text text-anchor="start" x="731" y="-18.5" font-family="Helvetica,sans-Serif" font-size="10.00">_solver_git/squareSolver</text>
<text text-anchor="middle" x="784.62" y="-6.5" font-family="Helvetica,sans-Serif" font-size="10.00">/sources/tests.cpp</text>
</a>
</g>
</g>
<!-- Node1&#45;&gt;Node7 -->
<g id="edge6_Node000001_Node000007" class="edge">
<title>Node1&#45;&gt;Node7</title>
<g id="a_edge6_Node000001_Node000007"><a xlink:title=" ">
<path fill="none" stroke="#63b8ff" d="M504.69,-88.21C562.08,-77.7 643.86,-61.7 714.62,-44 717.33,-43.32 720.09,-42.61 722.87,-41.86"/>
<polygon fill="#63b8ff" stroke="#63b8ff" points="504.25,-84.73 495.04,-89.97 505.5,-91.62 504.25,-84.73"/>
</a>
</g>
</g>
</g>
</svg>
