<?xml version="1.0" encoding="UTF-8" standalone="no"?>
<!DOCTYPE svg PUBLIC "-//W3C//DTD SVG 1.1//EN"
 "http://www.w3.org/Graphics/SVG/1.1/DTD/svg11.dtd">
<!-- Generated by graphviz version 12.1.0 (20240811.2233)
 -->
<!-- Title: D:/Cprojects/square_solver_git/squareSolver/headers/myassert.h Pages: 1 -->
<svg width="202pt" height="108pt"
 viewBox="0.00 0.00 201.88 108.00" xmlns="http://www.w3.org/2000/svg" xmlns:xlink="http://www.w3.org/1999/xlink">
<g id="graph0" class="graph" transform="scale(1 1) rotate(0) translate(4 104)">
<title>D:/Cprojects/square_solver_git/squareSolver/headers/myassert.h</title>
<!-- Node1 -->
<g id="Node000001" class="node">
<title>Node1</title>
<g id="a_Node000001"><a xlink:title=" ">
<polygon fill="#999999" stroke="#666666" points="152.38,-100 29.12,-100 29.12,-56 152.38,-56 152.38,-100"/>
<text text-anchor="start" x="37.12" y="-86.5" font-family="Helvetica,sans-Serif" font-size="10.00">D:/Cprojects/square</text>
<text text-anchor="start" x="37.12" y="-74.5" font-family="Helvetica,sans-Serif" font-size="10.00">_solver_git/squareSolver</text>
<text text-anchor="middle" x="90.75" y="-62.5" font-family="Helvetica,sans-Serif" font-size="10.00">/headers/myassert.h</text>
</a>
</g>
</g>
<!-- Node2 -->
<g id="Node000002" class="node">
<title>Node2</title>
<g id="a_Node000002"><a xlink:title=" ">
<polygon fill="#e0e0e0" stroke="#999999" points="47.5,-20 0,-20 0,0 47.5,0 47.5,-20"/>
<text text-anchor="middle" x="23.75" y="-6.5" font-family="Helvetica,sans-Serif" font-size="10.00">stdlib.h</text>
</a>
</g>
</g>
<!-- Node1&#45;&gt;Node2 -->
<g id="edge1_Node000001_Node000002" class="edge">
<title>Node1&#45;&gt;Node2</title>
<g id="a_edge1_Node000001_Node000002"><a xlink:title=" ">
<path fill="none" stroke="#63b8ff" d="M69.18,-55.75C60.21,-46.92 49.92,-36.78 41.41,-28.4"/>
<polygon fill="#63b8ff" stroke="#63b8ff" points="43.97,-26.01 34.39,-21.48 39.06,-30.99 43.97,-26.01"/>
</a>
</g>
</g>
<!-- Node3 -->
<g id="Node000003" class="node">
<title>Node3</title>
<g id="a_Node000003"><a xlink:href="colors_8h.html" target="_top" xlink:title=" ">
<polygon fill="white" stroke="#666666" points="116,-20 65.5,-20 65.5,0 116,0 116,-20"/>
<text text-anchor="middle" x="90.75" y="-6.5" font-family="Helvetica,sans-Serif" font-size="10.00">colors.h</text>
</a>
</g>
</g>
<!-- Node1&#45;&gt;Node3 -->
<g id="edge2_Node000001_Node000003" class="edge">
<title>Node1&#45;&gt;Node3</title>
<g id="a_edge2_Node000001_Node000003"><a xlink:title=" ">
<path fill="none" stroke="#63b8ff" d="M90.75,-55.75C90.75,-48.13 90.75,-39.53 90.75,-31.93"/>
<polygon fill="#63b8ff" stroke="#63b8ff" points="94.25,-31.93 90.75,-21.93 87.25,-31.93 94.25,-31.93"/>
</a>
</g>
</g>
<!-- Node4 -->
<g id="Node000004" class="node">
<title>Node4</title>
<g id="a_Node000004"><a xlink:href="col_printf_8h.html" target="_top" xlink:title=" ">
<polygon fill="white" stroke="#666666" points="193.88,-20 133.62,-20 133.62,0 193.88,0 193.88,-20"/>
<text text-anchor="middle" x="163.75" y="-6.5" font-family="Helvetica,sans-Serif" font-size="10.00">colPrintf.h</text>
</a>
</g>
</g>
<!-- Node1&#45;&gt;Node4 -->
<g id="edge3_Node000001_Node000004" class="edge">
<title>Node1&#45;&gt;Node4</title>
<g id="a_edge3_Node000001_Node000004"><a xlink:title=" ">
<path fill="none" stroke="#63b8ff" d="M114.25,-55.75C124.13,-46.82 135.47,-36.57 144.8,-28.13"/>
<polygon fill="#63b8ff" stroke="#63b8ff" points="147.14,-30.74 152.21,-21.43 142.44,-25.54 147.14,-30.74"/>
</a>
</g>
</g>
</g>
</svg>
