<?xml version="1.0" encoding="UTF-8" standalone="no"?>
<!DOCTYPE svg PUBLIC "-//W3C//DTD SVG 1.1//EN"
 "http://www.w3.org/Graphics/SVG/1.1/DTD/svg11.dtd">
<!-- Generated by graphviz version 12.1.0 (20240811.2233)
 -->
<!-- Title: headers/myassert.h Pages: 1 -->
<svg width="748pt" height="84pt"
 viewBox="0.00 0.00 748.12 84.00" xmlns="http://www.w3.org/2000/svg" xmlns:xlink="http://www.w3.org/1999/xlink">
<g id="graph0" class="graph" transform="scale(1 1) rotate(0) translate(4 80)">
<title>headers/myassert.h</title>
<!-- Node1 -->
<g id="Node000001" class="node">
<title>Node1</title>
<g id="a_Node000001"><a xlink:title=" ">
<polygon fill="#999999" stroke="#666666" points="440.25,-76 338,-76 338,-56 440.25,-56 440.25,-76"/>
<text text-anchor="middle" x="389.12" y="-62.5" font-family="Helvetica,sans-Serif" font-size="10.00">headers/myassert.h</text>
</a>
</g>
</g>
<!-- Node2 -->
<g id="Node000002" class="node">
<title>Node2</title>
<g id="a_Node000002"><a xlink:href="argvprocessing_8cpp.html" target="_top" xlink:title=" ">
<polygon fill="white" stroke="#666666" points="138.25,-20 0,-20 0,0 138.25,0 138.25,-20"/>
<text text-anchor="middle" x="69.12" y="-6.5" font-family="Helvetica,sans-Serif" font-size="10.00">sources/argvprocessing.cpp</text>
</a>
</g>
</g>
<!-- Node1&#45;&gt;Node2 -->
<g id="edge1_Node000001_Node000002" class="edge">
<title>Node1&#45;&gt;Node2</title>
<g id="a_edge1_Node000001_Node000002"><a xlink:title=" ">
<path fill="none" stroke="#63b8ff" d="M326.41,-54.42C267.93,-44.55 181.51,-29.96 125.26,-20.47"/>
<polygon fill="#63b8ff" stroke="#63b8ff" points="325.78,-57.86 336.22,-56.07 326.94,-50.96 325.78,-57.86"/>
</a>
</g>
</g>
<!-- Node3 -->
<g id="Node000003" class="node">
<title>Node3</title>
<g id="a_Node000003"><a xlink:href="col_printf_8cpp.html" target="_top" xlink:title=" ">
<polygon fill="white" stroke="#666666" points="264.25,-20 156,-20 156,0 264.25,0 264.25,-20"/>
<text text-anchor="middle" x="210.12" y="-6.5" font-family="Helvetica,sans-Serif" font-size="10.00">sources/colPrintf.cpp</text>
</a>
</g>
</g>
<!-- Node1&#45;&gt;Node3 -->
<g id="edge2_Node000001_Node000003" class="edge">
<title>Node1&#45;&gt;Node3</title>
<g id="a_edge2_Node000001_Node000003"><a xlink:title=" ">
<path fill="none" stroke="#63b8ff" d="M347.04,-52.31C314.74,-42.56 270.84,-29.32 241.55,-20.48"/>
<polygon fill="#63b8ff" stroke="#63b8ff" points="345.91,-55.62 356.5,-55.16 347.93,-48.92 345.91,-55.62"/>
</a>
</g>
</g>
<!-- Node4 -->
<g id="Node000004" class="node">
<title>Node4</title>
<g id="a_Node000004"><a xlink:href="main_8cpp.html" target="_top" xlink:title=" ">
<polygon fill="white" stroke="#666666" points="375.75,-20 282.5,-20 282.5,0 375.75,0 375.75,-20"/>
<text text-anchor="middle" x="329.12" y="-6.5" font-family="Helvetica,sans-Serif" font-size="10.00">sources/main.cpp</text>
</a>
</g>
</g>
<!-- Node1&#45;&gt;Node4 -->
<g id="edge3_Node000001_Node000004" class="edge">
<title>Node1&#45;&gt;Node4</title>
<g id="a_edge3_Node000001_Node000004"><a xlink:title=" ">
<path fill="none" stroke="#63b8ff" d="M370.38,-48.13C360.17,-38.94 347.94,-27.93 339.46,-20.3"/>
<polygon fill="#63b8ff" stroke="#63b8ff" points="367.77,-50.49 377.55,-54.58 372.46,-45.29 367.77,-50.49"/>
</a>
</g>
</g>
<!-- Node5 -->
<g id="Node000005" class="node">
<title>Node5</title>
<g id="a_Node000005"><a xlink:href="printscan_8cpp.html" target="_top" xlink:title=" ">
<polygon fill="white" stroke="#666666" points="506.12,-20 394.12,-20 394.12,0 506.12,0 506.12,-20"/>
<text text-anchor="middle" x="450.12" y="-6.5" font-family="Helvetica,sans-Serif" font-size="10.00">sources/printscan.cpp</text>
</a>
</g>
</g>
<!-- Node1&#45;&gt;Node5 -->
<g id="edge4_Node000001_Node000005" class="edge">
<title>Node1&#45;&gt;Node5</title>
<g id="a_edge4_Node000001_Node000005"><a xlink:title=" ">
<path fill="none" stroke="#63b8ff" d="M408.19,-48.13C418.56,-38.94 431,-27.93 439.62,-20.3"/>
<polygon fill="#63b8ff" stroke="#63b8ff" points="406.05,-45.34 400.88,-54.59 410.69,-50.58 406.05,-45.34"/>
</a>
</g>
</g>
<!-- Node6 -->
<g id="Node000006" class="node">
<title>Node6</title>
<g id="a_Node000006"><a xlink:href="sqmath_8cpp.html" target="_top" xlink:title=" ">
<polygon fill="white" stroke="#666666" points="628.38,-20 523.88,-20 523.88,0 628.38,0 628.38,-20"/>
<text text-anchor="middle" x="576.12" y="-6.5" font-family="Helvetica,sans-Serif" font-size="10.00">sources/sqmath.cpp</text>
</a>
</g>
</g>
<!-- Node1&#45;&gt;Node6 -->
<g id="edge5_Node000001_Node000006" class="edge">
<title>Node1&#45;&gt;Node6</title>
<g id="a_edge5_Node000001_Node000006"><a xlink:title=" ">
<path fill="none" stroke="#63b8ff" d="M432.64,-52.43C466.44,-42.67 512.56,-29.35 543.3,-20.48"/>
<polygon fill="#63b8ff" stroke="#63b8ff" points="431.79,-49.04 423.15,-55.17 433.73,-55.76 431.79,-49.04"/>
</a>
</g>
</g>
<!-- Node7 -->
<g id="Node000007" class="node">
<title>Node7</title>
<g id="a_Node000007"><a xlink:href="tests_8cpp.html" target="_top" xlink:title=" ">
<polygon fill="white" stroke="#666666" points="740.12,-20 646.12,-20 646.12,0 740.12,0 740.12,-20"/>
<text text-anchor="middle" x="693.12" y="-6.5" font-family="Helvetica,sans-Serif" font-size="10.00">sources/tests.cpp</text>
</a>
</g>
</g>
<!-- Node1&#45;&gt;Node7 -->
<g id="edge6_Node000001_Node000007" class="edge">
<title>Node1&#45;&gt;Node7</title>
<g id="a_edge6_Node000001_Node000007"><a xlink:title=" ">
<path fill="none" stroke="#63b8ff" d="M451.85,-53.86C509.48,-43.62 593.64,-28.67 645.81,-19.4"/>
<polygon fill="#63b8ff" stroke="#63b8ff" points="451.42,-50.38 442.18,-55.57 452.64,-57.27 451.42,-50.38"/>
</a>
</g>
</g>
</g>
</svg>
