<?xml version="1.0" encoding="UTF-8" standalone="no"?>
<!DOCTYPE svg PUBLIC "-//W3C//DTD SVG 1.1//EN"
 "http://www.w3.org/Graphics/SVG/1.1/DTD/svg11.dtd">
<!-- Generated by graphviz version 12.1.0 (20240811.2233)
 -->
<!-- Title: myisfinite Pages: 1 -->
<svg width="675pt" height="180pt"
 viewBox="0.00 0.00 674.50 180.00" xmlns="http://www.w3.org/2000/svg" xmlns:xlink="http://www.w3.org/1999/xlink">
<g id="graph0" class="graph" transform="scale(1 1) rotate(0) translate(4 176)">
<title>myisfinite</title>
<!-- Node1 -->
<g id="Node000001" class="node">
<title>Node1</title>
<g id="a_Node000001"><a xlink:title="Буквально isfinite, только мой &#45; если число не NAN, INF, &#45;INF, возвращает 1.">
<polygon fill="#999999" stroke="#666666" points="666.5,-96 608.5,-96 608.5,-76 666.5,-76 666.5,-96"/>
<text text-anchor="middle" x="637.5" y="-82.5" font-family="Helvetica,sans-Serif" font-size="10.00">myisfinite</text>
</a>
</g>
</g>
<!-- Node2 -->
<g id="Node000002" class="node">
<title>Node2</title>
<g id="a_Node000002"><a xlink:href="sqmath_8cpp.html#aabc47b97dff1309b0dba82045778e896" target="_top" xlink:title="Считает дискриминант, используя коэффициенты из структуры типа coeffs_t.">
<polygon fill="white" stroke="#666666" points="569.5,-96 532.5,-96 532.5,-76 569.5,-76 569.5,-96"/>
<text text-anchor="middle" x="551" y="-82.5" font-family="Helvetica,sans-Serif" font-size="10.00">discr</text>
</a>
</g>
</g>
<!-- Node1&#45;&gt;Node2 -->
<g id="edge1_Node000001_Node000002" class="edge">
<title>Node1&#45;&gt;Node2</title>
<g id="a_edge1_Node000001_Node000002"><a xlink:title=" ">
<path fill="none" stroke="#63b8ff" d="M597.02,-86C587.54,-86 577.87,-86 569.94,-86"/>
<polygon fill="#63b8ff" stroke="#63b8ff" points="596.85,-89.5 606.85,-86 596.85,-82.5 596.85,-89.5"/>
</a>
</g>
</g>
<!-- Node3 -->
<g id="Node000003" class="node">
<title>Node3</title>
<g id="a_Node000003"><a xlink:href="sqmath_8cpp.html#a81a063d50a9d1121b1d696f2e0e7e8e7" target="_top" xlink:title="Решает квадратное уравнение вида ax^2 + bx + c = 0. Коэффициенты берет из структуры coeffs_t,...">
<polygon fill="white" stroke="#666666" points="406.25,-96 355,-96 355,-76 406.25,-76 406.25,-96"/>
<text text-anchor="middle" x="380.62" y="-82.5" font-family="Helvetica,sans-Serif" font-size="10.00">sqSolve</text>
</a>
</g>
</g>
<!-- Node1&#45;&gt;Node3 -->
<g id="edge18_Node000001_Node000003" class="edge">
<title>Node1&#45;&gt;Node3</title>
<g id="a_edge18_Node000001_Node000003"><a xlink:title=" ">
<path fill="none" stroke="#63b8ff" d="M597.19,-72.4C589.12,-70.15 580.61,-68.18 572.5,-67 513.34,-58.4 443.3,-71.2 406.73,-79.62"/>
<polygon fill="#63b8ff" stroke="#63b8ff" points="596.19,-75.75 606.77,-75.26 598.19,-69.04 596.19,-75.75"/>
</a>
</g>
</g>
<!-- Node9 -->
<g id="Node000009" class="node">
<title>Node9</title>
<g id="a_Node000009"><a xlink:href="sqmath_8cpp.html#afc2fd18b983db1a6b8530aa3fb24da1e" target="_top" xlink:title="С погрешностью EPSILON сравнивает 2 числа типа double.">
<polygon fill="white" stroke="#666666" points="490.5,-20 446,-20 446,0 490.5,0 490.5,-20"/>
<text text-anchor="middle" x="468.25" y="-6.5" font-family="Helvetica,sans-Serif" font-size="10.00">equals</text>
</a>
</g>
</g>
<!-- Node1&#45;&gt;Node9 -->
<g id="edge9_Node000001_Node000009" class="edge">
<title>Node1&#45;&gt;Node9</title>
<g id="a_edge9_Node000001_Node000009"><a xlink:title=" ">
<path fill="none" stroke="#63b8ff" d="M618.45,-67.54C606.43,-56.26 589.71,-42.43 572.5,-34 546.06,-21.05 512.33,-14.91 490.76,-12.13"/>
<polygon fill="#63b8ff" stroke="#63b8ff" points="615.98,-70.02 625.58,-74.48 620.86,-65 615.98,-70.02"/>
</a>
</g>
</g>
<!-- Node11 -->
<g id="Node000011" class="node">
<title>Node11</title>
<g id="a_Node000011"><a xlink:href="sqmath_8cpp.html#a72f9e3f1ac3e22071bdcdd823010b63b" target="_top" xlink:title="Приближенно сравнивает a с 0. Погрешность определяется константой EPSILON.">
<polygon fill="white" stroke="#666666" points="572.5,-134 529.5,-134 529.5,-114 572.5,-114 572.5,-134"/>
<text text-anchor="middle" x="551" y="-120.5" font-family="Helvetica,sans-Serif" font-size="10.00">isZero</text>
</a>
</g>
</g>
<!-- Node1&#45;&gt;Node11 -->
<g id="edge13_Node000001_Node000011" class="edge">
<title>Node1&#45;&gt;Node11</title>
<g id="a_edge13_Node000001_Node000011"><a xlink:title=" ">
<path fill="none" stroke="#63b8ff" d="M603.11,-101.02C592.86,-105.62 581.89,-110.56 572.75,-114.67"/>
<polygon fill="#63b8ff" stroke="#63b8ff" points="604.34,-104.3 612.03,-97 601.47,-97.91 604.34,-104.3"/>
</a>
</g>
</g>
<!-- Node12 -->
<g id="Node000012" class="node">
<title>Node12</title>
<g id="a_Node000012"><a xlink:href="sqmath_8cpp.html#aadb30e038879ab02aee3f881974ed8fc" target="_top" xlink:title="Решает линейное уравнение вида bx + c = 0.">
<polygon fill="white" stroke="#666666" points="493.5,-172 443,-172 443,-152 493.5,-152 493.5,-172"/>
<text text-anchor="middle" x="468.25" y="-158.5" font-family="Helvetica,sans-Serif" font-size="10.00">linSolve</text>
</a>
</g>
</g>
<!-- Node1&#45;&gt;Node12 -->
<g id="edge17_Node000001_Node000012" class="edge">
<title>Node1&#45;&gt;Node12</title>
<g id="a_edge17_Node000001_Node000012"><a xlink:title=" ">
<path fill="none" stroke="#63b8ff" d="M620.52,-104.86C608.6,-117.66 591.22,-133.85 572.5,-143 547.45,-155.25 515.46,-159.64 493.78,-161.2"/>
<polygon fill="#63b8ff" stroke="#63b8ff" points="623.11,-107.22 627.16,-97.43 617.89,-102.55 623.11,-107.22"/>
</a>
</g>
</g>
<!-- Node2&#45;&gt;Node3 -->
<g id="edge2_Node000002_Node000003" class="edge">
<title>Node2&#45;&gt;Node3</title>
<g id="a_edge2_Node000002_Node000003"><a xlink:title=" ">
<path fill="none" stroke="#63b8ff" d="M520.97,-86C488.74,-86 437.24,-86 406.69,-86"/>
<polygon fill="#63b8ff" stroke="#63b8ff" points="520.79,-89.5 530.79,-86 520.79,-82.5 520.79,-89.5"/>
</a>
</g>
</g>
<!-- Node4 -->
<g id="Node000004" class="node">
<title>Node4</title>
<g id="a_Node000004"><a xlink:href="main_8cpp.html#a0ddf1224851353fc92bfbff6f499fa97" target="_top" xlink:title=" ">
<polygon fill="white" stroke="#666666" points="37,-58 0,-58 0,-38 37,-38 37,-58"/>
<text text-anchor="middle" x="18.5" y="-44.5" font-family="Helvetica,sans-Serif" font-size="10.00">main</text>
</a>
</g>
</g>
<!-- Node3&#45;&gt;Node4 -->
<g id="edge3_Node000003_Node000004" class="edge">
<title>Node3&#45;&gt;Node4</title>
<g id="a_edge3_Node000003_Node000004"><a xlink:title=" ">
<path fill="none" stroke="#63b8ff" d="M343.3,-82.87C302.82,-79.32 235.43,-73.2 177.5,-67 126.68,-61.56 66.8,-54.06 37.49,-50.32"/>
<polygon fill="#63b8ff" stroke="#63b8ff" points="342.94,-86.35 353.2,-83.74 343.54,-79.38 342.94,-86.35"/>
</a>
</g>
</g>
<!-- Node5 -->
<g id="Node000005" class="node">
<title>Node5</title>
<g id="a_Node000005"><a xlink:href="tests_8cpp.html#a4dfedd6bea487396641c51297a35d57b" target="_top" xlink:title="Тестирует функцию sqSolve, используя данные из test.">
<polygon fill="white" stroke="#666666" points="318.25,-58 270,-58 270,-38 318.25,-38 318.25,-58"/>
<text text-anchor="middle" x="294.12" y="-44.5" font-family="Helvetica,sans-Serif" font-size="10.00">runTest</text>
</a>
</g>
</g>
<!-- Node3&#45;&gt;Node5 -->
<g id="edge4_Node000003_Node000005" class="edge">
<title>Node3&#45;&gt;Node5</title>
<g id="a_edge4_Node000003_Node000005"><a xlink:title=" ">
<path fill="none" stroke="#63b8ff" d="M346.28,-71C336.87,-66.77 326.85,-62.27 318.19,-58.37"/>
<polygon fill="#63b8ff" stroke="#63b8ff" points="344.6,-74.09 355.15,-75 347.47,-67.7 344.6,-74.09"/>
</a>
</g>
</g>
<!-- Node6 -->
<g id="Node000006" class="node">
<title>Node6</title>
<g id="a_Node000006"><a xlink:href="tests_8cpp.html#af69c2591503f36d530dd5912015e849c" target="_top" xlink:title="Запускает тесты из файла с именем fname, использует freadTests() и runTest()">
<polygon fill="white" stroke="#666666" points="234,-20 177.5,-20 177.5,0 234,0 234,-20"/>
<text text-anchor="middle" x="205.75" y="-6.5" font-family="Helvetica,sans-Serif" font-size="10.00">frunTests</text>
</a>
</g>
</g>
<!-- Node5&#45;&gt;Node6 -->
<g id="edge5_Node000005_Node000006" class="edge">
<title>Node5&#45;&gt;Node6</title>
<g id="a_edge5_Node000005_Node000006"><a xlink:title=" ">
<path fill="none" stroke="#63b8ff" d="M259.04,-33C249.42,-28.77 239.18,-24.27 230.32,-20.37"/>
<polygon fill="#63b8ff" stroke="#63b8ff" points="257.57,-36.18 268.14,-37.01 260.39,-29.78 257.57,-36.18"/>
</a>
</g>
</g>
<!-- Node8 -->
<g id="Node000008" class="node">
<title>Node8</title>
<g id="a_Node000008"><a xlink:href="tests_8cpp.html#a2dcdccc8a8ededb7804d00ba921edb73" target="_top" xlink:title="(Устаревшее) Выполняет тесты из внутреннего массива типа struct test_t">
<polygon fill="white" stroke="#666666" points="232.5,-58 179,-58 179,-38 232.5,-38 232.5,-58"/>
<text text-anchor="middle" x="205.75" y="-44.5" font-family="Helvetica,sans-Serif" font-size="10.00">runTests</text>
</a>
</g>
</g>
<!-- Node5&#45;&gt;Node8 -->
<g id="edge8_Node000005_Node000008" class="edge">
<title>Node5&#45;&gt;Node8</title>
<g id="a_edge8_Node000005_Node000008"><a xlink:title=" ">
<path fill="none" stroke="#63b8ff" d="M258.01,-48C249.57,-48 240.7,-48 232.75,-48"/>
<polygon fill="#63b8ff" stroke="#63b8ff" points="258.01,-51.5 268.01,-48 258.01,-44.5 258.01,-51.5"/>
</a>
</g>
</g>
<!-- Node7 -->
<g id="Node000007" class="node">
<title>Node7</title>
<g id="a_Node000007"><a xlink:href="main_8cpp.html#ac52ecffca95f814564c9077d09c4b594" target="_top" xlink:title="Действует в зависимости от значений флагов в fval.">
<polygon fill="white" stroke="#666666" points="141.5,-39 73,-39 73,-19 141.5,-19 141.5,-39"/>
<text text-anchor="middle" x="107.25" y="-25.5" font-family="Helvetica,sans-Serif" font-size="10.00">argvHandler</text>
</a>
</g>
</g>
<!-- Node6&#45;&gt;Node7 -->
<g id="edge6_Node000006_Node000007" class="edge">
<title>Node6&#45;&gt;Node7</title>
<g id="a_edge6_Node000006_Node000007"><a xlink:title=" ">
<path fill="none" stroke="#63b8ff" d="M166.06,-17.62C158,-19.2 149.58,-20.86 141.73,-22.41"/>
<polygon fill="#63b8ff" stroke="#63b8ff" points="166.48,-21.1 175.61,-15.74 165.12,-14.23 166.48,-21.1"/>
</a>
</g>
</g>
<!-- Node7&#45;&gt;Node4 -->
<g id="edge7_Node000007_Node000004" class="edge">
<title>Node7&#45;&gt;Node4</title>
<g id="a_edge7_Node000007_Node000004"><a xlink:title=" ">
<path fill="none" stroke="#63b8ff" d="M61.87,-38.72C53.06,-40.65 44.3,-42.57 37.06,-44.16"/>
<polygon fill="#63b8ff" stroke="#63b8ff" points="62.46,-42.17 71.48,-36.62 60.96,-35.34 62.46,-42.17"/>
</a>
</g>
</g>
<!-- Node9&#45;&gt;Node5 -->
<g id="edge12_Node000009_Node000005" class="edge">
<title>Node9&#45;&gt;Node5</title>
<g id="a_edge12_Node000009_Node000005"><a xlink:title=" ">
<path fill="none" stroke="#63b8ff" d="M434.44,-14.24C411.75,-17.48 380.96,-22.5 354.25,-29 342.31,-31.91 329.28,-35.99 318.49,-39.63"/>
<polygon fill="#63b8ff" stroke="#63b8ff" points="434.9,-17.71 444.32,-12.87 433.94,-10.78 434.9,-17.71"/>
</a>
</g>
</g>
<!-- Node10 -->
<g id="Node000010" class="node">
<title>Node10</title>
<g id="a_Node000010"><a xlink:href="sqmath_8cpp.html#a4549ae82b726502768498c8469b8143f" target="_top" xlink:title="С погрешностью EPSILON сравнивает корни типа roots_t.">
<polygon fill="white" stroke="#666666" points="407,-58 354.25,-58 354.25,-38 407,-38 407,-58"/>
<text text-anchor="middle" x="380.62" y="-44.5" font-family="Helvetica,sans-Serif" font-size="10.00">eqRoots</text>
</a>
</g>
</g>
<!-- Node9&#45;&gt;Node10 -->
<g id="edge10_Node000009_Node000010" class="edge">
<title>Node9&#45;&gt;Node10</title>
<g id="a_edge10_Node000009_Node000010"><a xlink:title=" ">
<path fill="none" stroke="#63b8ff" d="M435.22,-24.22C425.2,-28.66 414.34,-33.48 405.03,-37.61"/>
<polygon fill="#63b8ff" stroke="#63b8ff" points="436.54,-27.46 444.26,-20.2 433.7,-21.06 436.54,-27.46"/>
</a>
</g>
</g>
<!-- Node10&#45;&gt;Node5 -->
<g id="edge11_Node000010_Node000005" class="edge">
<title>Node10&#45;&gt;Node5</title>
<g id="a_edge11_Node000010_Node000005"><a xlink:title=" ">
<path fill="none" stroke="#63b8ff" d="M342.56,-48C334.38,-48 325.93,-48 318.48,-48"/>
<polygon fill="#63b8ff" stroke="#63b8ff" points="342.3,-51.5 352.3,-48 342.3,-44.5 342.3,-51.5"/>
</a>
</g>
</g>
<!-- Node11&#45;&gt;Node3 -->
<g id="edge16_Node000011_Node000003" class="edge">
<title>Node11&#45;&gt;Node3</title>
<g id="a_edge16_Node000011_Node000003"><a xlink:title=" ">
<path fill="none" stroke="#63b8ff" d="M518.08,-116.87C496.81,-112.11 468.22,-105.71 443,-100 431.06,-97.3 417.82,-94.28 406.7,-91.74"/>
<polygon fill="#63b8ff" stroke="#63b8ff" points="517.08,-120.24 527.6,-119 518.61,-113.4 517.08,-120.24"/>
</a>
</g>
</g>
<!-- Node11&#45;&gt;Node12 -->
<g id="edge14_Node000011_Node000012" class="edge">
<title>Node11&#45;&gt;Node12</title>
<g id="a_edge14_Node000011_Node000012"><a xlink:title=" ">
<path fill="none" stroke="#63b8ff" d="M518.87,-138.65C509.71,-142.96 499.87,-147.59 491.39,-151.58"/>
<polygon fill="#63b8ff" stroke="#63b8ff" points="520.28,-141.86 527.84,-134.43 517.3,-135.52 520.28,-141.86"/>
</a>
</g>
</g>
<!-- Node12&#45;&gt;Node3 -->
<g id="edge15_Node000012_Node000003" class="edge">
<title>Node12&#45;&gt;Node3</title>
<g id="a_edge15_Node000012_Node000003"><a xlink:title=" ">
<path fill="none" stroke="#63b8ff" d="M447.16,-144.17C430.4,-129.29 407.09,-108.61 393.26,-96.33"/>
<polygon fill="#63b8ff" stroke="#63b8ff" points="444.77,-146.72 454.57,-150.75 449.41,-141.49 444.77,-146.72"/>
</a>
</g>
</g>
</g>
</svg>
