<?xml version="1.0" encoding="UTF-8" standalone="no"?>
<!DOCTYPE svg PUBLIC "-//W3C//DTD SVG 1.1//EN"
 "http://www.w3.org/Graphics/SVG/1.1/DTD/svg11.dtd">
<!-- Generated by graphviz version 12.1.0 (20240811.2233)
 -->
<!-- Title: D:/Cprojects/square_solver_git/squareSolver/sources/myisfinite.cpp Pages: 1 -->
<svg width="268pt" height="108pt"
 viewBox="0.00 0.00 268.12 108.00" xmlns="http://www.w3.org/2000/svg" xmlns:xlink="http://www.w3.org/1999/xlink">
<g id="graph0" class="graph" transform="scale(1 1) rotate(0) translate(4 104)">
<title>D:/Cprojects/square_solver_git/squareSolver/sources/myisfinite.cpp</title>
<!-- Node1 -->
<g id="Node000001" class="node">
<title>Node1</title>
<g id="a_Node000001"><a xlink:title=" ">
<polygon fill="#999999" stroke="#666666" points="180.62,-100 57.38,-100 57.38,-56 180.62,-56 180.62,-100"/>
<text text-anchor="start" x="65.38" y="-86.5" font-family="Helvetica,sans-Serif" font-size="10.00">D:/Cprojects/square</text>
<text text-anchor="start" x="65.38" y="-74.5" font-family="Helvetica,sans-Serif" font-size="10.00">_solver_git/squareSolver</text>
<text text-anchor="middle" x="119" y="-62.5" font-family="Helvetica,sans-Serif" font-size="10.00">/sources/myisfinite.cpp</text>
</a>
</g>
</g>
<!-- Node2 -->
<g id="Node000002" class="node">
<title>Node2</title>
<g id="a_Node000002"><a xlink:title=" ">
<polygon fill="#e0e0e0" stroke="#999999" points="46,-20 0,-20 0,0 46,0 46,-20"/>
<text text-anchor="middle" x="23" y="-6.5" font-family="Helvetica,sans-Serif" font-size="10.00">math.h</text>
</a>
</g>
</g>
<!-- Node1&#45;&gt;Node2 -->
<g id="edge1_Node000001_Node000002" class="edge">
<title>Node1&#45;&gt;Node2</title>
<g id="a_edge1_Node000001_Node000002"><a xlink:title=" ">
<path fill="none" stroke="#63b8ff" d="M87.83,-55.57C74.18,-46.19 58.45,-35.37 45.9,-26.75"/>
<polygon fill="#63b8ff" stroke="#63b8ff" points="48.09,-24 37.87,-21.22 44.13,-29.77 48.09,-24"/>
</a>
</g>
</g>
<!-- Node3 -->
<g id="Node000003" class="node">
<title>Node3</title>
<g id="a_Node000003"><a xlink:title=" ">
<polygon fill="#e0e0e0" stroke="#999999" points="109.62,-20 64.38,-20 64.38,0 109.62,0 109.62,-20"/>
<text text-anchor="middle" x="87" y="-6.5" font-family="Helvetica,sans-Serif" font-size="10.00">stdio.h</text>
</a>
</g>
</g>
<!-- Node1&#45;&gt;Node3 -->
<g id="edge2_Node000001_Node000003" class="edge">
<title>Node1&#45;&gt;Node3</title>
<g id="a_edge2_Node000001_Node000003"><a xlink:title=" ">
<path fill="none" stroke="#63b8ff" d="M108.7,-55.75C104.77,-47.66 100.32,-38.48 96.48,-30.55"/>
<polygon fill="#63b8ff" stroke="#63b8ff" points="99.74,-29.25 92.23,-21.78 93.44,-32.31 99.74,-29.25"/>
</a>
</g>
</g>
<!-- Node4 -->
<g id="Node000004" class="node">
<title>Node4</title>
<g id="a_Node000004"><a xlink:title=" ">
<polygon fill="#e0e0e0" stroke="#999999" points="176.12,-20 127.88,-20 127.88,0 176.12,0 176.12,-20"/>
<text text-anchor="middle" x="152" y="-6.5" font-family="Helvetica,sans-Serif" font-size="10.00">stdint.h</text>
</a>
</g>
</g>
<!-- Node1&#45;&gt;Node4 -->
<g id="edge3_Node000001_Node000004" class="edge">
<title>Node1&#45;&gt;Node4</title>
<g id="a_edge3_Node000001_Node000004"><a xlink:title=" ">
<path fill="none" stroke="#63b8ff" d="M129.62,-55.75C133.67,-47.66 138.26,-38.48 142.22,-30.55"/>
<polygon fill="#63b8ff" stroke="#63b8ff" points="145.27,-32.28 146.61,-21.77 139.01,-29.15 145.27,-32.28"/>
</a>
</g>
</g>
<!-- Node5 -->
<g id="Node000005" class="node">
<title>Node5</title>
<g id="a_Node000005"><a xlink:href="myisfinite_8h.html" target="_top" xlink:title=" ">
<polygon fill="white" stroke="#666666" points="260.12,-20 193.88,-20 193.88,0 260.12,0 260.12,-20"/>
<text text-anchor="middle" x="227" y="-6.5" font-family="Helvetica,sans-Serif" font-size="10.00">myisfinite.h</text>
</a>
</g>
</g>
<!-- Node1&#45;&gt;Node5 -->
<g id="edge4_Node000001_Node000005" class="edge">
<title>Node1&#45;&gt;Node5</title>
<g id="a_edge4_Node000001_Node000005"><a xlink:title=" ">
<path fill="none" stroke="#63b8ff" d="M154.06,-55.57C169.73,-46 187.82,-34.94 202.07,-26.24"/>
<polygon fill="#63b8ff" stroke="#63b8ff" points="203.68,-29.36 210.38,-21.15 200.03,-23.38 203.68,-29.36"/>
</a>
</g>
</g>
</g>
</svg>
