<?xml version="1.0" encoding="UTF-8" standalone="no"?>
<!DOCTYPE svg PUBLIC "-//W3C//DTD SVG 1.1//EN"
 "http://www.w3.org/Graphics/SVG/1.1/DTD/svg11.dtd">
<!-- Generated by graphviz version 12.1.0 (20240811.2233)
 -->
<!-- Title: myisfinite Pages: 1 -->
<svg width="676pt" height="180pt"
 viewBox="0.00 0.00 676.00 180.00" xmlns="http://www.w3.org/2000/svg" xmlns:xlink="http://www.w3.org/1999/xlink">
<g id="graph0" class="graph" transform="scale(1 1) rotate(0) translate(4 176)">
<title>myisfinite</title>
<!-- Node1 -->
<g id="Node000001" class="node">
<title>Node1</title>
<g id="a_Node000001"><a xlink:title="Буквально isfinite, только мой &#45; если число не NAN, INF, &#45;INF, возвращает 1.">
<polygon fill="#999999" stroke="#666666" points="668,-96 610,-96 610,-76 668,-76 668,-96"/>
<text text-anchor="middle" x="639" y="-82.5" font-family="Helvetica,sans-Serif" font-size="10.00">myisfinite</text>
</a>
</g>
</g>
<!-- Node2 -->
<g id="Node000002" class="node">
<title>Node2</title>
<g id="a_Node000002"><a xlink:href="sqmath_8cpp.html#a99cf170491e6e4c4facc3321b9efeb22" target="_top" xlink:title="Считает дискриминант, используя коэффициенты из структуры типа coeffs_t.">
<polygon fill="white" stroke="#666666" points="486.75,-96 449.75,-96 449.75,-76 486.75,-76 486.75,-96"/>
<text text-anchor="middle" x="468.25" y="-82.5" font-family="Helvetica,sans-Serif" font-size="10.00">discr</text>
</a>
</g>
</g>
<!-- Node1&#45;&gt;Node2 -->
<g id="edge1_Node000001_Node000002" class="edge">
<title>Node1&#45;&gt;Node2</title>
<g id="a_edge1_Node000001_Node000002"><a xlink:title=" ">
<path fill="none" stroke="#63b8ff" d="M598.45,-86C563.3,-86 513.52,-86 487.19,-86"/>
<polygon fill="#63b8ff" stroke="#63b8ff" points="598.24,-89.5 608.24,-86 598.24,-82.5 598.24,-89.5"/>
</a>
</g>
</g>
<!-- Node3 -->
<g id="Node000003" class="node">
<title>Node3</title>
<g id="a_Node000003"><a xlink:href="sqmath_8cpp.html#a62cf47e75fc1f85d1f20dd49098267d3" target="_top" xlink:title="Решает квадратное уравнение вида ax^2 + bx + c = 0. Коэффициенты берет из структуры coeffs_t,...">
<polygon fill="white" stroke="#666666" points="406.25,-96 355,-96 355,-76 406.25,-76 406.25,-96"/>
<text text-anchor="middle" x="380.62" y="-82.5" font-family="Helvetica,sans-Serif" font-size="10.00">sqSolve</text>
</a>
</g>
</g>
<!-- Node1&#45;&gt;Node3 -->
<g id="edge17_Node000001_Node000003" class="edge">
<title>Node1&#45;&gt;Node3</title>
<g id="a_edge17_Node000001_Node000003"><a xlink:title=" ">
<path fill="none" stroke="#63b8ff" d="M598.55,-76.46C559.05,-68.25 496.61,-58.89 443,-67 430.76,-68.85 417.59,-72.67 406.61,-76.4"/>
<polygon fill="#63b8ff" stroke="#63b8ff" points="597.8,-79.88 608.31,-78.58 599.28,-73.04 597.8,-79.88"/>
</a>
</g>
</g>
<!-- Node9 -->
<g id="Node000009" class="node">
<title>Node9</title>
<g id="a_Node000009"><a xlink:href="sqmath_8cpp.html#afc2fd18b983db1a6b8530aa3fb24da1e" target="_top" xlink:title="С погрешностью EPSILON сравнивает 2 числа типа double.">
<polygon fill="white" stroke="#666666" points="574,-20 529.5,-20 529.5,0 574,0 574,-20"/>
<text text-anchor="middle" x="551.75" y="-6.5" font-family="Helvetica,sans-Serif" font-size="10.00">equals</text>
</a>
</g>
</g>
<!-- Node1&#45;&gt;Node9 -->
<g id="edge9_Node000001_Node000009" class="edge">
<title>Node1&#45;&gt;Node9</title>
<g id="a_edge9_Node000001_Node000009"><a xlink:title=" ">
<path fill="none" stroke="#63b8ff" d="M618,-68.17C601.31,-53.29 578.11,-32.61 564.34,-20.33"/>
<polygon fill="#63b8ff" stroke="#63b8ff" points="615.58,-70.7 625.37,-74.74 620.24,-65.48 615.58,-70.7"/>
</a>
</g>
</g>
<!-- Node11 -->
<g id="Node000011" class="node">
<title>Node11</title>
<g id="a_Node000011"><a xlink:href="sqmath_8cpp.html#a72f9e3f1ac3e22071bdcdd823010b63b" target="_top" xlink:title="Приближенно сравнивает a с 0. Погрешность определяется константой EPSILON.">
<polygon fill="white" stroke="#666666" points="573.25,-134 530.25,-134 530.25,-114 573.25,-114 573.25,-134"/>
<text text-anchor="middle" x="551.75" y="-120.5" font-family="Helvetica,sans-Serif" font-size="10.00">isZero</text>
</a>
</g>
</g>
<!-- Node1&#45;&gt;Node11 -->
<g id="edge12_Node000001_Node000011" class="edge">
<title>Node1&#45;&gt;Node11</title>
<g id="a_edge12_Node000001_Node000011"><a xlink:title=" ">
<path fill="none" stroke="#63b8ff" d="M604.31,-101.02C593.98,-105.62 582.91,-110.56 573.69,-114.67"/>
<polygon fill="#63b8ff" stroke="#63b8ff" points="605.61,-104.27 613.32,-97 602.76,-97.87 605.61,-104.27"/>
</a>
</g>
</g>
<!-- Node12 -->
<g id="Node000012" class="node">
<title>Node12</title>
<g id="a_Node000012"><a xlink:href="sqmath_8cpp.html#aadb30e038879ab02aee3f881974ed8fc" target="_top" xlink:title="Решает линейное уравнение вида bx + c = 0.">
<polygon fill="white" stroke="#666666" points="493.5,-172 443,-172 443,-152 493.5,-152 493.5,-172"/>
<text text-anchor="middle" x="468.25" y="-158.5" font-family="Helvetica,sans-Serif" font-size="10.00">linSolve</text>
</a>
</g>
</g>
<!-- Node1&#45;&gt;Node12 -->
<g id="edge16_Node000001_Node000012" class="edge">
<title>Node1&#45;&gt;Node12</title>
<g id="a_edge16_Node000001_Node000012"><a xlink:title=" ">
<path fill="none" stroke="#63b8ff" d="M622.02,-104.88C610.11,-117.68 592.73,-133.87 574,-143 548.41,-155.47 515.7,-159.81 493.7,-161.29"/>
<polygon fill="#63b8ff" stroke="#63b8ff" points="624.62,-107.23 628.66,-97.44 619.39,-102.57 624.62,-107.23"/>
</a>
</g>
</g>
<!-- Node2&#45;&gt;Node3 -->
<g id="edge2_Node000002_Node000003" class="edge">
<title>Node2&#45;&gt;Node3</title>
<g id="a_edge2_Node000002_Node000003"><a xlink:title=" ">
<path fill="none" stroke="#63b8ff" d="M438.14,-86C427.85,-86 416.39,-86 406.49,-86"/>
<polygon fill="#63b8ff" stroke="#63b8ff" points="437.99,-89.5 447.99,-86 437.99,-82.5 437.99,-89.5"/>
</a>
</g>
</g>
<!-- Node4 -->
<g id="Node000004" class="node">
<title>Node4</title>
<g id="a_Node000004"><a xlink:href="main_8cpp.html#a0ddf1224851353fc92bfbff6f499fa97" target="_top" xlink:title=" ">
<polygon fill="white" stroke="#666666" points="37,-58 0,-58 0,-38 37,-38 37,-58"/>
<text text-anchor="middle" x="18.5" y="-44.5" font-family="Helvetica,sans-Serif" font-size="10.00">main</text>
</a>
</g>
</g>
<!-- Node3&#45;&gt;Node4 -->
<g id="edge3_Node000003_Node000004" class="edge">
<title>Node3&#45;&gt;Node4</title>
<g id="a_edge3_Node000003_Node000004"><a xlink:title=" ">
<path fill="none" stroke="#63b8ff" d="M343.3,-82.87C302.82,-79.32 235.43,-73.2 177.5,-67 126.68,-61.56 66.8,-54.06 37.49,-50.32"/>
<polygon fill="#63b8ff" stroke="#63b8ff" points="342.94,-86.35 353.2,-83.74 343.54,-79.38 342.94,-86.35"/>
</a>
</g>
</g>
<!-- Node5 -->
<g id="Node000005" class="node">
<title>Node5</title>
<g id="a_Node000005"><a xlink:href="tests_8cpp.html#a34f5261dce77501b22f450100be01a66" target="_top" xlink:title="Тестирует функцию sqSolve, используя данные из test.">
<polygon fill="white" stroke="#666666" points="318.25,-39 270,-39 270,-19 318.25,-19 318.25,-39"/>
<text text-anchor="middle" x="294.12" y="-25.5" font-family="Helvetica,sans-Serif" font-size="10.00">runTest</text>
</a>
</g>
</g>
<!-- Node3&#45;&gt;Node5 -->
<g id="edge4_Node000003_Node000005" class="edge">
<title>Node3&#45;&gt;Node5</title>
<g id="a_edge4_Node000003_Node000005"><a xlink:title=" ">
<path fill="none" stroke="#63b8ff" d="M354.82,-69.27C340.48,-59.59 322.89,-47.73 310.53,-39.39"/>
<polygon fill="#63b8ff" stroke="#63b8ff" points="352.62,-72.01 362.87,-74.7 356.54,-66.21 352.62,-72.01"/>
</a>
</g>
</g>
<!-- Node6 -->
<g id="Node000006" class="node">
<title>Node6</title>
<g id="a_Node000006"><a xlink:href="tests_8cpp.html#af69c2591503f36d530dd5912015e849c" target="_top" xlink:title="Запускает тесты из файла с именем fname, использует freadTests() и runTest()">
<polygon fill="white" stroke="#666666" points="234,-20 177.5,-20 177.5,0 234,0 234,-20"/>
<text text-anchor="middle" x="205.75" y="-6.5" font-family="Helvetica,sans-Serif" font-size="10.00">frunTests</text>
</a>
</g>
</g>
<!-- Node5&#45;&gt;Node6 -->
<g id="edge5_Node000005_Node000006" class="edge">
<title>Node5&#45;&gt;Node6</title>
<g id="a_edge5_Node000005_Node000006"><a xlink:title=" ">
<path fill="none" stroke="#63b8ff" d="M258.53,-21.39C250.48,-19.62 242.01,-17.76 234.3,-16.06"/>
<polygon fill="#63b8ff" stroke="#63b8ff" points="257.53,-24.75 268.04,-23.48 259.03,-17.92 257.53,-24.75"/>
</a>
</g>
</g>
<!-- Node8 -->
<g id="Node000008" class="node">
<title>Node8</title>
<g id="a_Node000008"><a xlink:href="tests_8cpp.html#a2dcdccc8a8ededb7804d00ba921edb73" target="_top" xlink:title="(Устаревшее) Выполняет тесты из внутреннего массива типа struct test_t">
<polygon fill="white" stroke="#666666" points="232.5,-58 179,-58 179,-38 232.5,-38 232.5,-58"/>
<text text-anchor="middle" x="205.75" y="-44.5" font-family="Helvetica,sans-Serif" font-size="10.00">runTests</text>
</a>
</g>
</g>
<!-- Node5&#45;&gt;Node8 -->
<g id="edge8_Node000005_Node000008" class="edge">
<title>Node5&#45;&gt;Node8</title>
<g id="a_edge8_Node000005_Node000008"><a xlink:title=" ">
<path fill="none" stroke="#63b8ff" d="M258.3,-36.66C249.77,-38.54 240.79,-40.51 232.75,-42.28"/>
<polygon fill="#63b8ff" stroke="#63b8ff" points="259.03,-40.08 268.04,-34.52 257.53,-33.25 259.03,-40.08"/>
</a>
</g>
</g>
<!-- Node7 -->
<g id="Node000007" class="node">
<title>Node7</title>
<g id="a_Node000007"><a xlink:href="main_8cpp.html#a87969c37f3523e73957ae67d5fa983f4" target="_top" xlink:title="Действует в зависимости от значений флагов в fval.">
<polygon fill="white" stroke="#666666" points="141.5,-39 73,-39 73,-19 141.5,-19 141.5,-39"/>
<text text-anchor="middle" x="107.25" y="-25.5" font-family="Helvetica,sans-Serif" font-size="10.00">argvHandler</text>
</a>
</g>
</g>
<!-- Node6&#45;&gt;Node7 -->
<g id="edge6_Node000006_Node000007" class="edge">
<title>Node6&#45;&gt;Node7</title>
<g id="a_edge6_Node000006_Node000007"><a xlink:title=" ">
<path fill="none" stroke="#63b8ff" d="M166.06,-17.62C158,-19.2 149.58,-20.86 141.73,-22.41"/>
<polygon fill="#63b8ff" stroke="#63b8ff" points="166.48,-21.1 175.61,-15.74 165.12,-14.23 166.48,-21.1"/>
</a>
</g>
</g>
<!-- Node7&#45;&gt;Node4 -->
<g id="edge7_Node000007_Node000004" class="edge">
<title>Node7&#45;&gt;Node4</title>
<g id="a_edge7_Node000007_Node000004"><a xlink:title=" ">
<path fill="none" stroke="#63b8ff" d="M61.87,-38.72C53.06,-40.65 44.3,-42.57 37.06,-44.16"/>
<polygon fill="#63b8ff" stroke="#63b8ff" points="62.46,-42.17 71.48,-36.62 60.96,-35.34 62.46,-42.17"/>
</a>
</g>
</g>
<!-- Node10 -->
<g id="Node000010" class="node">
<title>Node10</title>
<g id="a_Node000010"><a xlink:href="sqmath_8cpp.html#a32aa402e7aab2e7758805135f862bc73" target="_top" xlink:title="С погрешностью EPSILON сравнивает корни типа roots_t.">
<polygon fill="white" stroke="#666666" points="407,-39 354.25,-39 354.25,-19 407,-19 407,-39"/>
<text text-anchor="middle" x="380.62" y="-25.5" font-family="Helvetica,sans-Serif" font-size="10.00">eqRoots</text>
</a>
</g>
</g>
<!-- Node9&#45;&gt;Node10 -->
<g id="edge10_Node000009_Node000010" class="edge">
<title>Node9&#45;&gt;Node10</title>
<g id="a_edge10_Node000009_Node000010"><a xlink:title=" ">
<path fill="none" stroke="#63b8ff" d="M518.24,-13.65C485.91,-17.28 436.97,-22.78 407.29,-26.12"/>
<polygon fill="#63b8ff" stroke="#63b8ff" points="518.28,-17.17 527.83,-12.58 517.5,-10.21 518.28,-17.17"/>
</a>
</g>
</g>
<!-- Node10&#45;&gt;Node5 -->
<g id="edge11_Node000010_Node000005" class="edge">
<title>Node10&#45;&gt;Node5</title>
<g id="a_edge11_Node000010_Node000005"><a xlink:title=" ">
<path fill="none" stroke="#63b8ff" d="M342.56,-29C334.38,-29 325.93,-29 318.48,-29"/>
<polygon fill="#63b8ff" stroke="#63b8ff" points="342.3,-32.5 352.3,-29 342.3,-25.5 342.3,-32.5"/>
</a>
</g>
</g>
<!-- Node11&#45;&gt;Node3 -->
<g id="edge15_Node000011_Node000003" class="edge">
<title>Node11&#45;&gt;Node3</title>
<g id="a_edge15_Node000011_Node000003"><a xlink:title=" ">
<path fill="none" stroke="#63b8ff" d="M518.8,-119.44C497.24,-116.11 468.24,-111.11 443,-105 430.86,-102.06 417.59,-98.06 406.51,-94.48"/>
<polygon fill="#63b8ff" stroke="#63b8ff" points="518.03,-122.87 528.44,-120.9 519.07,-115.95 518.03,-122.87"/>
</a>
</g>
</g>
<!-- Node11&#45;&gt;Node12 -->
<g id="edge13_Node000011_Node000012" class="edge">
<title>Node11&#45;&gt;Node12</title>
<g id="a_edge13_Node000011_Node000012"><a xlink:title=" ">
<path fill="none" stroke="#63b8ff" d="M519.34,-138.65C510.08,-142.96 500.15,-147.59 491.59,-151.58"/>
<polygon fill="#63b8ff" stroke="#63b8ff" points="520.81,-141.82 528.39,-134.43 517.85,-135.48 520.81,-141.82"/>
</a>
</g>
</g>
<!-- Node12&#45;&gt;Node3 -->
<g id="edge14_Node000012_Node000003" class="edge">
<title>Node12&#45;&gt;Node3</title>
<g id="a_edge14_Node000012_Node000003"><a xlink:title=" ">
<path fill="none" stroke="#63b8ff" d="M447.16,-144.17C430.4,-129.29 407.09,-108.61 393.26,-96.33"/>
<polygon fill="#63b8ff" stroke="#63b8ff" points="444.77,-146.72 454.57,-150.75 449.41,-141.49 444.77,-146.72"/>
</a>
</g>
</g>
</g>
</svg>
