<?xml version="1.0" encoding="UTF-8" standalone="no"?>
<!DOCTYPE svg PUBLIC "-//W3C//DTD SVG 1.1//EN"
 "http://www.w3.org/Graphics/SVG/1.1/DTD/svg11.dtd">
<!-- Generated by graphviz version 12.1.0 (20240811.2233)
 -->
<!-- Title: D:/Cprojects/square_solver_git/squareSolver/sources/printscan.cpp Pages: 1 -->
<svg width="454pt" height="164pt"
 viewBox="0.00 0.00 453.88 164.00" xmlns="http://www.w3.org/2000/svg" xmlns:xlink="http://www.w3.org/1999/xlink">
<g id="graph0" class="graph" transform="scale(1 1) rotate(0) translate(4 160)">
<title>D:/Cprojects/square_solver_git/squareSolver/sources/printscan.cpp</title>
<!-- Node1 -->
<g id="Node000001" class="node">
<title>Node1</title>
<g id="a_Node000001"><a xlink:title=" ">
<polygon fill="#999999" stroke="#666666" points="300.25,-156 177,-156 177,-112 300.25,-112 300.25,-156"/>
<text text-anchor="start" x="185" y="-142.5" font-family="Helvetica,sans-Serif" font-size="10.00">D:/Cprojects/square</text>
<text text-anchor="start" x="185" y="-130.5" font-family="Helvetica,sans-Serif" font-size="10.00">_solver_git/squareSolver</text>
<text text-anchor="middle" x="238.62" y="-118.5" font-family="Helvetica,sans-Serif" font-size="10.00">/sources/printscan.cpp</text>
</a>
</g>
</g>
<!-- Node2 -->
<g id="Node000002" class="node">
<title>Node2</title>
<g id="a_Node000002"><a xlink:title=" ">
<polygon fill="#e0e0e0" stroke="#999999" points="45.25,-76 0,-76 0,-56 45.25,-56 45.25,-76"/>
<text text-anchor="middle" x="22.62" y="-62.5" font-family="Helvetica,sans-Serif" font-size="10.00">stdio.h</text>
</a>
</g>
</g>
<!-- Node1&#45;&gt;Node2 -->
<g id="edge1_Node000001_Node000002" class="edge">
<title>Node1&#45;&gt;Node2</title>
<g id="a_edge1_Node000001_Node000002"><a xlink:title=" ">
<path fill="none" stroke="#63b8ff" d="M176.73,-114.09C137.47,-102.09 88.22,-87.04 56.11,-77.23"/>
<polygon fill="#63b8ff" stroke="#63b8ff" points="57.54,-74.01 46.96,-74.44 55.5,-80.7 57.54,-74.01"/>
</a>
</g>
</g>
<!-- Node3 -->
<g id="Node000003" class="node">
<title>Node3</title>
<g id="a_Node000003"><a xlink:title=" ">
<polygon fill="#e0e0e0" stroke="#999999" points="111.75,-76 63.5,-76 63.5,-56 111.75,-56 111.75,-76"/>
<text text-anchor="middle" x="87.62" y="-62.5" font-family="Helvetica,sans-Serif" font-size="10.00">ctype.h</text>
</a>
</g>
</g>
<!-- Node1&#45;&gt;Node3 -->
<g id="edge2_Node000001_Node000003" class="edge">
<title>Node1&#45;&gt;Node3</title>
<g id="a_edge2_Node000001_Node000003"><a xlink:title=" ">
<path fill="none" stroke="#63b8ff" d="M189.6,-111.57C166.53,-101.49 139.69,-89.76 119.34,-80.86"/>
<polygon fill="#63b8ff" stroke="#63b8ff" points="121,-77.77 110.44,-76.97 118.2,-84.18 121,-77.77"/>
</a>
</g>
</g>
<!-- Node4 -->
<g id="Node000004" class="node">
<title>Node4</title>
<g id="a_Node000004"><a xlink:href="printscan_8h.html" target="_top" xlink:title=" ">
<polygon fill="white" stroke="#666666" points="193.62,-76 129.62,-76 129.62,-56 193.62,-56 193.62,-76"/>
<text text-anchor="middle" x="161.62" y="-62.5" font-family="Helvetica,sans-Serif" font-size="10.00">printscan.h</text>
</a>
</g>
</g>
<!-- Node1&#45;&gt;Node4 -->
<g id="edge3_Node000001_Node000004" class="edge">
<title>Node1&#45;&gt;Node4</title>
<g id="a_edge3_Node000001_Node000004"><a xlink:title=" ">
<path fill="none" stroke="#63b8ff" d="M213.84,-111.75C203.31,-102.73 191.21,-92.36 181.31,-83.87"/>
<polygon fill="#63b8ff" stroke="#63b8ff" points="183.63,-81.25 173.76,-77.4 179.08,-86.57 183.63,-81.25"/>
</a>
</g>
</g>
<!-- Node5 -->
<g id="Node000005" class="node">
<title>Node5</title>
<g id="a_Node000005"><a xlink:href="consts_8h.html" target="_top" xlink:title=" ">
<polygon fill="white" stroke="#666666" points="265.38,-76 211.88,-76 211.88,-56 265.38,-56 265.38,-76"/>
<text text-anchor="middle" x="238.62" y="-62.5" font-family="Helvetica,sans-Serif" font-size="10.00">consts.h</text>
</a>
</g>
</g>
<!-- Node1&#45;&gt;Node5 -->
<g id="edge4_Node000001_Node000005" class="edge">
<title>Node1&#45;&gt;Node5</title>
<g id="a_edge4_Node000001_Node000005"><a xlink:title=" ">
<path fill="none" stroke="#63b8ff" d="M238.62,-111.75C238.62,-104.13 238.62,-95.53 238.62,-87.93"/>
<polygon fill="#63b8ff" stroke="#63b8ff" points="242.13,-87.93 238.63,-77.93 235.13,-87.93 242.13,-87.93"/>
</a>
</g>
</g>
<!-- Node6 -->
<g id="Node000006" class="node">
<title>Node6</title>
<g id="a_Node000006"><a xlink:href="col_printf_8h.html" target="_top" xlink:title=" ">
<polygon fill="white" stroke="#666666" points="311.75,-20 251.5,-20 251.5,0 311.75,0 311.75,-20"/>
<text text-anchor="middle" x="281.62" y="-6.5" font-family="Helvetica,sans-Serif" font-size="10.00">colPrintf.h</text>
</a>
</g>
</g>
<!-- Node1&#45;&gt;Node6 -->
<g id="edge5_Node000001_Node000006" class="edge">
<title>Node1&#45;&gt;Node6</title>
<g id="a_edge5_Node000001_Node000006"><a xlink:title=" ">
<path fill="none" stroke="#63b8ff" d="M255.33,-111.74C262.48,-101.5 270.2,-88.71 274.62,-76 279.61,-61.69 281.3,-44.63 281.78,-31.58"/>
<polygon fill="#63b8ff" stroke="#63b8ff" points="285.27,-31.67 281.9,-21.63 278.27,-31.58 285.27,-31.67"/>
</a>
</g>
</g>
<!-- Node7 -->
<g id="Node000007" class="node">
<title>Node7</title>
<g id="a_Node000007"><a xlink:href="colors_8h.html" target="_top" xlink:title=" ">
<polygon fill="white" stroke="#666666" points="445.88,-20 395.38,-20 395.38,0 445.88,0 445.88,-20"/>
<text text-anchor="middle" x="420.62" y="-6.5" font-family="Helvetica,sans-Serif" font-size="10.00">colors.h</text>
</a>
</g>
</g>
<!-- Node1&#45;&gt;Node7 -->
<g id="edge6_Node000001_Node000007" class="edge">
<title>Node1&#45;&gt;Node7</title>
<g id="a_edge6_Node000001_Node000007"><a xlink:title=" ">
<path fill="none" stroke="#63b8ff" d="M300.58,-122.83C332.16,-114.82 369.17,-100.7 394.62,-76 406.9,-64.09 413.54,-45.62 417.03,-31.41"/>
<polygon fill="#63b8ff" stroke="#63b8ff" points="420.42,-32.28 419.03,-21.77 413.57,-30.85 420.42,-32.28"/>
</a>
</g>
</g>
<!-- Node8 -->
<g id="Node000008" class="node">
<title>Node8</title>
<g id="a_Node000008"><a xlink:href="myassert_8h.html" target="_top" xlink:title=" ">
<polygon fill="white" stroke="#666666" points="386,-76 321.25,-76 321.25,-56 386,-56 386,-76"/>
<text text-anchor="middle" x="353.62" y="-62.5" font-family="Helvetica,sans-Serif" font-size="10.00">myassert.h</text>
</a>
</g>
</g>
<!-- Node1&#45;&gt;Node8 -->
<g id="edge7_Node000001_Node000008" class="edge">
<title>Node1&#45;&gt;Node8</title>
<g id="a_edge7_Node000001_Node000008"><a xlink:title=" ">
<path fill="none" stroke="#63b8ff" d="M275.96,-111.57C292.8,-101.91 312.28,-90.73 327.52,-81.98"/>
<polygon fill="#63b8ff" stroke="#63b8ff" points="329.06,-85.13 335.99,-77.12 325.58,-79.06 329.06,-85.13"/>
</a>
</g>
</g>
<!-- Node8&#45;&gt;Node6 -->
<g id="edge10_Node000008_Node000006" class="edge">
<title>Node8&#45;&gt;Node6</title>
<g id="a_edge10_Node000008_Node000006"><a xlink:title=" ">
<path fill="none" stroke="#63b8ff" d="M341.08,-55.59C330.66,-47.77 315.58,-36.46 303.21,-27.19"/>
<polygon fill="#63b8ff" stroke="#63b8ff" points="305.33,-24.41 295.23,-21.21 301.13,-30.01 305.33,-24.41"/>
</a>
</g>
</g>
<!-- Node8&#45;&gt;Node7 -->
<g id="edge9_Node000008_Node000007" class="edge">
<title>Node8&#45;&gt;Node7</title>
<g id="a_edge9_Node000008_Node000007"><a xlink:title=" ">
<path fill="none" stroke="#63b8ff" d="M365.3,-55.59C374.9,-47.85 388.75,-36.69 400.19,-27.47"/>
<polygon fill="#63b8ff" stroke="#63b8ff" points="402.32,-30.25 407.91,-21.25 397.93,-24.8 402.32,-30.25"/>
</a>
</g>
</g>
<!-- Node9 -->
<g id="Node000009" class="node">
<title>Node9</title>
<g id="a_Node000009"><a xlink:title=" ">
<polygon fill="#e0e0e0" stroke="#999999" points="377.38,-20 329.88,-20 329.88,0 377.38,0 377.38,-20"/>
<text text-anchor="middle" x="353.62" y="-6.5" font-family="Helvetica,sans-Serif" font-size="10.00">stdlib.h</text>
</a>
</g>
</g>
<!-- Node8&#45;&gt;Node9 -->
<g id="edge8_Node000008_Node000009" class="edge">
<title>Node8&#45;&gt;Node9</title>
<g id="a_edge8_Node000008_Node000009"><a xlink:title=" ">
<path fill="none" stroke="#63b8ff" d="M353.62,-55.59C353.62,-49.01 353.62,-39.96 353.62,-31.73"/>
<polygon fill="#63b8ff" stroke="#63b8ff" points="357.13,-31.81 353.63,-21.81 350.13,-31.81 357.13,-31.81"/>
</a>
</g>
</g>
</g>
</svg>
