<?xml version="1.0" encoding="UTF-8" standalone="no"?>
<!DOCTYPE svg PUBLIC "-//W3C//DTD SVG 1.1//EN"
 "http://www.w3.org/Graphics/SVG/1.1/DTD/svg11.dtd">
<!-- Generated by graphviz version 12.1.0 (20240811.2233)
 -->
<!-- Title: sources/printscan.cpp Pages: 1 -->
<svg width="454pt" height="140pt"
 viewBox="0.00 0.00 453.88 140.00" xmlns="http://www.w3.org/2000/svg" xmlns:xlink="http://www.w3.org/1999/xlink">
<g id="graph0" class="graph" transform="scale(1 1) rotate(0) translate(4 136)">
<title>sources/printscan.cpp</title>
<!-- Node1 -->
<g id="Node000001" class="node">
<title>Node1</title>
<g id="a_Node000001"><a xlink:title=" ">
<polygon fill="#999999" stroke="#666666" points="294.62,-132 182.62,-132 182.62,-112 294.62,-112 294.62,-132"/>
<text text-anchor="middle" x="238.62" y="-118.5" font-family="Helvetica,sans-Serif" font-size="10.00">sources/printscan.cpp</text>
</a>
</g>
</g>
<!-- Node2 -->
<g id="Node000002" class="node">
<title>Node2</title>
<g id="a_Node000002"><a xlink:title=" ">
<polygon fill="#e0e0e0" stroke="#999999" points="45.25,-76 0,-76 0,-56 45.25,-56 45.25,-76"/>
<text text-anchor="middle" x="22.62" y="-62.5" font-family="Helvetica,sans-Serif" font-size="10.00">stdio.h</text>
</a>
</g>
</g>
<!-- Node1&#45;&gt;Node2 -->
<g id="edge1_Node000001_Node000002" class="edge">
<title>Node1&#45;&gt;Node2</title>
<g id="a_edge1_Node000001_Node000002"><a xlink:title=" ">
<path fill="none" stroke="#63b8ff" d="M198.32,-111.56C163.31,-103.27 110.98,-90.66 56.58,-76.45"/>
<polygon fill="#63b8ff" stroke="#63b8ff" points="57.7,-73.12 47.14,-73.97 55.92,-79.89 57.7,-73.12"/>
</a>
</g>
</g>
<!-- Node3 -->
<g id="Node000003" class="node">
<title>Node3</title>
<g id="a_Node000003"><a xlink:title=" ">
<polygon fill="#e0e0e0" stroke="#999999" points="111.75,-76 63.5,-76 63.5,-56 111.75,-56 111.75,-76"/>
<text text-anchor="middle" x="87.62" y="-62.5" font-family="Helvetica,sans-Serif" font-size="10.00">ctype.h</text>
</a>
</g>
</g>
<!-- Node1&#45;&gt;Node3 -->
<g id="edge2_Node000001_Node000003" class="edge">
<title>Node1&#45;&gt;Node3</title>
<g id="a_edge2_Node000001_Node000003"><a xlink:title=" ">
<path fill="none" stroke="#63b8ff" d="M212.32,-111.59C187.52,-102.72 150.17,-89.37 122.81,-79.58"/>
<polygon fill="#63b8ff" stroke="#63b8ff" points="124.15,-76.34 113.55,-76.27 121.79,-82.93 124.15,-76.34"/>
</a>
</g>
</g>
<!-- Node4 -->
<g id="Node000004" class="node">
<title>Node4</title>
<g id="a_Node000004"><a xlink:href="printscan_8h.html" target="_top" xlink:title=" ">
<polygon fill="white" stroke="#666666" points="193.62,-76 129.62,-76 129.62,-56 193.62,-56 193.62,-76"/>
<text text-anchor="middle" x="161.62" y="-62.5" font-family="Helvetica,sans-Serif" font-size="10.00">printscan.h</text>
</a>
</g>
</g>
<!-- Node1&#45;&gt;Node4 -->
<g id="edge3_Node000001_Node000004" class="edge">
<title>Node1&#45;&gt;Node4</title>
<g id="a_edge3_Node000001_Node000004"><a xlink:title=" ">
<path fill="none" stroke="#63b8ff" d="M225.21,-111.59C214.02,-103.74 197.81,-92.38 184.57,-83.09"/>
<polygon fill="#63b8ff" stroke="#63b8ff" points="186.58,-80.22 176.38,-77.35 182.56,-85.96 186.58,-80.22"/>
</a>
</g>
</g>
<!-- Node5 -->
<g id="Node000005" class="node">
<title>Node5</title>
<g id="a_Node000005"><a xlink:href="consts_8h.html" target="_top" xlink:title=" ">
<polygon fill="white" stroke="#666666" points="265.38,-76 211.88,-76 211.88,-56 265.38,-56 265.38,-76"/>
<text text-anchor="middle" x="238.62" y="-62.5" font-family="Helvetica,sans-Serif" font-size="10.00">consts.h</text>
</a>
</g>
</g>
<!-- Node1&#45;&gt;Node5 -->
<g id="edge4_Node000001_Node000005" class="edge">
<title>Node1&#45;&gt;Node5</title>
<g id="a_edge4_Node000001_Node000005"><a xlink:title=" ">
<path fill="none" stroke="#63b8ff" d="M238.62,-111.59C238.62,-105.01 238.62,-95.96 238.62,-87.73"/>
<polygon fill="#63b8ff" stroke="#63b8ff" points="242.13,-87.81 238.63,-77.81 235.13,-87.81 242.13,-87.81"/>
</a>
</g>
</g>
<!-- Node6 -->
<g id="Node000006" class="node">
<title>Node6</title>
<g id="a_Node000006"><a xlink:href="col_printf_8h.html" target="_top" xlink:title=" ">
<polygon fill="white" stroke="#666666" points="311.75,-20 251.5,-20 251.5,0 311.75,0 311.75,-20"/>
<text text-anchor="middle" x="281.62" y="-6.5" font-family="Helvetica,sans-Serif" font-size="10.00">colPrintf.h</text>
</a>
</g>
</g>
<!-- Node1&#45;&gt;Node6 -->
<g id="edge5_Node000001_Node000006" class="edge">
<title>Node1&#45;&gt;Node6</title>
<g id="a_edge5_Node000001_Node000006"><a xlink:title=" ">
<path fill="none" stroke="#63b8ff" d="M248.75,-111.72C257.22,-103.29 268.83,-90.06 274.62,-76 280.46,-61.85 282.09,-44.56 282.33,-31.37"/>
<polygon fill="#63b8ff" stroke="#63b8ff" points="285.83,-31.7 282.23,-21.74 278.83,-31.77 285.83,-31.7"/>
</a>
</g>
</g>
<!-- Node7 -->
<g id="Node000007" class="node">
<title>Node7</title>
<g id="a_Node000007"><a xlink:href="colors_8h.html" target="_top" xlink:title=" ">
<polygon fill="white" stroke="#666666" points="445.88,-20 395.38,-20 395.38,0 445.88,0 445.88,-20"/>
<text text-anchor="middle" x="420.62" y="-6.5" font-family="Helvetica,sans-Serif" font-size="10.00">colors.h</text>
</a>
</g>
</g>
<!-- Node1&#45;&gt;Node7 -->
<g id="edge6_Node000001_Node000007" class="edge">
<title>Node1&#45;&gt;Node7</title>
<g id="a_edge6_Node000001_Node000007"><a xlink:title=" ">
<path fill="none" stroke="#63b8ff" d="M295.05,-116.9C327.65,-111.81 367.46,-100.59 394.62,-76 407.31,-64.52 413.91,-46.01 417.27,-31.68"/>
<polygon fill="#63b8ff" stroke="#63b8ff" points="420.7,-32.4 419.18,-21.92 413.83,-31.06 420.7,-32.4"/>
</a>
</g>
</g>
<!-- Node8 -->
<g id="Node000008" class="node">
<title>Node8</title>
<g id="a_Node000008"><a xlink:href="myassert_8h.html" target="_top" xlink:title=" ">
<polygon fill="white" stroke="#666666" points="386,-76 321.25,-76 321.25,-56 386,-56 386,-76"/>
<text text-anchor="middle" x="353.62" y="-62.5" font-family="Helvetica,sans-Serif" font-size="10.00">myassert.h</text>
</a>
</g>
</g>
<!-- Node1&#45;&gt;Node8 -->
<g id="edge7_Node000001_Node000008" class="edge">
<title>Node1&#45;&gt;Node8</title>
<g id="a_edge7_Node000001_Node000008"><a xlink:title=" ">
<path fill="none" stroke="#63b8ff" d="M258.66,-111.59C276.44,-103.24 302.69,-90.92 323.09,-81.34"/>
<polygon fill="#63b8ff" stroke="#63b8ff" points="324.5,-84.54 332.07,-77.12 321.53,-78.21 324.5,-84.54"/>
</a>
</g>
</g>
<!-- Node8&#45;&gt;Node6 -->
<g id="edge10_Node000008_Node000006" class="edge">
<title>Node8&#45;&gt;Node6</title>
<g id="a_edge10_Node000008_Node000006"><a xlink:title=" ">
<path fill="none" stroke="#63b8ff" d="M341.08,-55.59C330.66,-47.77 315.58,-36.46 303.21,-27.19"/>
<polygon fill="#63b8ff" stroke="#63b8ff" points="305.33,-24.41 295.23,-21.21 301.13,-30.01 305.33,-24.41"/>
</a>
</g>
</g>
<!-- Node8&#45;&gt;Node7 -->
<g id="edge9_Node000008_Node000007" class="edge">
<title>Node8&#45;&gt;Node7</title>
<g id="a_edge9_Node000008_Node000007"><a xlink:title=" ">
<path fill="none" stroke="#63b8ff" d="M365.3,-55.59C374.9,-47.85 388.75,-36.69 400.19,-27.47"/>
<polygon fill="#63b8ff" stroke="#63b8ff" points="402.32,-30.25 407.91,-21.25 397.93,-24.8 402.32,-30.25"/>
</a>
</g>
</g>
<!-- Node9 -->
<g id="Node000009" class="node">
<title>Node9</title>
<g id="a_Node000009"><a xlink:title=" ">
<polygon fill="#e0e0e0" stroke="#999999" points="377.38,-20 329.88,-20 329.88,0 377.38,0 377.38,-20"/>
<text text-anchor="middle" x="353.62" y="-6.5" font-family="Helvetica,sans-Serif" font-size="10.00">stdlib.h</text>
</a>
</g>
</g>
<!-- Node8&#45;&gt;Node9 -->
<g id="edge8_Node000008_Node000009" class="edge">
<title>Node8&#45;&gt;Node9</title>
<g id="a_edge8_Node000008_Node000009"><a xlink:title=" ">
<path fill="none" stroke="#63b8ff" d="M353.62,-55.59C353.62,-49.01 353.62,-39.96 353.62,-31.73"/>
<polygon fill="#63b8ff" stroke="#63b8ff" points="357.13,-31.81 353.63,-21.81 350.13,-31.81 357.13,-31.81"/>
</a>
</g>
</g>
</g>
</svg>
