<?xml version="1.0" encoding="UTF-8" standalone="no"?>
<!DOCTYPE svg PUBLIC "-//W3C//DTD SVG 1.1//EN"
 "http://www.w3.org/Graphics/SVG/1.1/DTD/svg11.dtd">
<!-- Generated by graphviz version 12.1.0 (20240811.2233)
 -->
<!-- Title: eqRoots Pages: 1 -->
<svg width="415pt" height="66pt"
 viewBox="0.00 0.00 415.00 66.00" xmlns="http://www.w3.org/2000/svg" xmlns:xlink="http://www.w3.org/1999/xlink">
<g id="graph0" class="graph" transform="scale(1 1) rotate(0) translate(4 62)">
<title>eqRoots</title>
<!-- Node1 -->
<g id="Node000001" class="node">
<title>Node1</title>
<g id="a_Node000001"><a xlink:title="С погрешностью EPSILON сравнивает корни типа roots_t.">
<polygon fill="#999999" stroke="#666666" points="407,-39 354.25,-39 354.25,-19 407,-19 407,-39"/>
<text text-anchor="middle" x="380.62" y="-25.5" font-family="Helvetica,sans-Serif" font-size="10.00">eqRoots</text>
</a>
</g>
</g>
<!-- Node2 -->
<g id="Node000002" class="node">
<title>Node2</title>
<g id="a_Node000002"><a xlink:href="tests_8cpp.html#a34f5261dce77501b22f450100be01a66" target="_top" xlink:title="Тестирует функцию sqSolve, используя данные из test.">
<polygon fill="white" stroke="#666666" points="318.25,-39 270,-39 270,-19 318.25,-19 318.25,-39"/>
<text text-anchor="middle" x="294.12" y="-25.5" font-family="Helvetica,sans-Serif" font-size="10.00">runTest</text>
</a>
</g>
</g>
<!-- Node1&#45;&gt;Node2 -->
<g id="edge1_Node000001_Node000002" class="edge">
<title>Node1&#45;&gt;Node2</title>
<g id="a_edge1_Node000001_Node000002"><a xlink:title=" ">
<path fill="none" stroke="#63b8ff" d="M342.56,-29C334.38,-29 325.93,-29 318.48,-29"/>
<polygon fill="#63b8ff" stroke="#63b8ff" points="342.3,-32.5 352.3,-29 342.3,-25.5 342.3,-32.5"/>
</a>
</g>
</g>
<!-- Node3 -->
<g id="Node000003" class="node">
<title>Node3</title>
<g id="a_Node000003"><a xlink:href="tests_8cpp.html#af69c2591503f36d530dd5912015e849c" target="_top" xlink:title="Запускает тесты из файла с именем fname, использует freadTests() и runTest()">
<polygon fill="white" stroke="#666666" points="234,-58 177.5,-58 177.5,-38 234,-38 234,-58"/>
<text text-anchor="middle" x="205.75" y="-44.5" font-family="Helvetica,sans-Serif" font-size="10.00">frunTests</text>
</a>
</g>
</g>
<!-- Node2&#45;&gt;Node3 -->
<g id="edge2_Node000002_Node000003" class="edge">
<title>Node2&#45;&gt;Node3</title>
<g id="a_edge2_Node000002_Node000003"><a xlink:title=" ">
<path fill="none" stroke="#63b8ff" d="M258.53,-36.61C250.48,-38.38 242.01,-40.24 234.3,-41.94"/>
<polygon fill="#63b8ff" stroke="#63b8ff" points="259.03,-40.08 268.04,-34.52 257.53,-33.25 259.03,-40.08"/>
</a>
</g>
</g>
<!-- Node6 -->
<g id="Node000006" class="node">
<title>Node6</title>
<g id="a_Node000006"><a xlink:href="tests_8cpp.html#a2dcdccc8a8ededb7804d00ba921edb73" target="_top" xlink:title="(Устаревшее) Выполняет тесты из внутреннего массива типа struct test_t">
<polygon fill="white" stroke="#666666" points="232.5,-20 179,-20 179,0 232.5,0 232.5,-20"/>
<text text-anchor="middle" x="205.75" y="-6.5" font-family="Helvetica,sans-Serif" font-size="10.00">runTests</text>
</a>
</g>
</g>
<!-- Node2&#45;&gt;Node6 -->
<g id="edge5_Node000002_Node000006" class="edge">
<title>Node2&#45;&gt;Node6</title>
<g id="a_edge5_Node000002_Node000006"><a xlink:title=" ">
<path fill="none" stroke="#63b8ff" d="M258.3,-21.34C249.77,-19.46 240.79,-17.49 232.75,-15.72"/>
<polygon fill="#63b8ff" stroke="#63b8ff" points="257.53,-24.75 268.04,-23.48 259.03,-17.92 257.53,-24.75"/>
</a>
</g>
</g>
<!-- Node4 -->
<g id="Node000004" class="node">
<title>Node4</title>
<g id="a_Node000004"><a xlink:href="main_8cpp.html#a87969c37f3523e73957ae67d5fa983f4" target="_top" xlink:title="Действует в зависимости от значений флагов в fval.">
<polygon fill="white" stroke="#666666" points="141.5,-58 73,-58 73,-38 141.5,-38 141.5,-58"/>
<text text-anchor="middle" x="107.25" y="-44.5" font-family="Helvetica,sans-Serif" font-size="10.00">argvHandler</text>
</a>
</g>
</g>
<!-- Node3&#45;&gt;Node4 -->
<g id="edge3_Node000003_Node000004" class="edge">
<title>Node3&#45;&gt;Node4</title>
<g id="a_edge3_Node000003_Node000004"><a xlink:title=" ">
<path fill="none" stroke="#63b8ff" d="M165.78,-48C157.81,-48 149.49,-48 141.73,-48"/>
<polygon fill="#63b8ff" stroke="#63b8ff" points="165.58,-51.5 175.58,-48 165.58,-44.5 165.58,-51.5"/>
</a>
</g>
</g>
<!-- Node5 -->
<g id="Node000005" class="node">
<title>Node5</title>
<g id="a_Node000005"><a xlink:href="main_8cpp.html#a0ddf1224851353fc92bfbff6f499fa97" target="_top" xlink:title=" ">
<polygon fill="white" stroke="#666666" points="37,-58 0,-58 0,-38 37,-38 37,-58"/>
<text text-anchor="middle" x="18.5" y="-44.5" font-family="Helvetica,sans-Serif" font-size="10.00">main</text>
</a>
</g>
</g>
<!-- Node4&#45;&gt;Node5 -->
<g id="edge4_Node000004_Node000005" class="edge">
<title>Node4&#45;&gt;Node5</title>
<g id="a_edge4_Node000004_Node000005"><a xlink:title=" ">
<path fill="none" stroke="#63b8ff" d="M61.58,-48C52.87,-48 44.22,-48 37.06,-48"/>
<polygon fill="#63b8ff" stroke="#63b8ff" points="61.44,-51.5 71.44,-48 61.44,-44.5 61.44,-51.5"/>
</a>
</g>
</g>
</g>
</svg>
