<?xml version="1.0" encoding="UTF-8" standalone="no"?>
<!DOCTYPE svg PUBLIC "-//W3C//DTD SVG 1.1//EN"
 "http://www.w3.org/Graphics/SVG/1.1/DTD/svg11.dtd">
<!-- Generated by graphviz version 12.1.0 (20240811.2233)
 -->
<!-- Title: headers/sqmath.h Pages: 1 -->
<svg width="336pt" height="84pt"
 viewBox="0.00 0.00 335.62 84.00" xmlns="http://www.w3.org/2000/svg" xmlns:xlink="http://www.w3.org/1999/xlink">
<g id="graph0" class="graph" transform="scale(1 1) rotate(0) translate(4 80)">
<title>headers/sqmath.h</title>
<!-- Node1 -->
<g id="Node000001" class="node">
<title>Node1</title>
<g id="a_Node000001"><a xlink:title=" ">
<polygon fill="#999999" stroke="#666666" points="210.62,-76 116.62,-76 116.62,-56 210.62,-56 210.62,-76"/>
<text text-anchor="middle" x="163.62" y="-62.5" font-family="Helvetica,sans-Serif" font-size="10.00">headers/sqmath.h</text>
</a>
</g>
</g>
<!-- Node2 -->
<g id="Node000002" class="node">
<title>Node2</title>
<g id="a_Node000002"><a xlink:href="main_8cpp.html" target="_top" xlink:title=" ">
<polygon fill="white" stroke="#666666" points="93.25,-20 0,-20 0,0 93.25,0 93.25,-20"/>
<text text-anchor="middle" x="46.62" y="-6.5" font-family="Helvetica,sans-Serif" font-size="10.00">sources/main.cpp</text>
</a>
</g>
</g>
<!-- Node1&#45;&gt;Node2 -->
<g id="edge1_Node000001_Node000002" class="edge">
<title>Node1&#45;&gt;Node2</title>
<g id="a_edge1_Node000001_Node000002"><a xlink:title=" ">
<path fill="none" stroke="#63b8ff" d="M133.03,-50.88C112.27,-41.3 85.39,-28.89 67.16,-20.48"/>
<polygon fill="#63b8ff" stroke="#63b8ff" points="131.32,-53.95 141.87,-54.96 134.26,-47.59 131.32,-53.95"/>
</a>
</g>
</g>
<!-- Node3 -->
<g id="Node000003" class="node">
<title>Node3</title>
<g id="a_Node000003"><a xlink:href="sqmath_8cpp.html" target="_top" xlink:title=" ">
<polygon fill="white" stroke="#666666" points="215.88,-20 111.38,-20 111.38,0 215.88,0 215.88,-20"/>
<text text-anchor="middle" x="163.62" y="-6.5" font-family="Helvetica,sans-Serif" font-size="10.00">sources/sqmath.cpp</text>
</a>
</g>
</g>
<!-- Node1&#45;&gt;Node3 -->
<g id="edge2_Node000001_Node000003" class="edge">
<title>Node1&#45;&gt;Node3</title>
<g id="a_edge2_Node000001_Node000003"><a xlink:title=" ">
<path fill="none" stroke="#63b8ff" d="M163.62,-44.13C163.62,-35.9 163.62,-26.85 163.62,-20.3"/>
<polygon fill="#63b8ff" stroke="#63b8ff" points="160.13,-44.08 163.63,-54.08 167.13,-44.08 160.13,-44.08"/>
</a>
</g>
</g>
<!-- Node4 -->
<g id="Node000004" class="node">
<title>Node4</title>
<g id="a_Node000004"><a xlink:href="tests_8cpp.html" target="_top" xlink:title=" ">
<polygon fill="white" stroke="#666666" points="327.62,-20 233.62,-20 233.62,0 327.62,0 327.62,-20"/>
<text text-anchor="middle" x="280.62" y="-6.5" font-family="Helvetica,sans-Serif" font-size="10.00">sources/tests.cpp</text>
</a>
</g>
</g>
<!-- Node1&#45;&gt;Node4 -->
<g id="edge3_Node000001_Node000004" class="edge">
<title>Node1&#45;&gt;Node4</title>
<g id="a_edge3_Node000001_Node000004"><a xlink:title=" ">
<path fill="none" stroke="#63b8ff" d="M194.22,-50.88C214.98,-41.3 241.86,-28.89 260.09,-20.48"/>
<polygon fill="#63b8ff" stroke="#63b8ff" points="192.99,-47.59 185.38,-54.96 195.93,-53.95 192.99,-47.59"/>
</a>
</g>
</g>
</g>
</svg>
