<?xml version="1.0" encoding="UTF-8" standalone="no"?>
<!DOCTYPE svg PUBLIC "-//W3C//DTD SVG 1.1//EN"
 "http://www.w3.org/Graphics/SVG/1.1/DTD/svg11.dtd">
<!-- Generated by graphviz version 12.1.0 (20240811.2233)
 -->
<!-- Title: linSolve Pages: 1 -->
<svg width="500pt" height="85pt"
 viewBox="0.00 0.00 500.00 85.00" xmlns="http://www.w3.org/2000/svg" xmlns:xlink="http://www.w3.org/1999/xlink">
<g id="graph0" class="graph" transform="scale(1 1) rotate(0) translate(4 81)">
<title>linSolve</title>
<!-- Node1 -->
<g id="Node000001" class="node">
<title>Node1</title>
<g id="a_Node000001"><a xlink:title="Решает линейное уравнение вида bx + c = 0.">
<polygon fill="#999999" stroke="#666666" points="492,-77 441.5,-77 441.5,-57 492,-57 492,-77"/>
<text text-anchor="middle" x="466.75" y="-63.5" font-family="Helvetica,sans-Serif" font-size="10.00">linSolve</text>
</a>
</g>
</g>
<!-- Node2 -->
<g id="Node000002" class="node">
<title>Node2</title>
<g id="a_Node000002"><a xlink:href="sqmath_8cpp.html#a81a063d50a9d1121b1d696f2e0e7e8e7" target="_top" xlink:title="Решает квадратное уравнение вида ax^2 + bx + c = 0. Коэффициенты берет из структуры coeffs_t,...">
<polygon fill="white" stroke="#666666" points="405.5,-77 354.25,-77 354.25,-57 405.5,-57 405.5,-77"/>
<text text-anchor="middle" x="379.88" y="-63.5" font-family="Helvetica,sans-Serif" font-size="10.00">sqSolve</text>
</a>
</g>
</g>
<!-- Node1&#45;&gt;Node2 -->
<g id="edge1_Node000001_Node000002" class="edge">
<title>Node1&#45;&gt;Node2</title>
<g id="a_edge1_Node000001_Node000002"><a xlink:title=" ">
<path fill="none" stroke="#63b8ff" d="M429.81,-67C421.78,-67 413.43,-67 405.96,-67"/>
<polygon fill="#63b8ff" stroke="#63b8ff" points="429.69,-70.5 439.69,-67 429.69,-63.5 429.69,-70.5"/>
</a>
</g>
</g>
<!-- Node3 -->
<g id="Node000003" class="node">
<title>Node3</title>
<g id="a_Node000003"><a xlink:href="main_8cpp.html#a0ddf1224851353fc92bfbff6f499fa97" target="_top" xlink:title=" ">
<polygon fill="white" stroke="#666666" points="37,-77 0,-77 0,-57 37,-57 37,-77"/>
<text text-anchor="middle" x="18.5" y="-63.5" font-family="Helvetica,sans-Serif" font-size="10.00">main</text>
</a>
</g>
</g>
<!-- Node2&#45;&gt;Node3 -->
<g id="edge2_Node000002_Node000003" class="edge">
<title>Node2&#45;&gt;Node3</title>
<g id="a_edge2_Node000002_Node000003"><a xlink:title=" ">
<path fill="none" stroke="#63b8ff" d="M342.56,-67C266.55,-67 93.12,-67 37.22,-67"/>
<polygon fill="#63b8ff" stroke="#63b8ff" points="342.38,-70.5 352.38,-67 342.38,-63.5 342.38,-70.5"/>
</a>
</g>
</g>
<!-- Node4 -->
<g id="Node000004" class="node">
<title>Node4</title>
<g id="a_Node000004"><a xlink:href="tests_8cpp.html#a4dfedd6bea487396641c51297a35d57b" target="_top" xlink:title="Тестирует функцию sqSolve, используя данные из test.">
<polygon fill="white" stroke="#666666" points="318.25,-58 270,-58 270,-38 318.25,-38 318.25,-58"/>
<text text-anchor="middle" x="294.12" y="-44.5" font-family="Helvetica,sans-Serif" font-size="10.00">runTest</text>
</a>
</g>
</g>
<!-- Node2&#45;&gt;Node4 -->
<g id="edge3_Node000002_Node000004" class="edge">
<title>Node2&#45;&gt;Node4</title>
<g id="a_edge3_Node000002_Node000004"><a xlink:title=" ">
<path fill="none" stroke="#63b8ff" d="M343.15,-58.9C334.8,-57 326.12,-55.03 318.47,-53.3"/>
<polygon fill="#63b8ff" stroke="#63b8ff" points="342.2,-62.27 352.72,-61.07 343.75,-55.44 342.2,-62.27"/>
</a>
</g>
</g>
<!-- Node5 -->
<g id="Node000005" class="node">
<title>Node5</title>
<g id="a_Node000005"><a xlink:href="tests_8cpp.html#af69c2591503f36d530dd5912015e849c" target="_top" xlink:title="Запускает тесты из файла с именем fname, использует freadTests() и runTest()">
<polygon fill="white" stroke="#666666" points="234,-58 177.5,-58 177.5,-38 234,-38 234,-58"/>
<text text-anchor="middle" x="205.75" y="-44.5" font-family="Helvetica,sans-Serif" font-size="10.00">frunTests</text>
</a>
</g>
</g>
<!-- Node4&#45;&gt;Node5 -->
<g id="edge4_Node000004_Node000005" class="edge">
<title>Node4&#45;&gt;Node5</title>
<g id="a_edge4_Node000004_Node000005"><a xlink:title=" ">
<path fill="none" stroke="#63b8ff" d="M258.26,-48C250.28,-48 241.92,-48 234.3,-48"/>
<polygon fill="#63b8ff" stroke="#63b8ff" points="258.01,-51.5 268.01,-48 258.01,-44.5 258.01,-51.5"/>
</a>
</g>
</g>
<!-- Node7 -->
<g id="Node000007" class="node">
<title>Node7</title>
<g id="a_Node000007"><a xlink:href="tests_8cpp.html#a2dcdccc8a8ededb7804d00ba921edb73" target="_top" xlink:title="(Устаревшее) Выполняет тесты из внутреннего массива типа struct test_t">
<polygon fill="white" stroke="#666666" points="232.5,-20 179,-20 179,0 232.5,0 232.5,-20"/>
<text text-anchor="middle" x="205.75" y="-6.5" font-family="Helvetica,sans-Serif" font-size="10.00">runTests</text>
</a>
</g>
</g>
<!-- Node4&#45;&gt;Node7 -->
<g id="edge7_Node000004_Node000007" class="edge">
<title>Node4&#45;&gt;Node7</title>
<g id="a_edge7_Node000004_Node000007"><a xlink:title=" ">
<path fill="none" stroke="#63b8ff" d="M259.04,-33C249.42,-28.77 239.18,-24.27 230.32,-20.37"/>
<polygon fill="#63b8ff" stroke="#63b8ff" points="257.57,-36.18 268.14,-37.01 260.39,-29.78 257.57,-36.18"/>
</a>
</g>
</g>
<!-- Node6 -->
<g id="Node000006" class="node">
<title>Node6</title>
<g id="a_Node000006"><a xlink:href="main_8cpp.html#ac52ecffca95f814564c9077d09c4b594" target="_top" xlink:title="Действует в зависимости от значений флагов в fval.">
<polygon fill="white" stroke="#666666" points="141.5,-58 73,-58 73,-38 141.5,-38 141.5,-58"/>
<text text-anchor="middle" x="107.25" y="-44.5" font-family="Helvetica,sans-Serif" font-size="10.00">argvHandler</text>
</a>
</g>
</g>
<!-- Node5&#45;&gt;Node6 -->
<g id="edge5_Node000005_Node000006" class="edge">
<title>Node5&#45;&gt;Node6</title>
<g id="a_edge5_Node000005_Node000006"><a xlink:title=" ">
<path fill="none" stroke="#63b8ff" d="M165.78,-48C157.81,-48 149.49,-48 141.73,-48"/>
<polygon fill="#63b8ff" stroke="#63b8ff" points="165.58,-51.5 175.58,-48 165.58,-44.5 165.58,-51.5"/>
</a>
</g>
</g>
<!-- Node6&#45;&gt;Node3 -->
<g id="edge6_Node000006_Node000003" class="edge">
<title>Node6&#45;&gt;Node3</title>
<g id="a_edge6_Node000006_Node000003"><a xlink:title=" ">
<path fill="none" stroke="#63b8ff" d="M61.87,-57.72C53.06,-59.65 44.3,-61.57 37.06,-63.16"/>
<polygon fill="#63b8ff" stroke="#63b8ff" points="62.46,-61.17 71.48,-55.62 60.96,-54.34 62.46,-61.17"/>
</a>
</g>
</g>
</g>
</svg>
