<?xml version="1.0" encoding="UTF-8" standalone="no"?>
<!DOCTYPE svg PUBLIC "-//W3C//DTD SVG 1.1//EN"
 "http://www.w3.org/Graphics/SVG/1.1/DTD/svg11.dtd">
<!-- Generated by graphviz version 12.1.0 (20240811.2233)
 -->
<!-- Title: D:/Cprojects/square_solver_git/squareSolver/sources/sqmath.cpp Pages: 1 -->
<svg width="367pt" height="164pt"
 viewBox="0.00 0.00 367.12 164.00" xmlns="http://www.w3.org/2000/svg" xmlns:xlink="http://www.w3.org/1999/xlink">
<g id="graph0" class="graph" transform="scale(1 1) rotate(0) translate(4 160)">
<title>D:/Cprojects/square_solver_git/squareSolver/sources/sqmath.cpp</title>
<!-- Node1 -->
<g id="Node000001" class="node">
<title>Node1</title>
<g id="a_Node000001"><a xlink:title=" ">
<polygon fill="#999999" stroke="#666666" points="226.62,-156 103.38,-156 103.38,-112 226.62,-112 226.62,-156"/>
<text text-anchor="start" x="111.38" y="-142.5" font-family="Helvetica,sans-Serif" font-size="10.00">D:/Cprojects/square</text>
<text text-anchor="start" x="111.38" y="-130.5" font-family="Helvetica,sans-Serif" font-size="10.00">_solver_git/squareSolver</text>
<text text-anchor="middle" x="165" y="-118.5" font-family="Helvetica,sans-Serif" font-size="10.00">/sources/sqmath.cpp</text>
</a>
</g>
</g>
<!-- Node2 -->
<g id="Node000002" class="node">
<title>Node2</title>
<g id="a_Node000002"><a xlink:title=" ">
<polygon fill="#e0e0e0" stroke="#999999" points="46,-76 0,-76 0,-56 46,-56 46,-76"/>
<text text-anchor="middle" x="23" y="-62.5" font-family="Helvetica,sans-Serif" font-size="10.00">math.h</text>
</a>
</g>
</g>
<!-- Node1&#45;&gt;Node2 -->
<g id="edge1_Node000001_Node000002" class="edge">
<title>Node1&#45;&gt;Node2</title>
<g id="a_edge1_Node000001_Node000002"><a xlink:title=" ">
<path fill="none" stroke="#63b8ff" d="M118.9,-111.57C97.4,-101.58 72.43,-89.97 53.35,-81.11"/>
<polygon fill="#63b8ff" stroke="#63b8ff" points="55.07,-78.04 44.52,-77 52.12,-84.39 55.07,-78.04"/>
</a>
</g>
</g>
<!-- Node3 -->
<g id="Node000003" class="node">
<title>Node3</title>
<g id="a_Node000003"><a xlink:href="sqmath_8h.html" target="_top" xlink:title=" ">
<polygon fill="white" stroke="#666666" points="120.25,-76 63.75,-76 63.75,-56 120.25,-56 120.25,-76"/>
<text text-anchor="middle" x="92" y="-62.5" font-family="Helvetica,sans-Serif" font-size="10.00">sqmath.h</text>
</a>
</g>
</g>
<!-- Node1&#45;&gt;Node3 -->
<g id="edge2_Node000001_Node000003" class="edge">
<title>Node1&#45;&gt;Node3</title>
<g id="a_edge2_Node000001_Node000003"><a xlink:title=" ">
<path fill="none" stroke="#63b8ff" d="M141.5,-111.75C131.62,-102.82 120.28,-92.57 110.95,-84.13"/>
<polygon fill="#63b8ff" stroke="#63b8ff" points="113.31,-81.54 103.54,-77.43 108.61,-86.74 113.31,-81.54"/>
</a>
</g>
</g>
<!-- Node4 -->
<g id="Node000004" class="node">
<title>Node4</title>
<g id="a_Node000004"><a xlink:href="consts_8h.html" target="_top" xlink:title=" ">
<polygon fill="white" stroke="#666666" points="191.75,-76 138.25,-76 138.25,-56 191.75,-56 191.75,-76"/>
<text text-anchor="middle" x="165" y="-62.5" font-family="Helvetica,sans-Serif" font-size="10.00">consts.h</text>
</a>
</g>
</g>
<!-- Node1&#45;&gt;Node4 -->
<g id="edge3_Node000001_Node000004" class="edge">
<title>Node1&#45;&gt;Node4</title>
<g id="a_edge3_Node000001_Node000004"><a xlink:title=" ">
<path fill="none" stroke="#63b8ff" d="M165,-111.75C165,-104.13 165,-95.53 165,-87.93"/>
<polygon fill="#63b8ff" stroke="#63b8ff" points="168.5,-87.93 165,-77.93 161.5,-87.93 168.5,-87.93"/>
</a>
</g>
</g>
<!-- Node5 -->
<g id="Node000005" class="node">
<title>Node5</title>
<g id="a_Node000005"><a xlink:href="myassert_8h.html" target="_top" xlink:title=" ">
<polygon fill="white" stroke="#666666" points="274.38,-76 209.62,-76 209.62,-56 274.38,-56 274.38,-76"/>
<text text-anchor="middle" x="242" y="-62.5" font-family="Helvetica,sans-Serif" font-size="10.00">myassert.h</text>
</a>
</g>
</g>
<!-- Node1&#45;&gt;Node5 -->
<g id="edge4_Node000001_Node000005" class="edge">
<title>Node1&#45;&gt;Node5</title>
<g id="a_edge4_Node000001_Node000005"><a xlink:title=" ">
<path fill="none" stroke="#63b8ff" d="M189.79,-111.75C200.32,-102.73 212.42,-92.36 222.32,-83.87"/>
<polygon fill="#63b8ff" stroke="#63b8ff" points="224.55,-86.57 229.86,-77.4 219.99,-81.25 224.55,-86.57"/>
</a>
</g>
</g>
<!-- Node9 -->
<g id="Node000009" class="node">
<title>Node9</title>
<g id="a_Node000009"><a xlink:href="myisfinite_8h.html" target="_top" xlink:title=" ">
<polygon fill="white" stroke="#666666" points="359.12,-76 292.88,-76 292.88,-56 359.12,-56 359.12,-76"/>
<text text-anchor="middle" x="326" y="-62.5" font-family="Helvetica,sans-Serif" font-size="10.00">myisfinite.h</text>
</a>
</g>
</g>
<!-- Node1&#45;&gt;Node9 -->
<g id="edge8_Node000001_Node000009" class="edge">
<title>Node1&#45;&gt;Node9</title>
<g id="a_edge8_Node000001_Node000009"><a xlink:title=" ">
<path fill="none" stroke="#63b8ff" d="M217.27,-111.57C242.09,-101.4 271.01,-89.54 292.79,-80.62"/>
<polygon fill="#63b8ff" stroke="#63b8ff" points="293.83,-83.97 301.75,-76.94 291.17,-77.49 293.83,-83.97"/>
</a>
</g>
</g>
<!-- Node6 -->
<g id="Node000006" class="node">
<title>Node6</title>
<g id="a_Node000006"><a xlink:title=" ">
<polygon fill="#e0e0e0" stroke="#999999" points="198.75,-20 151.25,-20 151.25,0 198.75,0 198.75,-20"/>
<text text-anchor="middle" x="175" y="-6.5" font-family="Helvetica,sans-Serif" font-size="10.00">stdlib.h</text>
</a>
</g>
</g>
<!-- Node5&#45;&gt;Node6 -->
<g id="edge5_Node000005_Node000006" class="edge">
<title>Node5&#45;&gt;Node6</title>
<g id="a_edge5_Node000005_Node000006"><a xlink:title=" ">
<path fill="none" stroke="#63b8ff" d="M230.33,-55.59C220.72,-47.85 206.87,-36.69 195.43,-27.47"/>
<polygon fill="#63b8ff" stroke="#63b8ff" points="197.7,-24.8 187.72,-21.25 193.3,-30.25 197.7,-24.8"/>
</a>
</g>
</g>
<!-- Node7 -->
<g id="Node000007" class="node">
<title>Node7</title>
<g id="a_Node000007"><a xlink:href="colors_8h.html" target="_top" xlink:title=" ">
<polygon fill="white" stroke="#666666" points="267.25,-20 216.75,-20 216.75,0 267.25,0 267.25,-20"/>
<text text-anchor="middle" x="242" y="-6.5" font-family="Helvetica,sans-Serif" font-size="10.00">colors.h</text>
</a>
</g>
</g>
<!-- Node5&#45;&gt;Node7 -->
<g id="edge6_Node000005_Node000007" class="edge">
<title>Node5&#45;&gt;Node7</title>
<g id="a_edge6_Node000005_Node000007"><a xlink:title=" ">
<path fill="none" stroke="#63b8ff" d="M242,-55.59C242,-49.01 242,-39.96 242,-31.73"/>
<polygon fill="#63b8ff" stroke="#63b8ff" points="245.5,-31.81 242,-21.81 238.5,-31.81 245.5,-31.81"/>
</a>
</g>
</g>
<!-- Node8 -->
<g id="Node000008" class="node">
<title>Node8</title>
<g id="a_Node000008"><a xlink:href="col_printf_8h.html" target="_top" xlink:title=" ">
<polygon fill="white" stroke="#666666" points="345.12,-20 284.88,-20 284.88,0 345.12,0 345.12,-20"/>
<text text-anchor="middle" x="315" y="-6.5" font-family="Helvetica,sans-Serif" font-size="10.00">colPrintf.h</text>
</a>
</g>
</g>
<!-- Node5&#45;&gt;Node8 -->
<g id="edge7_Node000005_Node000008" class="edge">
<title>Node5&#45;&gt;Node8</title>
<g id="a_edge7_Node000005_Node000008"><a xlink:title=" ">
<path fill="none" stroke="#63b8ff" d="M254.72,-55.59C265.39,-47.7 280.88,-36.24 293.48,-26.92"/>
<polygon fill="#63b8ff" stroke="#63b8ff" points="295.26,-29.96 301.21,-21.2 291.09,-24.33 295.26,-29.96"/>
</a>
</g>
</g>
</g>
</svg>
