<?xml version="1.0" encoding="UTF-8" standalone="no"?>
<!DOCTYPE svg PUBLIC "-//W3C//DTD SVG 1.1//EN"
 "http://www.w3.org/Graphics/SVG/1.1/DTD/svg11.dtd">
<!-- Generated by graphviz version 12.1.0 (20240811.2233)
 -->
<!-- Title: eqRoots Pages: 1 -->
<svg width="235pt" height="28pt"
 viewBox="0.00 0.00 235.25 28.00" xmlns="http://www.w3.org/2000/svg" xmlns:xlink="http://www.w3.org/1999/xlink">
<g id="graph0" class="graph" transform="scale(1 1) rotate(0) translate(4 24)">
<title>eqRoots</title>
<!-- Node1 -->
<g id="Node000001" class="node">
<title>Node1</title>
<g id="a_Node000001"><a xlink:title="С погрешностью EPSILON сравнивает корни типа roots_t.">
<polygon fill="#999999" stroke="#666666" points="52.75,-20 0,-20 0,0 52.75,0 52.75,-20"/>
<text text-anchor="middle" x="26.38" y="-6.5" font-family="Helvetica,sans-Serif" font-size="10.00">eqRoots</text>
</a>
</g>
</g>
<!-- Node2 -->
<g id="Node000002" class="node">
<title>Node2</title>
<g id="a_Node000002"><a xlink:href="sqmath_8cpp.html#afc2fd18b983db1a6b8530aa3fb24da1e" target="_top" xlink:title="С погрешностью EPSILON сравнивает 2 числа типа double.">
<polygon fill="white" stroke="#666666" points="133.25,-20 88.75,-20 88.75,0 133.25,0 133.25,-20"/>
<text text-anchor="middle" x="111" y="-6.5" font-family="Helvetica,sans-Serif" font-size="10.00">equals</text>
</a>
</g>
</g>
<!-- Node1&#45;&gt;Node2 -->
<g id="edge1_Node000001_Node000002" class="edge">
<title>Node1&#45;&gt;Node2</title>
<g id="a_edge1_Node000001_Node000002"><a xlink:title=" ">
<path fill="none" stroke="#63b8ff" d="M53.07,-10C60.7,-10 69.18,-10 77.2,-10"/>
<polygon fill="#63b8ff" stroke="#63b8ff" points="76.98,-13.5 86.98,-10 76.98,-6.5 76.98,-13.5"/>
</a>
</g>
</g>
<!-- Node3 -->
<g id="Node000003" class="node">
<title>Node3</title>
<g id="a_Node000003"><a xlink:href="myisfinite_8cpp.html#afd2bf05e56bb7a125c4fe3587f897deb" target="_top" xlink:title="Буквально isfinite, только мой &#45; если число не NAN, INF, &#45;INF, возвращает 1.">
<polygon fill="white" stroke="#666666" points="227.25,-20 169.25,-20 169.25,0 227.25,0 227.25,-20"/>
<text text-anchor="middle" x="198.25" y="-6.5" font-family="Helvetica,sans-Serif" font-size="10.00">myisfinite</text>
</a>
</g>
</g>
<!-- Node2&#45;&gt;Node3 -->
<g id="edge2_Node000002_Node000003" class="edge">
<title>Node2&#45;&gt;Node3</title>
<g id="a_edge2_Node000002_Node000003"><a xlink:title=" ">
<path fill="none" stroke="#63b8ff" d="M133.51,-10C140.82,-10 149.24,-10 157.51,-10"/>
<polygon fill="#63b8ff" stroke="#63b8ff" points="157.46,-13.5 167.46,-10 157.46,-6.5 157.46,-13.5"/>
</a>
</g>
</g>
</g>
</svg>
