<?xml version="1.0" encoding="UTF-8" standalone="no"?>
<!DOCTYPE svg PUBLIC "-//W3C//DTD SVG 1.1//EN"
 "http://www.w3.org/Graphics/SVG/1.1/DTD/svg11.dtd">
<!-- Generated by graphviz version 12.1.0 (20240811.2233)
 -->
<!-- Title: sqSolve Pages: 1 -->
<svg width="319pt" height="142pt"
 viewBox="0.00 0.00 318.75 142.00" xmlns="http://www.w3.org/2000/svg" xmlns:xlink="http://www.w3.org/1999/xlink">
<g id="graph0" class="graph" transform="scale(1 1) rotate(0) translate(4 138)">
<title>sqSolve</title>
<!-- Node1 -->
<g id="Node000001" class="node">
<title>Node1</title>
<g id="a_Node000001"><a xlink:title="Решает квадратное уравнение вида ax^2 + bx + c = 0. Коэффициенты берет из структуры coeffs_t,...">
<polygon fill="#999999" stroke="#666666" points="51.25,-77 0,-77 0,-57 51.25,-57 51.25,-77"/>
<text text-anchor="middle" x="25.62" y="-63.5" font-family="Helvetica,sans-Serif" font-size="10.00">sqSolve</text>
</a>
</g>
</g>
<!-- Node2 -->
<g id="Node000002" class="node">
<title>Node2</title>
<g id="a_Node000002"><a xlink:href="sqmath_8cpp.html#aabc47b97dff1309b0dba82045778e896" target="_top" xlink:title="Считает дискриминант, используя коэффициенты из структуры типа coeffs_t.">
<polygon fill="white" stroke="#666666" points="213.75,-134 176.75,-134 176.75,-114 213.75,-114 213.75,-134"/>
<text text-anchor="middle" x="195.25" y="-120.5" font-family="Helvetica,sans-Serif" font-size="10.00">discr</text>
</a>
</g>
</g>
<!-- Node1&#45;&gt;Node2 -->
<g id="edge1_Node000001_Node000002" class="edge">
<title>Node1&#45;&gt;Node2</title>
<g id="a_edge1_Node000001_Node000002"><a xlink:title=" ">
<path fill="none" stroke="#63b8ff" d="M42.76,-77.4C54.65,-84.65 71.43,-94.05 87.25,-100 112.81,-109.61 143.32,-115.98 165.21,-119.73"/>
<polygon fill="#63b8ff" stroke="#63b8ff" points="164.47,-123.16 174.9,-121.31 165.59,-116.25 164.47,-123.16"/>
</a>
</g>
</g>
<!-- Node3 -->
<g id="Node000003" class="node">
<title>Node3</title>
<g id="a_Node000003"><a xlink:href="myisfinite_8cpp.html#afd2bf05e56bb7a125c4fe3587f897deb" target="_top" xlink:title="Буквально isfinite, только мой &#45; если число не NAN, INF, &#45;INF, возвращает 1.">
<polygon fill="white" stroke="#666666" points="310.75,-77 252.75,-77 252.75,-57 310.75,-57 310.75,-77"/>
<text text-anchor="middle" x="281.75" y="-63.5" font-family="Helvetica,sans-Serif" font-size="10.00">myisfinite</text>
</a>
</g>
</g>
<!-- Node1&#45;&gt;Node3 -->
<g id="edge8_Node000001_Node000003" class="edge">
<title>Node1&#45;&gt;Node3</title>
<g id="a_edge8_Node000001_Node000003"><a xlink:title=" ">
<path fill="none" stroke="#63b8ff" d="M51.68,-69.02C62.6,-69.81 75.55,-70.61 87.25,-71 140.51,-72.76 202.04,-70.8 241.16,-69.06"/>
<polygon fill="#63b8ff" stroke="#63b8ff" points="241.21,-72.56 251.03,-68.6 240.88,-65.57 241.21,-72.56"/>
</a>
</g>
</g>
<!-- Node4 -->
<g id="Node000004" class="node">
<title>Node4</title>
<g id="a_Node000004"><a xlink:href="sqmath_8cpp.html#a72f9e3f1ac3e22071bdcdd823010b63b" target="_top" xlink:title="Приближенно сравнивает a с 0. Погрешность определяется константой EPSILON.">
<polygon fill="white" stroke="#666666" points="216.75,-58 173.75,-58 173.75,-38 216.75,-38 216.75,-58"/>
<text text-anchor="middle" x="195.25" y="-44.5" font-family="Helvetica,sans-Serif" font-size="10.00">isZero</text>
</a>
</g>
</g>
<!-- Node1&#45;&gt;Node4 -->
<g id="edge3_Node000001_Node000004" class="edge">
<title>Node1&#45;&gt;Node4</title>
<g id="a_edge3_Node000001_Node000004"><a xlink:title=" ">
<path fill="none" stroke="#63b8ff" d="M51.72,-64.16C81.12,-60.82 129.88,-55.3 162.05,-51.65"/>
<polygon fill="#63b8ff" stroke="#63b8ff" points="162.44,-55.13 171.98,-50.52 161.65,-48.17 162.44,-55.13"/>
</a>
</g>
</g>
<!-- Node5 -->
<g id="Node000005" class="node">
<title>Node5</title>
<g id="a_Node000005"><a xlink:href="sqmath_8cpp.html#aadb30e038879ab02aee3f881974ed8fc" target="_top" xlink:title="Решает линейное уравнение вида bx + c = 0.">
<polygon fill="white" stroke="#666666" points="137.75,-20 87.25,-20 87.25,0 137.75,0 137.75,-20"/>
<text text-anchor="middle" x="112.5" y="-6.5" font-family="Helvetica,sans-Serif" font-size="10.00">linSolve</text>
</a>
</g>
</g>
<!-- Node1&#45;&gt;Node5 -->
<g id="edge5_Node000001_Node000005" class="edge">
<title>Node1&#45;&gt;Node5</title>
<g id="a_edge5_Node000001_Node000005"><a xlink:title=" ">
<path fill="none" stroke="#63b8ff" d="M42.19,-56.55C54.64,-48.19 72.31,-36.32 86.7,-26.65"/>
<polygon fill="#63b8ff" stroke="#63b8ff" points="88.42,-29.71 94.77,-21.23 84.52,-23.9 88.42,-29.71"/>
</a>
</g>
</g>
<!-- Node2&#45;&gt;Node3 -->
<g id="edge2_Node000002_Node000003" class="edge">
<title>Node2&#45;&gt;Node3</title>
<g id="a_edge2_Node000002_Node000003"><a xlink:title=" ">
<path fill="none" stroke="#63b8ff" d="M211.75,-113.55C224.14,-105.19 241.74,-93.32 256.06,-83.65"/>
<polygon fill="#63b8ff" stroke="#63b8ff" points="257.76,-86.73 264.09,-78.23 253.85,-80.93 257.76,-86.73"/>
</a>
</g>
</g>
<!-- Node4&#45;&gt;Node3 -->
<g id="edge4_Node000004_Node000003" class="edge">
<title>Node4&#45;&gt;Node3</title>
<g id="a_edge4_Node000004_Node000003"><a xlink:title=" ">
<path fill="none" stroke="#63b8ff" d="M217.14,-52.7C224.46,-54.34 232.95,-56.25 241.29,-58.13"/>
<polygon fill="#63b8ff" stroke="#63b8ff" points="240.45,-61.53 250.98,-60.31 241.99,-54.7 240.45,-61.53"/>
</a>
</g>
</g>
<!-- Node5&#45;&gt;Node3 -->
<g id="edge7_Node000005_Node000003" class="edge">
<title>Node5&#45;&gt;Node3</title>
<g id="a_edge7_Node000005_Node000003"><a xlink:title=" ">
<path fill="none" stroke="#63b8ff" d="M137.93,-12.04C159.28,-14.4 190.81,-19.27 216.75,-29 230.88,-34.3 245.44,-42.67 257.09,-50.21"/>
<polygon fill="#63b8ff" stroke="#63b8ff" points="254.99,-53.02 265.25,-55.68 258.89,-47.2 254.99,-53.02"/>
</a>
</g>
</g>
<!-- Node5&#45;&gt;Node4 -->
<g id="edge6_Node000005_Node000004" class="edge">
<title>Node5&#45;&gt;Node4</title>
<g id="a_edge6_Node000005_Node000004"><a xlink:title=" ">
<path fill="none" stroke="#63b8ff" d="M135.57,-20.38C144.02,-24.36 153.84,-28.98 163,-33.29"/>
<polygon fill="#63b8ff" stroke="#63b8ff" points="161.42,-36.42 171.95,-37.51 164.4,-30.08 161.42,-36.42"/>
</a>
</g>
</g>
</g>
</svg>
