<?xml version="1.0" encoding="UTF-8" standalone="no"?>
<!DOCTYPE svg PUBLIC "-//W3C//DTD SVG 1.1//EN"
 "http://www.w3.org/Graphics/SVG/1.1/DTD/svg11.dtd">
<!-- Generated by graphviz version 12.1.0 (20240811.2233)
 -->
<!-- Title: linSolve Pages: 1 -->
<svg width="232pt" height="47pt"
 viewBox="0.00 0.00 231.50 47.00" xmlns="http://www.w3.org/2000/svg" xmlns:xlink="http://www.w3.org/1999/xlink">
<g id="graph0" class="graph" transform="scale(1 1) rotate(0) translate(4 43)">
<title>linSolve</title>
<!-- Node1 -->
<g id="Node000001" class="node">
<title>Node1</title>
<g id="a_Node000001"><a xlink:title="Решает линейное уравнение вида bx + c = 0.">
<polygon fill="#999999" stroke="#666666" points="50.5,-20 0,-20 0,0 50.5,0 50.5,-20"/>
<text text-anchor="middle" x="25.25" y="-6.5" font-family="Helvetica,sans-Serif" font-size="10.00">linSolve</text>
</a>
</g>
</g>
<!-- Node2 -->
<g id="Node000002" class="node">
<title>Node2</title>
<g id="a_Node000002"><a xlink:href="sqmath_8cpp.html#a72f9e3f1ac3e22071bdcdd823010b63b" target="_top" xlink:title="Приближенно сравнивает a с 0. Погрешность определяется константой EPSILON.">
<polygon fill="white" stroke="#666666" points="129.5,-39 86.5,-39 86.5,-19 129.5,-19 129.5,-39"/>
<text text-anchor="middle" x="108" y="-25.5" font-family="Helvetica,sans-Serif" font-size="10.00">isZero</text>
</a>
</g>
</g>
<!-- Node1&#45;&gt;Node2 -->
<g id="edge1_Node000001_Node000002" class="edge">
<title>Node1&#45;&gt;Node2</title>
<g id="a_edge1_Node000001_Node000002"><a xlink:title=" ">
<path fill="none" stroke="#63b8ff" d="M50.92,-15.8C58.46,-17.58 66.87,-19.56 74.83,-21.43"/>
<polygon fill="#63b8ff" stroke="#63b8ff" points="74.02,-24.83 84.55,-23.72 75.62,-18.02 74.02,-24.83"/>
</a>
</g>
</g>
<!-- Node3 -->
<g id="Node000003" class="node">
<title>Node3</title>
<g id="a_Node000003"><a xlink:href="myisfinite_8cpp.html#afd2bf05e56bb7a125c4fe3587f897deb" target="_top" xlink:title="Буквально isfinite, только мой &#45; если число не NAN, INF, &#45;INF, возвращает 1.">
<polygon fill="white" stroke="#666666" points="223.5,-20 165.5,-20 165.5,0 223.5,0 223.5,-20"/>
<text text-anchor="middle" x="194.5" y="-6.5" font-family="Helvetica,sans-Serif" font-size="10.00">myisfinite</text>
</a>
</g>
</g>
<!-- Node1&#45;&gt;Node3 -->
<g id="edge3_Node000001_Node000003" class="edge">
<title>Node1&#45;&gt;Node3</title>
<g id="a_edge3_Node000001_Node000003"><a xlink:title=" ">
<path fill="none" stroke="#63b8ff" d="M50.93,-10C78.04,-10 121.97,-10 153.91,-10"/>
<polygon fill="#63b8ff" stroke="#63b8ff" points="153.56,-13.5 163.56,-10 153.56,-6.5 153.56,-13.5"/>
</a>
</g>
</g>
<!-- Node2&#45;&gt;Node3 -->
<g id="edge2_Node000002_Node000003" class="edge">
<title>Node2&#45;&gt;Node3</title>
<g id="a_edge2_Node000002_Node000003"><a xlink:title=" ">
<path fill="none" stroke="#63b8ff" d="M129.89,-24.3C137.21,-22.66 145.7,-20.75 154.04,-18.87"/>
<polygon fill="#63b8ff" stroke="#63b8ff" points="154.74,-22.3 163.73,-16.69 153.2,-15.47 154.74,-22.3"/>
</a>
</g>
</g>
</g>
</svg>
