<?xml version="1.0" encoding="UTF-8" standalone="no"?>
<!DOCTYPE svg PUBLIC "-//W3C//DTD SVG 1.1//EN"
 "http://www.w3.org/Graphics/SVG/1.1/DTD/svg11.dtd">
<!-- Generated by graphviz version 6.0.2 (20221011.1828)
 -->
<!-- Title: test_t Pages: 1 -->
<svg width="124pt" height="93pt"
 viewBox="0.00 0.00 123.50 93.00" xmlns="http://www.w3.org/2000/svg" xmlns:xlink="http://www.w3.org/1999/xlink">
<g id="graph0" class="graph" transform="scale(1 1) rotate(0) translate(4 89)">
<title>test_t</title>
<!-- Node1 -->
<g id="Node000001" class="node">
<title>Node1</title>
<g id="a_Node000001"><a xlink:title="Структура, содержащая коэффициенты и эталонные значения для тестов функции sqSolve()">
<polygon fill="#999999" stroke="#666666" points="78.5,-19 37.5,-19 37.5,0 78.5,0 78.5,-19"/>
<text text-anchor="middle" x="58" y="-7" font-family="Helvetica,sans-Serif" font-size="10.00">test_t</text>
</a>
</g>
</g>
<!-- Node2 -->
<g id="Node000002" class="node">
<title>Node2</title>
<g id="a_Node000002"><a xlink:href="structcoeffs__t.html" target="_top" xlink:title="Структура, содержащая 3 коэффициента квадратного уравнения (a, b, c)">
<polygon fill="white" stroke="#666666" points="50,-85 0,-85 0,-66 50,-66 50,-85"/>
<text text-anchor="middle" x="25" y="-73" font-family="Helvetica,sans-Serif" font-size="10.00">coeffs_t</text>
</a>
</g>
</g>
<!-- Node2&#45;&gt;Node1 -->
<g id="edge1_Node000001_Node000002" class="edge">
<title>Node2&#45;&gt;Node1</title>
<g id="a_edge1_Node000001_Node000002"><a xlink:title=" ">
<path fill="none" stroke="#9a32cd" stroke-dasharray="5,2" d="M34.19,-56.68C40.44,-44.55 48.46,-29.01 53.41,-19.41"/>
<polygon fill="#9a32cd" stroke="#9a32cd" points="30.92,-55.38 29.45,-65.87 37.14,-58.58 30.92,-55.38"/>
</a>
</g>
<text text-anchor="middle" x="55" y="-40" font-family="Helvetica,sans-Serif" font-size="10.00" fill="grey"> coef</text>
</g>
<!-- Node3 -->
<g id="Node000003" class="node">
<title>Node3</title>
<g id="a_Node000003"><a xlink:href="structroots__t.html" target="_top" xlink:title="Структура, 2 переменные для корней квадратного уравнения и nRoots, содержащая количество корней">
<polygon fill="white" stroke="#666666" points="115.5,-85 68.5,-85 68.5,-66 115.5,-66 115.5,-85"/>
<text text-anchor="middle" x="92" y="-73" font-family="Helvetica,sans-Serif" font-size="10.00">roots_t</text>
</a>
</g>
</g>
<!-- Node3&#45;&gt;Node1 -->
<g id="edge2_Node000001_Node000003" class="edge">
<title>Node3&#45;&gt;Node1</title>
<g id="a_edge2_Node000001_Node000003"><a xlink:title=" ">
<path fill="none" stroke="#9a32cd" stroke-dasharray="5,2" d="M82.54,-56.68C76.09,-44.55 67.83,-29.01 62.73,-19.41"/>
<polygon fill="#9a32cd" stroke="#9a32cd" points="79.63,-58.68 87.41,-65.87 85.81,-55.4 79.63,-58.68"/>
</a>
</g>
<text text-anchor="middle" x="87" y="-40" font-family="Helvetica,sans-Serif" font-size="10.00" fill="grey"> root</text>
</g>
</g>
</svg>
